<svg xmlns="http://www.w3.org/2000/svg" width="697" height="723.303" viewBox="0 0 697 723.303">
    <defs>
        <filter id="패스_1098" width="198.443" height="219.861" x="339.489" y="0" filterUnits="userSpaceOnUse">
            <feOffset dy="5"/>
            <feGaussianBlur result="blur" stdDeviation="10"/>
            <feFlood flood-opacity=".361"/>
            <feComposite in2="blur" operator="in"/>
            <feComposite in="SourceGraphic"/>
        </filter>
        <filter id="패스_1096" width="198.443" height="219.861" x="413.085" y="125.86" filterUnits="userSpaceOnUse">
            <feOffset dy="5"/>
            <feGaussianBlur result="blur-2" stdDeviation="10"/>
            <feFlood flood-opacity=".361"/>
            <feComposite in2="blur-2" operator="in"/>
            <feComposite in="SourceGraphic"/>
        </filter>
        <filter id="패스_1093" width="198.443" height="219.861" x="339.489" y="250.654" filterUnits="userSpaceOnUse">
            <feOffset dy="5"/>
            <feGaussianBlur result="blur-3" stdDeviation="10"/>
            <feFlood flood-opacity=".361"/>
            <feComposite in2="blur-3" operator="in"/>
            <feComposite in="SourceGraphic"/>
        </filter>
        <filter id="패스_1092" width="198.443" height="219.861" x="413.085" y="376.515" filterUnits="userSpaceOnUse">
            <feOffset dy="5"/>
            <feGaussianBlur result="blur-4" stdDeviation="10"/>
            <feFlood flood-opacity=".361"/>
            <feComposite in2="blur-4" operator="in"/>
            <feComposite in="SourceGraphic"/>
        </filter>
        <filter id="패스_1091" width="198.443" height="219.861" x="339.489" y="503.442" filterUnits="userSpaceOnUse">
            <feOffset dy="5"/>
            <feGaussianBlur result="blur-5" stdDeviation="10"/>
            <feFlood flood-opacity=".361"/>
            <feComposite in2="blur-5" operator="in"/>
            <feComposite in="SourceGraphic"/>
        </filter>
        <style>
            .cls-1{fill:#555;font-size:20px;font-family:NanumSquare_acB,NanumSquare_ac}.cls-2{fill:#fafafa}.cls-3{fill:#3769fc}.cls-4{fill:#707070}.cls-4,.cls-5{stroke:#707070}.cls-5,.cls-9{fill:none}.cls-5{stroke-width:1.5px;opacity:.89}.cls-8{stroke:none}
        </style>
    </defs>
    <g id="그룹_1487" transform="translate(-253 -3193)">
        <text id="글로벌_경제_Data_분석" class="cls-1" transform="translate(791 3290)">
            <tspan x="0" y="0">글로벌 경제</tspan><tspan x="0" y="24">Data 분석</tspan>
        </text>
        <text id="산업별_Data_분석" class="cls-1" transform="translate(859 3421)">
            <tspan x="0" y="0">산업별</tspan><tspan x="0" y="24">Data 분석</tspan>
        </text>
        <text id="실물자산_시장_분석" class="cls-1" transform="translate(791 3544)">
            <tspan x="0" y="0">실물자산</tspan><tspan x="0" y="24">시장 분석</tspan>
        </text>
        <text id="투자_Data_트렌드_분석" class="cls-1" transform="translate(859 3667)">
            <tspan x="0" y="0">투자 Data</tspan><tspan x="0" y="24">트렌드 분석</tspan>
        </text>
        <text id="투자자_성향_분석" class="cls-1" transform="translate(791 3799)">
            <tspan x="0" y="0">투자자</tspan><tspan x="0" y="24">성향 분석</tspan>
        </text>
        <g filter="url(#패스_1098)" transform="translate(253 3193)">
            <path id="패스_1098-2" d="M-6431.71-2254.565v-79.935l-69.222-39.965-69.221 39.965v79.931l69.221 39.965z" class="cls-2" transform="translate(6939.64 2399.46)"/>
        </g>
        <g filter="url(#패스_1096)" transform="translate(253 3193)">
            <path id="패스_1096-2" d="M-6431.71-2254.565v-79.935l-69.222-39.965-69.221 39.965v79.931l69.221 39.965z" class="cls-2" transform="translate(7013.24 2525.32)"/>
        </g>
        <g filter="url(#패스_1093)" transform="translate(253 3193)">
            <path id="패스_1093-2" d="M-6431.71-2254.565v-79.935l-69.222-39.965-69.221 39.965v79.931l69.221 39.965z" class="cls-2" transform="translate(6939.64 2650.12)"/>
        </g>
        <g filter="url(#패스_1092)" transform="translate(253 3193)">
            <path id="패스_1092-2" d="M-6431.71-2254.565v-79.935l-69.222-39.965-69.221 39.965v79.931l69.221 39.965z" class="cls-2" transform="translate(7013.24 2775.98)"/>
        </g>
        <g filter="url(#패스_1091)" transform="translate(253 3193)">
            <path id="패스_1091-2" d="M-6431.71-2254.565v-79.935l-69.222-39.965-69.221 39.965v79.931l69.221 39.965z" class="cls-2" transform="translate(6939.64 2902.9)"/>
        </g>
        <g id="noun_exchange_2278010" transform="translate(643.698 3249.644)">
            <g id="그룹_1074">
                <path id="패스_1074" d="M83.112 84a6.206 6.206 0 0 1-1.982 7.075h9.741a.641.641 0 1 1 0 1.282h-12.92a.641.641 0 0 1-.034-1.282 4.14 4.14 0 0 0 .991-.222 4.931 4.931 0 0 0 3.2-3.5 4.981 4.981 0 0 0-.38-3.353h-3.777a.641.641 0 1 1 0-1.282h3.11a6.217 6.217 0 0 1 2.529-7.622 6.178 6.178 0 0 1 6.152-.171.638.638 0 0 1-.6 1.128 4.839 4.839 0 0 0-2.461-.581 4.727 4.727 0 0 0-2.427.718 4.978 4.978 0 0 0-2.239 3.042 4.9 4.9 0 0 0 .461 3.486h4.255a.641.641 0 0 1 0 1.282h-3.619zM48.488 10.392a.65.65 0 0 1 .718-.547.66.66 0 0 1 .547.718l-.205 1.521 1.521.205a.628.628 0 0 1 .547.718.65.65 0 0 1-.718.547l-1.521-.205-.205 1.521a.633.633 0 0 1-.7.547.66.66 0 0 1-.564-.718l.205-1.521-1.521-.205a.64.64 0 0 1-.547-.718.66.66 0 0 1 .718-.547l1.521.205zm-9.946 75.827a.639.639 0 0 1 .735-.53.651.651 0 0 1 .53.735l-.256 1.5 1.5.256a.661.661 0 0 1 .53.735.639.639 0 0 1-.735.53l-1.521-.256-.239 1.5a.648.648 0 0 1-.735.53.639.639 0 0 1-.53-.735l.256-1.5-1.5-.256a.648.648 0 0 1-.53-.735.639.639 0 0 1 .735-.53l1.5.256zM23.434 68.361a.634.634 0 1 1 1.128.581l-.7 1.367 1.367.7a.638.638 0 1 1-.6 1.128l-1.35-.7-.718 1.35a.614.614 0 0 1-.854.273.643.643 0 0 1-.273-.854l.7-1.35-1.35-.718a.628.628 0 0 1-.273-.854.643.643 0 0 1 .854-.273l1.367.7.7-1.35zm19.824-2.222l-7.212-7.195-6.152 6.156a.645.645 0 0 1-.906 0 .651.651 0 0 1-.188-.41L27.416 44.4a.637.637 0 0 1 .6-.684l20.046 1.709a.663.663 0 0 1 .6.7.7.7 0 0 1-.222.427l-5.793 5.811 7.007 7.007a.64.64 0 0 1-.906.906l-7.451-7.451a.661.661 0 0 1 0-.906l5.3-5.332-17.865-1.537L29.98 63.2l5.62-5.623a.661.661 0 0 1 .906 0l7.656 7.656c.566.581-.306 1.521-.904.906zm45.579-31.668a.651.651 0 0 1 .735-.53.661.661 0 0 1 .53.735l-.257 1.524 1.5.256a.642.642 0 0 1 .53.735.635.635 0 0 1-.735.513l-1.521-.256-.256 1.5a.632.632 0 1 1-1.248-.205l.239-1.5-1.5-.256a.627.627 0 0 1-.513-.735.642.642 0 0 1 .735-.53l1.5.256.256-1.5zM76.02 17.142a.628.628 0 0 1 .854-.273.614.614 0 0 1 .273.854l-.7 1.367 1.367.7a.643.643 0 0 1 .273.854.633.633 0 0 1-.872.273l-1.35-.7-.7 1.35a.633.633 0 0 1-.872.273.643.643 0 0 1-.273-.854l.7-1.35-1.35-.7a.642.642 0 0 1 .581-1.145l1.367.7zM65.971 97.225a.643.643 0 1 1 .376 1.23A48.494 48.494 0 0 1 3.661 52.091a48.214 48.214 0 0 1 1.948-13.6.623.623 0 0 1 .791-.431.639.639 0 0 1 .444.786 47.207 47.207 0 0 0 59.127 58.379zm17.26-31.377A17.423 17.423 0 1 1 65.817 83.28a17.424 17.424 0 0 1 17.414-17.432zm0 1.282a16.141 16.141 0 1 0 16.15 16.15 16.148 16.148 0 0 0-16.15-16.15zM38.866 6.786a.641.641 0 0 1-.359-1.23A48.471 48.471 0 0 1 100.1 59.32a50.188 50.188 0 0 1-1.606 7.058.643.643 0 1 1-1.232-.378 49.4 49.4 0 0 0 1.572-6.87 48.461 48.461 0 0 0 .53-7.041 47.2 47.2 0 0 0-60.5-45.305zm-5.554 1.88a17.42 17.42 0 1 1-24.626 0 17.473 17.473 0 0 1 24.626 0zm-.906.906A16.145 16.145 0 0 0 9.574 32.4 16.145 16.145 0 0 0 32.406 9.571zM60.9 72.411a.661.661 0 0 1 0-.906.629.629 0 0 1 .906 0l1.384 1.384a.629.629 0 0 1 0 .906.661.661 0 0 1-.906 0zm-3.4 6.169a.629.629 0 0 1 0 .906.661.661 0 0 1-.906 0l-1.213-1.23a.629.629 0 0 1 0-.906.661.661 0 0 1 .906 0zm-5.15-14.714a.64.64 0 1 1 .906-.906l5.093 5.093a.629.629 0 0 1 0 .906.661.661 0 0 1-.906 0zm.308 9.878a.629.629 0 0 1 0 .906.64.64 0 0 1-.889 0l-4.99-4.99a.63.63 0 0 1 0-.906.64.64 0 0 1 .889 0l4.99 4.99zM43.4 31.771a.629.629 0 0 1 0 .906.661.661 0 0 1-.906 0l-1.384-1.384a.661.661 0 0 1 0-.906.645.645 0 0 1 .906 0zm16.748 7.161a.629.629 0 0 1 0-.906.661.661 0 0 1 .906 0l7.195 7.212 6.169-6.152a.629.629 0 0 1 .906 0 .6.6 0 0 1 .171.41l1.4 20.286a.648.648 0 0 1-.6.684L56.23 58.739a.623.623 0 0 1-.581-.684.587.587 0 0 1 .222-.427l5.776-5.811-6.99-7.007a.629.629 0 0 1 0-.906.64.64 0 0 1 .889 0L63 51.356a.63.63 0 0 1 0 .906l-5.3 5.332 17.859 1.538-1.248-18.149-5.605 5.605a.629.629 0 0 1-.906 0l-7.656-7.656zM46.8 25.6a.64.64 0 0 1 .9-.9l1.23 1.23a.64.64 0 0 1-.906.906L46.8 25.6zm5.14 14.716a.629.629 0 0 1 0 .906.661.661 0 0 1-.906 0l-5.093-5.093a.661.661 0 0 1 0-.906.629.629 0 0 1 .906 0zm-.308-9.878a.661.661 0 0 1 0-.906.629.629 0 0 1 .906 0l4.99 4.99a.64.64 0 0 1-.906.906zm-30.112.649a.641.641 0 1 1-1.282 0v-2a4.49 4.49 0 0 1-2.29-1.23 4.405 4.405 0 0 1-1.282-3.11.641.641 0 0 1 1.282 0 3.13 3.13 0 0 0 5.352 2.222 3.146 3.146 0 0 0 0-4.426c-1.641-1.658-3.452-.137-5.5-2.222a4.39 4.39 0 0 1 2.5-7.468V10.87a.641.641 0 0 1 1.282 0l-.017 1.982a4.36 4.36 0 0 1 2.467 1.248 4.266 4.266 0 0 1 1.282 3.11.635.635 0 0 1-.632.649.646.646 0 0 1-.632-.649 3.136 3.136 0 1 0-5.366 2.2c1.658 1.675 3.452.154 5.52 2.222a4.42 4.42 0 0 1-.017 6.238 4.31 4.31 0 0 1-2.666 1.265v1.948z" class="cls-3" transform="translate(-3.61 -3.59)"/>
            </g>
        </g>
        <g id="noun_Planning_2277991" transform="translate(716.87 3373.297)">
            <g id="그룹_1073">
                <path id="패스_1073" d="M22.57 36.235h6.03a5.933 5.933 0 0 1 10.1-3.555 5.973 5.973 0 0 1 1.709 3.555h12.683a.642.642 0 0 1 .632.632 4.657 4.657 0 1 0 9.314 0 .631.631 0 0 1 .632-.632h6.648a.631.631 0 0 1 .632.632V42.9A5.933 5.933 0 0 1 74.506 53a5.877 5.877 0 0 1-3.555 1.709V67.39a.635.635 0 0 1-.632.649 4.648 4.648 0 0 0 0 9.3.631.631 0 0 1 .632.632v6.648a.635.635 0 0 1-.632.649h-6.033a5.94 5.94 0 0 1-11.809 0h-6.032a.649.649 0 0 1-.649-.649v-6.651a.646.646 0 0 1 .649-.632 4.648 4.648 0 1 0 0-9.3.649.649 0 0 1-.649-.649v-6h-5.384a6.069 6.069 0 0 1-1.712 3.559 5.986 5.986 0 0 1-4.2 1.726 5.9 5.9 0 0 1-4.187-1.726 5.97 5.97 0 0 1-1.713-3.555h-6.03a.649.649 0 0 1-.649-.649v-6.648a.646.646 0 0 1 .649-.632 4.648 4.648 0 0 0 0-9.3.649.649 0 0 1-.649-.649v-6.646a.646.646 0 0 1 .649-.632zM10.744 58.93a.638.638 0 0 1 1.2-.444l.53 1.436 1.436-.53a.635.635 0 0 1 .82.393.646.646 0 0 1-.376.82l-1.436.513.53 1.453a.643.643 0 0 1-1.217.429l-.513-1.436-1.436.53a.64.64 0 0 1-.82-.376.626.626 0 0 1 .376-.82l1.436-.53-.53-1.436zm71.008 9.946a.635.635 0 0 1 .615-.667.646.646 0 0 1 .666.615l.051 1.538 1.521-.068a.661.661 0 0 1 .667.632.63.63 0 0 1-.615.649l-1.521.051.051 1.538a.641.641 0 0 1-1.282.051l-.051-1.538-1.538.051a.633.633 0 0 1-.034-1.265L81.8 70.4l-.051-1.521zm8.562-21.79a.646.646 0 0 1 .376-.82.64.64 0 0 1 .82.376l.53 1.453 1.436-.53a.64.64 0 0 1 .82.376.619.619 0 0 1-.376.82l-1.436.53.53 1.436a.646.646 0 0 1-.376.82.64.64 0 0 1-.82-.376l-.53-1.453-1.436.53a.64.64 0 0 1-.82-.376.646.646 0 0 1 .376-.82l1.436-.53zm-58-27.139a.642.642 0 0 1 .974.837l-1.008 1.162 1.162.991a.642.642 0 0 1-.837.974L31.44 22.9l-.991 1.162a.646.646 0 0 1-.906.051.626.626 0 0 1-.068-.889l1.008-1.162-1.162-.991a.664.664 0 0 1-.068-.906.648.648 0 0 1 .906-.068l1.161 1.013zm16.95-2.767a.642.642 0 0 1 .222 1.265l-1.521.256.256 1.5a.632.632 0 1 1-1.248.205l-.256-1.5-1.521.256a.648.648 0 0 1-.735-.53.661.661 0 0 1 .53-.735l1.5-.256-.256-1.5a.651.651 0 0 1 .53-.735.639.639 0 0 1 .735.53l.256 1.5zm45 15.21a.638.638 0 0 1 1.145-.564 48.49 48.49 0 0 1-62.243 66.479.64.64 0 1 1 .5-1.179 47.215 47.215 0 0 0 60.6-64.736zM10.59 76.123a.638.638 0 0 1-1.128.6A48.487 48.487 0 0 1 63.4 6.516a.642.642 0 0 1 .479.769.656.656 0 0 1-.769.479 47.2 47.2 0 0 0-52.52 68.359zm64.36-54.158a.633.633 0 0 1-.837-.325.648.648 0 0 1 .325-.837l.5-.222a2.257 2.257 0 0 1 .154-.957 2.083 2.083 0 0 1 1.179-1.2.619.619 0 0 1 .837.325.641.641 0 0 1-.342.837.964.964 0 0 0-.479.5.906.906 0 0 0 0 .7.909.909 0 0 0 1.675.017v-.034c.273-.684-.53-1.23-.051-2.444a2.191 2.191 0 0 1 2.854-1.213 2.327 2.327 0 0 1 .854.615l.479-.188a.633.633 0 0 1 .837.325.641.641 0 0 1-.342.837l-.479.205a2.172 2.172 0 0 1-1.314 2.256l-.239.051a.649.649 0 0 1-.649-.649.626.626 0 0 1 .444-.6.926.926 0 0 0-.068-1.675 1.041 1.041 0 0 0-.684 0 .965.965 0 0 0-.5.513c-.273.667.53 1.333.034 2.478a2.188 2.188 0 0 1-3.743.5l-.444.188zm9.126-18.628l2.632 5.435a5.932 5.932 0 0 1 5.144 10.613l2.632 5.435a.644.644 0 0 1-.291.854l-5.981 2.905a.644.644 0 0 1-.854-.291 4.651 4.651 0 1 0-8.374 4.05.636.636 0 0 1-.308.854L72.712 36.1a.636.636 0 0 1-.854-.308l-2.632-5.435a5.935 5.935 0 0 1-5.161-10.613l-2.632-5.435a.641.641 0 0 1 .308-.854l5.981-2.888a.625.625 0 0 1 .837.291 4.659 4.659 0 0 0 8.391-4.05.63.63 0 0 1 .291-.854l5.981-2.905a.649.649 0 0 1 .854.291zm1.743 6.545l-2.619-5.4-4.866 2.341a5.935 5.935 0 0 1-10.613 5.161l-4.854 2.341 2.615 5.417a.649.649 0 0 1-.291.854 4.651 4.651 0 0 0 4.05 8.374.63.63 0 0 1 .854.291l2.632 5.4 4.855-2.361a5.931 5.931 0 0 1 10.613-5.14l4.853-2.36-2.581-5.349a.563.563 0 0 1-.1-.325.626.626 0 0 1 .427-.6 4.659 4.659 0 0 0-4.119-8.357.644.644 0 0 1-.854-.291zM35.9 49.8a1.176 1.176 0 0 1 1.675-.171 1.192 1.192 0 0 1 .171 1.675A1.19 1.19 0 1 1 35.9 49.8zm-3.691 2.871a.645.645 0 0 1-1.008-.8l5.605-6.921a.649.649 0 0 1 .906-.1.627.627 0 0 1 .085.889zm-.735-6.563a1.19 1.19 0 1 1 1.846 1.5 1.19 1.19 0 0 1-1.846-1.5zM60.68 50.2a.661.661 0 0 1 0 .906.629.629 0 0 1-.906 0l-1.4-1.384-1.385 1.378a.64.64 0 0 1-.906-.906l1.384-1.384-1.384-1.4a.629.629 0 0 1 0-.906.661.661 0 0 1 .906 0l1.384 1.4 1.4-1.4a.64.64 0 0 1 .906.906l-1.4 1.4zm.308 21.841a.641.641 0 1 1 0 1.282h-5.212a.641.641 0 1 1 0-1.282zM28.517 83.3a.634.634 0 1 1 .547 1.145l-1.794.837.837 1.794a.622.622 0 0 1-.308.837.636.636 0 0 1-.854-.308l-.82-1.777-1.794.837a.642.642 0 0 1-.547-1.162l1.794-.837-.837-1.777a.642.642 0 1 1 1.162-.547l.837 1.794zm4.221-14.783l2.8 5.349a5.932 5.932 0 0 1 5.486 10.442l2.8 5.349a.668.668 0 0 1-.273.872l-5.879 3.076a.638.638 0 0 1-.872-.273 4.552 4.552 0 0 0-2.751-2.273 4.644 4.644 0 0 0-5.486 6.6.644.644 0 0 1-.342.906l-5.805 3.035a.622.622 0 0 1-.854-.256L18.742 96a5.936 5.936 0 0 1-7.827-7.3 5.875 5.875 0 0 1 2.358-3.145l-2.8-5.366a.628.628 0 0 1 .273-.854l5.879-3.076c.393-.205.667 0 .889.308a4.641 4.641 0 0 0 8.528-.82 4.706 4.706 0 0 0-.308-3.555.614.614 0 0 1 .273-.854l5.879-3.093a.643.643 0 0 1 .854.273zm1.962 6.478l-2.8-5.315-4.785 2.512a5.876 5.876 0 0 1 .154 3.931 5.937 5.937 0 0 1-10.6 1.538l-4.785 2.512 2.769 5.281a.625.625 0 0 1-.239.906 4.575 4.575 0 0 0-2.29 2.734 4.655 4.655 0 0 0 6.545 5.537.64.64 0 0 1 .923.239l2.786 5.315 4.785-2.512a5.876 5.876 0 0 1-.137-3.931A5.906 5.906 0 0 1 37.609 92.2l4.8-2.512-2.8-5.332a.648.648 0 0 1 .273-.854 4.6 4.6 0 0 0 2.273-2.734 4.644 4.644 0 0 0-6.6-5.5.643.643 0 0 1-.854-.273zm34.966-13.6h-6a.635.635 0 0 1-.632-.649 4.657 4.657 0 0 0-9.314 0 .646.646 0 0 1-.632.649h-6v5.4a5.932 5.932 0 0 1 0 11.792v5.4h6a.631.631 0 0 1 .632.632 4.657 4.657 0 1 0 9.314 0 .62.62 0 0 1 .632-.632h6v-5.4a5.932 5.932 0 0 1 0-11.792v-5.4zM47.094 37.517v6a.649.649 0 0 1-.649.649 4.648 4.648 0 0 0 0 9.3.646.646 0 0 1 .649.632v6.016h5.383a5.939 5.939 0 0 1 11.809 0h5.384v-6.02a.646.646 0 0 1 .649-.632 4.648 4.648 0 1 0 0-9.3.649.649 0 0 1-.649-.649v-6h-5.384a5.94 5.94 0 0 1-11.809 0h-5.383zm-17.876 0h-6V42.9a5.941 5.941 0 0 1 0 11.809v5.4h6a.642.642 0 0 1 .632.632 4.657 4.657 0 1 0 9.314 0 .631.631 0 0 1 .632-.632h6v-5.4a5.935 5.935 0 0 1-.051-11.792l.055-.017v-5.383h-6a.635.635 0 0 1-.632-.649 4.657 4.657 0 0 0-9.314 0 .646.646 0 0 1-.636.649z" class="cls-3" transform="translate(-3.624 -2.983)"/>
            </g>
        </g>
        <g id="noun_Bank_2277988" transform="translate(643.541 3497.043)">
            <g id="그룹_1072">
                <path id="패스_1072" d="M56.679 29.921a6.238 6.238 0 0 1-4.084 10.63l-.017 3.2a.631.631 0 0 1-.632.632.62.62 0 0 1-.632-.632V40.5A6.251 6.251 0 0 1 46 34.313a.641.641 0 1 1 1.282 0 4.969 4.969 0 1 0 8.494-3.5c-2.6-2.6-5.212-.291-8.2-3.3a6.254 6.254 0 0 1 3.794-10.63l.017-3.213a.632.632 0 1 1 1.265 0v3.213a6.244 6.244 0 0 1 5.588 6.238.642.642 0 0 1-.632.632.631.631 0 0 1-.632-.632 4.969 4.969 0 1 0-8.494 3.486c2.6 2.615 5.2.291 8.2 3.315zM33.916 12.267a.663.663 0 0 1 .872-.273.648.648 0 0 1 .273.854l-.718 1.367 1.367.7a.642.642 0 0 1-.581 1.145l-1.367-.718-.7 1.367a.643.643 0 0 1-.854.273.619.619 0 0 1-.273-.854l.7-1.367-1.367-.7a.643.643 0 0 1-.273-.854.633.633 0 0 1 .872-.273l1.35.7.7-1.367zM89.1 63.3a.642.642 0 0 1 .735-.53.661.661 0 0 1 .53.735l-.256 1.521 1.5.256a.651.651 0 0 1 .53.735.661.661 0 0 1-.735.53l-1.521-.256-.256 1.5a.634.634 0 0 1-1.248-.222l.239-1.5-1.5-.256a.627.627 0 0 1-.513-.735.642.642 0 0 1 .735-.53l1.5.256.256-1.5zm-7.845-40.625a.634.634 0 0 1 1.248-.222l.273 1.5 1.5-.256a.653.653 0 0 1 .752.513.639.639 0 0 1-.53.735l-1.5.273.273 1.5a.634.634 0 1 1-1.248.222l-.273-1.5-1.5.273a.635.635 0 1 1-.239-1.248l1.521-.273-.273-1.521zM14.468 59.76a.634.634 0 1 1 1.128.581l-.7 1.367 1.367.7a.638.638 0 1 1-.6 1.128l-1.35-.7-.7 1.35a.642.642 0 0 1-1.145-.581l.718-1.367-1.367-.7a.634.634 0 0 1 .581-1.128l1.367.7zm3.179-32.488a.66.66 0 0 1 .718-.547.647.647 0 0 1 .547.718l-.205 1.521 1.521.205a.637.637 0 0 1 .547.718.65.65 0 0 1-.718.547l-1.521-.205-.206 1.521a.633.633 0 0 1-.7.547.66.66 0 0 1-.564-.718l.205-1.521-1.5-.205a.634.634 0 0 1-.564-.7.66.66 0 0 1 .718-.564l1.521.205zM12.5 77.79a.642.642 0 1 1-1.077.7A48.509 48.509 0 0 1 52.116 3.62a48.5 48.5 0 0 1 40.777 74.734.633.633 0 0 1-.872.188.623.623 0 0 1-.205-.872 47.226 47.226 0 1 0-79.314.12zM34 55.009h36.249v-2.273a3.142 3.142 0 0 1-1.418-.786 2.91 2.91 0 0 1-.854-2.051v-1.623h-31.72V49.9a2.91 2.91 0 0 1-.857 2.05 3.084 3.084 0 0 1-1.4.786v2.273zm36.247 1.282h-8.919a3.363 3.363 0 0 1 .7 2.034v26.113h5.947v-1.624a2.91 2.91 0 0 1 .854-2.051 2.961 2.961 0 0 1 1.418-.769v-23.7zm-27.344 0H34v23.7a2.893 2.893 0 0 1 2.256 2.82v1.624H42.2v-26.11a3.363 3.363 0 0 1 .7-2.034zm8.579 28.147V61.452a.635.635 0 0 1 .632-.649.649.649 0 0 1 .649.649v22.986h7.981V58.325a2.044 2.044 0 0 0-1.982-2.034h-13.3a2.044 2.044 0 0 0-1.982 2.034v26.113zM64.421 34.45a.641.641 0 1 1 0-1.282h14.7L58.969 13.037a9.7 9.7 0 0 0-13.706 0L18.125 40.158h24.9a.641.641 0 1 1 0 1.282H16.843l-5.537 5.554h81.621L80.4 34.45H64.421zm30.505 12.732a.629.629 0 0 1 0 .906.651.651 0 0 1-.444.188h-9.228V49.9a2.91 2.91 0 0 1-.854 2.05 3 3 0 0 1-1.4.786v27.259a2.832 2.832 0 0 1 1.4.769 2.91 2.91 0 0 1 .854 2.051v1.624h4.7a.649.649 0 0 1 .649.649v6.8h6.716a.646.646 0 0 1 .649.632v7.451a.649.649 0 0 1-.649.649H6.914a.635.635 0 0 1-.632-.649v-7.45a.631.631 0 0 1 .632-.632h6.716v-6.8a.649.649 0 0 1 .649-.649h4.7v-1.626a2.893 2.893 0 0 1 2.256-2.82V52.736a3.084 3.084 0 0 1-1.4-.786 2.91 2.91 0 0 1-.854-2.051v-1.623h-9.23a.646.646 0 0 1-.632-.649.636.636 0 0 1 .222-.479l35.017-35.017a10.975 10.975 0 0 1 15.518 0c11.809 11.792 23.31 23.311 35.051 35.051zm-5.605 38.555H14.912v6.152h74.409zM7.563 99.323h89.124v-6.152H7.563zM75.974 54.77a.641.641 0 0 1 1.282 0v22.559a.641.641 0 0 1-1.282 0zm5.742-1.97H71.53v27.1h10.186zm2.256-4.529h-14.7l-.015 1.629a1.634 1.634 0 0 0 1.624 1.624h11.467a1.634 1.634 0 0 0 1.624-1.624zM69.257 84.438h14.715v-1.624a1.6 1.6 0 0 0-1.624-1.606H70.881a1.6 1.6 0 0 0-1.624 1.606v1.624zM26.977 54.77a.641.641 0 0 1 1.282 0v22.559a.641.641 0 0 1-1.282 0zM32.7 52.8H22.534v27.1H32.7V52.8zm2.273-4.529h-14.7l-.012 1.629a1.634 1.634 0 0 0 1.624 1.624h11.467a1.634 1.634 0 0 0 1.623-1.624zM20.261 84.438h14.714v-1.624a1.6 1.6 0 0 0-1.624-1.606H21.885a1.6 1.6 0 0 0-1.624 1.606v1.624z" class="cls-3" transform="translate(-3.626 -3.62)"/>
            </g>
        </g>
        <g id="noun_financial_report_2278000" transform="translate(716.87 3626.628)">
            <g id="그룹_1070">
                <path id="패스_1070" d="M56.079 38.053H65.6a.635.635 0 0 1 .649.632 10.791 10.791 0 1 1-10.8-10.8.646.646 0 0 1 .632.649zm-35.735-3.384a.656.656 0 0 1-.684-.581.637.637 0 0 1 .581-.7l1.521-.137-.137-1.521a.645.645 0 0 1 .581-.684.637.637 0 0 1 .7.581l.12 1.521 1.538-.137a.634.634 0 1 1 .1 1.265l-1.521.137.137 1.521a.649.649 0 0 1-.581.7.633.633 0 0 1-.684-.581l-.137-1.521zm-7.52 11.5a.63.63 0 0 1-.479-.752.668.668 0 0 1 .769-.5l1.487.342.342-1.487a.639.639 0 1 1 1.248.273l-.342 1.5 1.487.325a.642.642 0 0 1 .479.769.617.617 0 0 1-.752.479l-1.487-.342-.342 1.5A.64.64 0 1 1 13.986 48l.342-1.487-1.5-.342zm59.507 3.76l-1.5 4.084a.646.646 0 0 1-.82.376.64.64 0 0 1-.376-.82l.94-2.581-27.861 13.229a.642.642 0 1 1-.547-1.162l27.6-13.091-2.751-.547a.645.645 0 1 1 .256-1.265l4.546.906a.646.646 0 0 1 .513.872zM67.17 74.112h2.8V57.774h-2.8zm3.43 1.282h-4.08a.646.646 0 0 1-.632-.649v-17.6a.646.646 0 0 1 .632-.649h4.08a.649.649 0 0 1 .649.649v17.6a.649.649 0 0 1-.649.649zm-11.189-1.282h2.8V61.62h-2.8zm3.435 1.282h-4.084a.635.635 0 0 1-.632-.649V60.987a.635.635 0 0 1 .632-.649h4.084a.649.649 0 0 1 .649.649v13.758a.649.649 0 0 1-.649.649zm-11.211-1.282h2.82V64.8h-2.82zm3.452 1.282H51a.649.649 0 0 1-.649-.649v-10.6a.646.646 0 0 1 .649-.628h4.084a.646.646 0 0 1 .649.632v10.6a.649.649 0 0 1-.646.645zm-11.211-1.282h2.8v-5.486h-2.8zm3.452 1.282h-4.084a.649.649 0 0 1-.649-.649v-6.75a.649.649 0 0 1 .649-.649h4.084a.649.649 0 0 1 .649.649v6.75a.649.649 0 0 1-.648.649zM89.489 23.27a.635.635 0 0 1 .12-.906.647.647 0 0 1 .889.12 48.487 48.487 0 0 1 6.016 49.133.619.619 0 0 1-.837.325.641.641 0 0 1-.342-.837 47.016 47.016 0 0 0 2.991-9.28 47.189 47.189 0 0 0-8.837-38.555zM75.612 93.065a.639.639 0 1 1 .632 1.111 48.442 48.442 0 0 1-47.612.376.647.647 0 0 1 .632-1.128 47.245 47.245 0 0 0 46.348-.359zM6.587 64.593a.639.639 0 0 1-.461.769.616.616 0 0 1-.769-.444 47.4 47.4 0 0 1-1.3-6.34 48.488 48.488 0 0 1 71.3-49.014.638.638 0 0 1-.6 1.128A47.21 47.21 0 0 0 4.912 52.118a46.489 46.489 0 0 0 1.675 12.475zm7.178-6.853h19.4a.646.646 0 0 1 .632.649v8.716a.646.646 0 0 1-.632.649h-19.4a.635.635 0 0 1-.632-.649V58.39a.635.635 0 0 1 .632-.649zm18.748 1.282h-18.1v7.451h18.1zm-20.1-3.794h16.869V18.946a4.515 4.515 0 0 1 4.512-4.495H51.6a2.743 2.743 0 0 1-.359-1.35 2.637 2.637 0 0 1 .769-1.863 2.669 2.669 0 0 1 1.846-.769h5.691A2.626 2.626 0 0 1 62.18 13.1a2.585 2.585 0 0 1-.376 1.35h18.662a4.522 4.522 0 0 1 4.495 4.495v67.438a4.511 4.511 0 0 1-4.495 4.495c-22.7 0-45.373-.12-68.052-.12a2.043 2.043 0 0 1-2.014-2.017v-31.5a1.985 1.985 0 0 1 2.017-2.017zM29.9 56.51H12.414a.7.7 0 0 0-.735.735v31.5a.737.737 0 0 0 .205.513.75.75 0 0 0 .53.222h22.1a.75.75 0 0 0 .53-.222.737.737 0 0 0 .205-.513v-31.5a.7.7 0 0 0-.735-.735H29.9zm60.8 32.966v1.213a.649.649 0 0 1-1.3 0v-1.247l-1.726-8.083.38-42.059a.55.55 0 0 1 .1-.393l.6-.837.017-3.589a.635.635 0 0 1 .649-.632h1.812a.646.646 0 0 1 .632.649l-.017 3.589.581.837a.582.582 0 0 1 .12.376v.854h.273a.635.635 0 0 1 .632.649.642.642 0 0 1-.632.632h-.273v.5l.256.017a.633.633 0 1 1 0 1.265h-.256v.5l1.641 4.067a.73.73 0 0 1 .017.427L92.6 54l1.128 2.29a.657.657 0 0 1-.308.854.641.641 0 0 1-.854-.308l-.017-.017q.026 12.33.017 24.695zm-.9-12.715a.642.642 0 0 1 .632.632.631.631 0 0 1-.632.632h-.872l-.034 3.247 1.179 5.264L91.3 81.29v-1.06h-.872a.641.641 0 0 1 0-1.282h.872q0-19.713-.034-39.46l-.325-.479H89.66l-.342.479-.393 37.256zm2.751-27.378l.376-1.333-.376-.923zm-1.985-11.655l.017-2.6h-.53l-.017 2.6zm-11.3 40.3l-7.314-.034-.034 7.3zm-7.943-1.318l8.853.034V19.066H67.495a4.013 4.013 0 0 1-1.111 2.188 3.9 3.9 0 0 1-2.8 1.179H49.875a3.927 3.927 0 0 1-2.8-1.179 4.191 4.191 0 0 1-.974-1.606 3.576 3.576 0 0 1-.137-.581H34.067v36.161h.444a2.013 2.013 0 0 1 2.017 2.017v28.95h34.111l.051-8.853a.642.642 0 0 1 .632-.632zm8.853 2.222l-7.349 7.263h7.349zM33.435 17.767h12.526a4.025 4.025 0 0 1 1.008-2.034H33.794a3.209 3.209 0 0 0-3.213 3.213v36.282h2.2V18.416a.649.649 0 0 1 .649-.649zm13.757.6a2.739 2.739 0 0 0 .786 1.948 2.7 2.7 0 0 0 1.9.786h13.703a2.7 2.7 0 0 0 1.9-.786 2.813 2.813 0 0 0 .7-1.2v-.068l.017-.017v-.017l.017-.051v-.034l.017-.068v-.068l.017-.034v-.136l.017-.034V18.384a2.694 2.694 0 0 0-.786-1.863 2.649 2.649 0 0 0-1.9-.786H49.807a2.675 2.675 0 0 0-2.615 2.632zm20.3-.6h13.316a.649.649 0 0 1 .649.649v68.411a.649.649 0 0 1-.649.649h-44.28v1.469l-.017.017v.119l-.017.017v.051l-.017.017V89.217l-.017.017V89.285l-.017.017v.034l-.017.017v.051h-.017v.034l-.017.017v.017l-.017.017v.034l-.017.017v.017l-.017.017v.026h44.125a3.22 3.22 0 0 0 3.213-3.213V18.946a3.22 3.22 0 0 0-3.213-3.213h-13.98a4.025 4.025 0 0 1 1.008 2.034zm-7.947-6.016h-5.688a1.354 1.354 0 0 0-.94 2.307 1.384 1.384 0 0 0 .906.393h5.759a1.467 1.467 0 0 0 .923-.393 1.35 1.35 0 0 0-.957-2.307zM30.376 82.879a.641.641 0 0 1 0 1.282h-4.751a.641.641 0 0 1 0-1.282zm0-2.324a.641.641 0 0 1 0 1.282h-4.751a.641.641 0 0 1 0-1.282zm-9.331 3.059a.63.63 0 0 1 0 .906.661.661 0 0 1-.906 0l-1.213-1.23-1.23 1.23a.64.64 0 1 1-.906-.906l1.23-1.23-1.23-1.213a.661.661 0 0 1 0-.906.629.629 0 0 1 .906 0l1.23 1.213 1.213-1.213a.64.64 0 0 1 .906.906l-1.213 1.213zm9.331-10.168a.641.641 0 0 1 0 1.282h-4.751a.641.641 0 0 1 0-1.282zm-9.075 0a.641.641 0 0 1 0 1.282h-1.743v1.726a.641.641 0 1 1-1.282 0v-1.726H16.55a.641.641 0 1 1 0-1.282h1.726V71.72a.641.641 0 1 1 1.282 0v1.726zm36.863-37.837V25.44a.642.642 0 0 1 .632-.632 10.794 10.794 0 0 1 10.8 10.8.642.642 0 0 1-.632.632H58.8a.642.642 0 0 1-.632-.632zm1.282-9.5v8.853H68.3a9.529 9.529 0 0 0-8.853-8.853zm5.486 13.228h-9.486a.649.649 0 0 1-.649-.649V29.2a9.522 9.522 0 1 0 10.134 10.134z" class="cls-3" transform="translate(-3.63 -3.625)"/>
            </g>
        </g>
        <g id="noun_Idea_2278011" transform="translate(643.499 3751.402)">
            <g id="그룹_1075">
                <path id="패스_1075" d="M30.742 28.691a3.187 3.187 0 0 1 .957 2.29 3.279 3.279 0 0 1-2.734 3.2l-.017 1.162a.635.635 0 0 1-.632.649.646.646 0 0 1-.632-.649v-1.218a3.39 3.39 0 0 1-1.521-.872 3.213 3.213 0 0 1-.94-2.29.641.641 0 0 1 1.282 0 1.957 1.957 0 1 0 3.914.017 2.026 2.026 0 0 0-.564-1.384c-1.06-1.06-2.341-.051-3.811-1.538a3.232 3.232 0 0 1 1.675-5.452v-1.2a.632.632 0 0 1 1.265 0v1.2a3.344 3.344 0 0 1 1.658.889 3.243 3.243 0 0 1 .94 2.29.641.641 0 0 1-1.282 0 1.994 1.994 0 0 0-.564-1.384 1.958 1.958 0 0 0-3.35 1.367 2.036 2.036 0 0 0 .564 1.4c1.077 1.06 2.324.051 3.794 1.521zm58.976 13.791a.648.648 0 0 1 .854-.273.633.633 0 0 1 .273.872l-.7 1.35 1.367.7a.646.646 0 1 1-.6 1.145l-1.35-.718-.7 1.367a.663.663 0 0 1-.872.273.648.648 0 0 1-.273-.854l.7-1.367-1.35-.7a.628.628 0 0 1-.273-.854.614.614 0 0 1 .854-.273l1.367.7.7-1.367zM26.64 68.425a.627.627 0 0 1 .735-.513.642.642 0 0 1 .53.735l-.256 1.5 1.5.256a.641.641 0 1 1-.205 1.265l-1.521-.256-.256 1.5a.632.632 0 0 1-1.248-.205l.256-1.521-1.5-.256a.632.632 0 1 1 .205-1.248l1.5.256.256-1.521zM13.823 51.1a.663.663 0 0 1 .872-.273.648.648 0 0 1 .273.854l-.718 1.367 1.367.7a.663.663 0 0 1 .273.872.648.648 0 0 1-.854.273l-1.367-.718-.7 1.367a.646.646 0 1 1-1.145-.6l.718-1.35-1.367-.7a.648.648 0 0 1-.273-.854.614.614 0 0 1 .854-.273l1.367.7zM35.407 7.961a.624.624 0 0 1-.82-.359.666.666 0 0 1 .376-.837 48.5 48.5 0 0 1 59.267 69.4.639.639 0 1 1-1.111-.632A47.231 47.231 0 0 0 35.407 7.961zm-5.093 86.03a.646.646 0 1 1-.6 1.145A48.448 48.448 0 0 1 4.85 41.3a47.936 47.936 0 0 1 3.606-10.268.638.638 0 1 1 1.144.568A47.2 47.2 0 0 0 30.313 94zm4.033-77.383a.617.617 0 0 1-.837.308.636.636 0 0 1-.308-.854l1.589-3.384a.642.642 0 0 1 1.162.547zm4.119 3.486a.63.63 0 0 1-.906-.068.663.663 0 0 1 .068-.906l2.854-2.41a.663.663 0 0 1 .906.068.647.647 0 0 1-.085.906zm-22.131 3.47a.67.67 0 0 1 .427.8.655.655 0 0 1-.8.427l-3.572-1.077a.641.641 0 0 1 .359-1.23l3.589 1.077zm24.421 1.418a.647.647 0 0 1-.786-.444.626.626 0 0 1 .444-.786L44 22.726a.629.629 0 0 1 .786.427.655.655 0 0 1-.427.8zm-21.584-6a.648.648 0 0 1 .068.906.664.664 0 0 1-.906.068L15.515 17.5a.648.648 0 0 1 .854-.974l2.8 2.461zm4.495-2.991a.646.646 0 1 1-1.179.53l-1.538-3.4a.639.639 0 1 1 1.162-.53zm5.315-.872a.641.641 0 0 1-1.282 0v-3.74a.641.641 0 0 1 1.282 0zm-3.76 32.9h6.238a1.167 1.167 0 0 1 1.179 1.162v1.949a1.2 1.2 0 0 1-.342.837 1.235 1.235 0 0 1-.837.342h-6.238a1.162 1.162 0 0 1-.82-.342 1.148 1.148 0 0 1-.359-.837v-1.948a1.167 1.167 0 0 1 1.179-1.162zm6.135 1.281h-6.033v1.726h6.033zm-7.229-6.375h8.425a1.194 1.194 0 0 1 .82.342 1.162 1.162 0 0 1 .342.82v1.948a1.235 1.235 0 0 1-.342.837 1.194 1.194 0 0 1-.82.342h-8.425a1.167 1.167 0 0 1-1.162-1.179v-1.946a1.162 1.162 0 0 1 .342-.82 1.194 1.194 0 0 1 .82-.342zm8.306 1.282h-8.187v1.726h8.186zm-4.1-27.053a10.7 10.7 0 0 1 10.012 14.51c-.957 2.546-2.837 3.931-3.845 6.58a14.93 14.93 0 0 0-.786 3.35.641.641 0 0 1-.632.547l-9.485.017a.639.639 0 0 1-.632-.615 14.147 14.147 0 0 0-.786-3.281c-.991-2.649-2.888-4.05-3.845-6.58a10.715 10.715 0 0 1 10-14.526zM35 21.188A9.429 9.429 0 0 0 19.531 31.22c.906 2.393 2.82 3.828 3.845 6.6a15.461 15.461 0 0 1 .786 3.059h8.357A15.936 15.936 0 0 1 33.3 37.8c1.042-2.751 2.957-4.221 3.845-6.58A9.459 9.459 0 0 0 35 21.188zm38.056 35.906a15.19 15.19 0 0 1-5.178 3.743l-5.2 6.357 3.281 5.264a.7.7 0 0 1 .12.376v27.139a.649.649 0 0 1-.649.649h-7.242a.649.649 0 0 1-.649-.649V72.834a.636.636 0 0 1 .12-.342l3.452-5.349-5.349-6.306a15.093 15.093 0 0 1-5.2-3.743h-4.611c-4.563 0-9.946 2.769-10.186 7.827l-1.572 34.4H48.72V76.542a.641.641 0 0 1 1.282 0v23.43a.649.649 0 0 1-.649.649H33.527a.644.644 0 0 1-.632-.752l1.589-35c.273-5.776 6.2-9.058 11.467-9.058h4.888a.608.608 0 0 1 .513.256 13.933 13.933 0 0 0 10.459 4.753 13.838 13.838 0 0 0 10.442-4.751.69.69 0 0 1 .53-.256h4.887c5.212 0 11.194 3.247 11.45 9.058l1.606 34.88c0 .444-.171.872-.6.872h-15.84a.646.646 0 0 1-.632-.649V76.542a.641.641 0 0 1 1.282 0v22.781h14.492l-1.572-34.4c-.239-5.093-5.691-7.827-10.186-7.827h-4.614zm-7.485 4.529a15.11 15.11 0 0 1-3.76.479 15.632 15.632 0 0 1-3.711-.462l3.8 4.478 3.674-4.495zm-20.115-25.1a24.312 24.312 0 0 0 11.638-1.76c6.614-2.734 8.6-6.973 8.6-6.973a.649.649 0 0 1 1.2.1c0 .017 2.085 6.323 11.279 8.391A16.376 16.376 0 0 0 50.224 25.5a16.273 16.273 0 0 0-4.768 11.018zm32.71 1.06c-7.6-1.606-10.835-6.033-11.98-8.152a19.18 19.18 0 0 1-8.613 6.511A25.935 25.935 0 0 1 45.456 37.8a16.367 16.367 0 0 0 32.71-.222zM61.811 19.411a17.662 17.662 0 1 1-12.476 5.178 17.649 17.649 0 0 1 12.476-5.178zM58.82 99.323h5.98v-8.835l-2.119 2.957a.638.638 0 0 1-1.042-.735l3.161-4.427v-4.871l-2.119 2.957a.648.648 0 0 1-.889.137.633.633 0 0 1-.154-.889l3.162-4.409V76.32l-2.119 2.957a.636.636 0 0 1-.889.154.654.654 0 0 1-.154-.906l3.162-4.392V73l-2.939-4.683-3.042 4.7v26.3z" class="cls-3" transform="translate(-3.62 -3.62)"/>
            </g>
        </g>
        <g id="타원_326" class="cls-4" transform="translate(631 3546)">
            <circle cx="4" cy="4" r="4" class="cls-8"/>
            <circle cx="4" cy="4" r="3.5" class="cls-9"/>
        </g>
        <g id="타원_328" class="cls-4" transform="translate(702 3419)">
            <circle cx="4" cy="4" r="4" class="cls-8"/>
            <circle cx="4" cy="4" r="3.5" class="cls-9"/>
        </g>
        <g id="타원_324" class="cls-4" transform="translate(702 3676)">
            <circle cx="4" cy="4" r="4" class="cls-8"/>
            <circle cx="4" cy="4" r="3.5" class="cls-9"/>
        </g>
        <g id="그룹_1115" transform="translate(447.245 3296)">
            <g id="타원_312" class="cls-4" transform="translate(183.755)">
                <circle cx="4" cy="4" r="4" class="cls-8"/>
                <circle cx="4" cy="4" r="3.5" class="cls-9"/>
            </g>
            <g id="타원_317" class="cls-4" transform="translate(-.245 123)">
                <circle cx="4" cy="4" r="4" class="cls-8"/>
                <circle cx="4" cy="4" r="3.5" class="cls-9"/>
            </g>
            <path id="패스_1089" d="M-13551.871-7015.509l-104.1.4L-13735-6892.5" class="cls-5" transform="translate(13739.35 7019.371)"/>
        </g>
        <g id="그룹_1114" transform="translate(447.245 3675.619)">
            <g id="타원_321" class="cls-4" transform="translate(-.245 .381)">
                <circle cx="4" cy="4" r="4" class="cls-8"/>
                <circle cx="4" cy="4" r="3.5" class="cls-9"/>
            </g>
            <g id="타원_315" class="cls-4" transform="translate(183.755 121.381)">
                <circle cx="4" cy="4" r="4" class="cls-8"/>
                <circle cx="4" cy="4" r="3.5" class="cls-9"/>
            </g>
            <path id="패스_1089-2" d="M-13551.873-6893.978l-104.1-.395-79.027-121.135" class="cls-5" transform="translate(13739.35 7019.73)"/>
        </g>
        <g id="그룹_1116" transform="translate(.346 -62.654)">
            <g id="타원_322" fill="none" stroke="#a0a5ac" stroke-dasharray="40 10" stroke-width="7px" opacity="0.39" transform="translate(252.654 3457.654)">
                <circle cx="155" cy="155" r="155" class="cls-8"/>
                <circle cx="155" cy="155" r="151.5" class="cls-9"/>
            </g>
            <circle id="타원_329" cx="112" cy="112" r="112" fill="#fff" transform="translate(295.654 3500.654)"/>
            <g id="noun_investment_2278004" transform="translate(317.836 3522.835)">
                <g id="그룹_1076">
                    <path id="패스_1076" d="M105.51 74.76a9.132 9.132 0 0 1-5.73 15.54v4.242a1.187 1.187 0 1 1-2.374 0l.032-4.369a8.976 8.976 0 0 1-4.875-2.532 9.144 9.144 0 0 1-2.663-6.454 1.187 1.187 0 0 1 2.374 0 6.772 6.772 0 0 0 1.963 4.78 6.668 6.668 0 0 0 4.78 1.994 6.76 6.76 0 0 0 4.812-11.523c-3.577-3.577-7.312-.348-11.618-4.685a9.111 9.111 0 0 1 5.289-15.48l.032-4.305a1.172 1.172 0 1 1 2.343 0v4.305a8.856 8.856 0 0 1 5.255 2.6 9.144 9.144 0 0 1 2.659 6.458 1.176 1.176 0 0 1-1.171 1.2 1.2 1.2 0 0 1-1.2-1.2 6.567 6.567 0 0 0-1.963-4.78 6.749 6.749 0 1 0-9.56 9.528c3.545 3.577 7.281.348 11.618 4.685zm-21.589 91.39a1.184 1.184 0 0 1 .95-1.361 1.209 1.209 0 0 1 1.393.95l.506 2.786 2.786-.506a1.189 1.189 0 0 1 .412 2.342l-2.786.507.506 2.786a1.2 1.2 0 0 1-.981 1.361 1.177 1.177 0 0 1-1.361-.95l-.506-2.786-2.786.507a1.189 1.189 0 0 1-.412-2.343l2.786-.507zm32.827-8.262a1.223 1.223 0 0 1 1.33-1.013 1.175 1.175 0 0 1 1.013 1.33l-.348 2.817 2.786.38a1.2 1.2 0 0 1 1.045 1.33 1.223 1.223 0 0 1-1.33 1.013l-2.817-.38-.38 2.817a1.223 1.223 0 0 1-1.33 1.013 1.2 1.2 0 0 1-1.013-1.33l.38-2.817-2.817-.38a1.164 1.164 0 0 1-1.013-1.33 1.2 1.2 0 0 1 1.33-1.013l2.817.38zm30.9-109.909a1.185 1.185 0 1 1 2.184.918l-1.108 2.627 2.6 1.108a1.185 1.185 0 0 1-.918 2.184l-2.627-1.108-1.108 2.6a1.187 1.187 0 0 1-1.551.633 1.173 1.173 0 0 1-.6-1.551l1.108-2.627-2.627-1.108a1.176 1.176 0 0 1 .95-2.153l2.6 1.108zM36.88 65.327a1.173 1.173 0 0 1 1.551-.6 1.187 1.187 0 0 1 .633 1.551l-1.108 2.6 2.6 1.108a1.185 1.185 0 1 1-.918 2.184l-2.6-1.108-1.108 2.6a1.185 1.185 0 1 1-2.184-.918l1.108-2.6-2.6-1.108a1.185 1.185 0 0 1 .918-2.184l2.6 1.108zm20.165-38.145a1.231 1.231 0 0 1 .981-1.393 1.2 1.2 0 0 1 1.361.95l.506 2.817 2.786-.506a1.161 1.161 0 0 1 1.361.95 1.139 1.139 0 0 1-.95 1.361l-2.786.506.506 2.786a1.192 1.192 0 1 1-2.343.443l-.475-2.817-2.786.506a1.177 1.177 0 1 1-.443-2.311l2.786-.506zM164.8 79.889l-17.759 22.729a1.162 1.162 0 0 1-1.646.19 1.2 1.2 0 0 1-.222-1.646L160.084 82.1c-7.724 4.147-13.517 10.035-19.69 16.334-1.868 1.9-3.8 3.862-5.825 5.825 5.6.57 10.668 3.577 10.541 9.75a10.729 10.729 0 0 1-10.763 10.32q-10.541-.237-21.083-.412a1.2 1.2 0 0 1-1.171-1.2 1.217 1.217 0 0 1 1.2-1.171l15.543.317.317-6.173a1.188 1.188 0 1 1 2.374.095l-.317 6.11 3.166.063a8.321 8.321 0 0 0 8.357-8.009c.127-7.249-8.294-7.5-13.58-7.5l-60.431-.095a4.215 4.215 0 0 0-4.242 4.242v29.44a4.277 4.277 0 0 0 4.242 4.21c17.506 0 35.075-.222 52.549.095 9.307.253 18.139-.063 23.868-8.515l34.477-50.746c1.14-1.646 2.026-4.242.76-6.046-1.741-2.532-6.426-1.836-8.927-1.235a48.131 48.131 0 0 0-6.649 2.09zm15.163 26.148a1.182 1.182 0 1 1 2.342.317 89.85 89.85 0 0 1-114.181 73.282 91.163 91.163 0 0 1-23.235-10.6 1.211 1.211 0 0 1-.348-1.646 1.146 1.146 0 0 1 1.614-.348 89.1 89.1 0 0 0 22.634 10.32 87.463 87.463 0 0 0 111.175-71.32zM6.142 87.929a1.2 1.2 0 0 1-1.266 1.108 1.221 1.221 0 0 1-1.108-1.266 89.816 89.816 0 0 1 173.758-25.8 1.171 1.171 0 0 1-.7 1.519 1.21 1.21 0 0 1-1.519-.7A87.441 87.441 0 0 0 6.142 87.929zm-1.361 9.244a1.187 1.187 0 0 1 0-2.374h41.438a1.169 1.169 0 0 1 1.171 1.171v3.356a4.969 4.969 0 0 1 2.627-.728h9.465a5.006 5.006 0 0 1 5 4.97v1.963a6.47 6.47 0 0 1 4.242-1.551H73a19.282 19.282 0 0 1-3.482-2.691 17.3 17.3 0 0 1-5.065-12.156V72.7a33.787 33.787 0 0 1 20.07-30.738 5.167 5.167 0 0 1-.633-.538 4.882 4.882 0 0 1 0-6.869 4.119 4.119 0 0 1 .728-.57l-1.773-4.21c-1.551-3.767-3.514-8.515-4.084-9.687a2.925 2.925 0 0 1-.285-1.235c0-2.311 2.754-3.925 4.78-3.925h28.332c6.616 0 7.534 4.59 5.476 10a43.254 43.254 0 0 1-5.255 9.212 4.831 4.831 0 0 1-.127 7.819 33.787 33.787 0 0 1 20.07 30.741v22.542a11.216 11.216 0 0 1-3.261 7.851 10.348 10.348 0 0 1-1.108.95l3.957.063c2.6-2.469 5-4.938 7.376-7.344 9.085-9.275 17.316-17.7 32.194-21.273 3.64-.886 8.959-1.33 11.428 2.184 1.836 2.659.95 6.236-.76 8.737l-34.473 50.744c-6.268 9.243-15.67 9.845-25.894 9.56-17.442-.285-35.011-.095-52.485-.095a6.5 6.5 0 0 1-4.242-1.583v2.343a5.012 5.012 0 0 1-5 5h-9.467a4.915 4.915 0 0 1-2.786-.855 13.521 13.521 0 0 1-13.3 11.269H4.781a1.187 1.187 0 0 1 0-2.374h29.155a11.092 11.092 0 0 0 11.08-11.08V97.173H4.781zm54.7 3.8h-9.464a2.631 2.631 0 0 0-1.868.76 2.729 2.729 0 0 0-.76 1.836v43.812a2.595 2.595 0 0 0 2.627 2.627h9.465a2.621 2.621 0 0 0 2.627-2.627v-43.814a2.614 2.614 0 0 0-2.626-2.596zm61.159 3.007a8.71 8.71 0 0 0 6.173-2.564 8.844 8.844 0 0 0 2.564-6.173V72.7a31.411 31.411 0 0 0-21.969-29.82h-3.482l4.558 4.558a1.194 1.194 0 0 1 0 1.678 1.225 1.225 0 0 1-1.678 0l-6.236-6.236h-5.73l-5.825 7.376a1.2 1.2 0 0 1-1.678.19 1.165 1.165 0 0 1-.19-1.646l4.685-5.92H88.8A31.33 31.33 0 0 0 66.858 72.7v16.432A14.861 14.861 0 0 0 81.7 103.979zm-11.775-68.473H87.339a2.512 2.512 0 0 0-1.773.728 2.562 2.562 0 0 0 0 3.545 2.487 2.487 0 0 0 1.773.7h21.526a2.485 2.485 0 1 0 0-4.97zm-7.819-13.77a1.187 1.187 0 1 1 2.374 0v11.4h6.2a39.928 39.928 0 0 0 5.223-9.054c1.425-3.767 1.551-6.774-3.261-6.774H83.256c-.823 0-2.6.76-2.374 1.741.6 1.235 2.6 6.046 4.147 9.845l1.771 4.238h5.476v-5.7a1.187 1.187 0 1 1 2.374 0v5.7h6.394z" class="cls-3" transform="translate(-3.61 -3.63)"/>
                </g>
            </g>
        </g>
        <g id="그룹_1147" transform="translate(515.626 3610)">
            <g id="타원_323" class="cls-4" transform="translate(.374)">
                <circle cx="4" cy="4" r="4" class="cls-8"/>
                <circle cx="4" cy="4" r="3.5" class="cls-9"/>
            </g>
            <path id="패스_1094" d="M-13553.222-6950.54l-103.336-.211-78.442-64.758" class="cls-5" transform="translate(13740.557 7020.754)"/>
        </g>
        <g id="그룹_1146" transform="translate(515.626 3422.887)">
            <g id="타원_327" class="cls-4" transform="translate(.374 61.113)">
                <circle cx="4" cy="4" r="4" class="cls-8"/>
                <circle cx="4" cy="4" r="3.5" class="cls-9"/>
            </g>
            <path id="패스_1097" d="M-13553.222-7015.509l-103.336.208-78.442 63.858" class="cls-5" transform="translate(13740.557 7015.509)"/>
        </g>
        <g id="그룹_1148" transform="translate(-5.437)">
            <g id="타원_325" class="cls-4" transform="translate(537.437 3546)">
                <circle cx="4" cy="4" r="4" class="cls-8"/>
                <circle cx="4" cy="4" r="3.5" class="cls-9"/>
            </g>
            <path id="패스_1095" d="M-13595.5-6794.5h102.023" class="cls-5" transform="translate(14133.636 10344.989)"/>
        </g>
    </g>
</svg>
