<svg xmlns="http://www.w3.org/2000/svg" width="76.503" height="60.242" viewBox="0 0 76.503 60.242">
    <defs>
        <clipPath id="clip-path">
            <path id="사각형_1200" fill="none" d="M0 0H54.07V59.118H0z"/>
        </clipPath>
        <style>
            .cls-3{fill:none;stroke:#0540ff;stroke-linecap:round;stroke-width:2px;stroke-linejoin:round}
        </style>
    </defs>
    <g id="그룹_1789" transform="translate(1)">
        <g id="그룹_1786">
            <g id="그룹_960">
                <g id="그룹_379" transform="translate(9.921)">
                    <g id="그룹_370">
                        <g id="그룹_369" clip-path="url(#clip-path)">
                            <path id="패스_671" d="M70.3 40.089h6.59a1.535 1.535 0 0 1 1.534 1.535v30.438" class="cls-3" transform="translate(-30.447 -17.362)"/>
                            <path id="패스_672" d="M10.746 72.062V41.624a1.534 1.534 0 0 1 1.535-1.535h6.667" class="cls-3" transform="translate(-4.654 -17.362)"/>
                            <path id="패스_673" d="M31.652 97.623h22.284v.138a3.07 3.07 0 0 1-3.07 3.07H4.07A3.07 3.07 0 0 1 1 97.761v-.138h30.652z" class="cls-3" transform="translate(-.433 -42.279)"/>
                            <path id="패스_674" d="M43.161 50.988H51.9V73.98H16.222V50.988h8.818" class="cls-3" transform="translate(-7.026 -22.082)"/>
                            <path id="패스_675" d="M47.4 6C42.81.825 37.762.939 36.759 1.022 35.757.939 30.706.825 26.12 6 21 11.786 21.906 20.126 24.8 24.094s3.966 6.938 3.966 9.25a4.922 4.922 0 0 0 .294 1.918h15.4a4.83 4.83 0 0 0 .3-1.918c0-2.312 1.073-5.286 3.965-9.25S52.518 11.786 47.4 6z" class="cls-3" transform="translate(-9.723 -.433)"/>
                            <path id="패스_676" d="M33.641 65.263v5.07a6.336 6.336 0 0 0 6.336 6.335h2.955a6.336 6.336 0 0 0 6.338-6.335v-5.07" class="cls-3" transform="translate(-14.569 -28.265)"/>
                            <path id="패스_677" d="M49.569 21.269L45.69 31.442l-3.562-10.173-3.879 10.173-3.563-10.173" class="cls-3" transform="translate(-15.022 -9.211)"/>
                            <path id="선_330" d="M0 0L3.879 0" class="cls-3" transform="translate(16.894 15.475)"/>
                            <path id="선_331" d="M0 0L3.879 0" class="cls-3" transform="translate(33.518 15.475)"/>
                        </g>
                    </g>
                </g>
                <path id="패스_678" fill="none" stroke="#0540ff" stroke-linecap="round" stroke-width="2px" d="M-3.419 0h74.5" transform="translate(3.419 59.242)"/>
            </g>
        </g>
    </g>
</svg>
