<svg xmlns="http://www.w3.org/2000/svg" width="261.644" height="489.732" viewBox="0 0 261.644 489.732">
    <defs>
        <clipPath id="clip-path">
            <path id="Fill_1_Copy" d="M28 0C11.605 0 0 11.607 0 28v433.74c0 16.39 11.605 28 28 28h205.647c16.39 0 28-11.607 28-28V28c0-16.389-11.607-28-28-28z" class="cls-1" transform="translate(660.322 3919.39)"/>
        </clipPath>
        <filter id="타원_77" width="38" height="37" x="220.678" y="177.61" filterUnits="userSpaceOnUse">
            <feOffset dy="3"/>
            <feGaussianBlur result="blur" stdDeviation="3"/>
            <feFlood flood-opacity=".161"/>
            <feComposite in2="blur" operator="in"/>
            <feComposite in="SourceGraphic"/>
        </filter>
        <style>
            .cls-1,.cls-20{fill:#fff}.cls-12,.cls-17,.cls-24,.cls-6{fill:none}.cls-20{stroke:#707070}.cls-6{stroke-width:2px}.cls-4{fill:#fafbfe}.cls-5{fill:#0540ff}.cls-6{stroke:#333;stroke-linecap:round}.cls-13,.cls-15,.cls-8{fill:#555}.cls-8{font-size:10px;font-family:NanumSquare_acR,NanumSquare_ac}.cls-12{stroke:rgba(157,173,222,.4)}.cls-13,.cls-22{font-size:5px}.cls-13,.cls-15,.cls-18,.cls-22{font-family:NanumSquare_acB,NanumSquare_ac}.cls-15{font-size:8px}.cls-16,.cls-18,.cls-22{fill:#3769fc}.cls-16,.cls-17{stroke:#3769fc}.cls-16{stroke-width:.5px}.cls-18{font-size:7px}.cls-19{fill:#bfbfbf}.cls-23{stroke:none}
        </style>
    </defs>
    <g id="마스크_그룹_56" clip-path="url(#clip-path)" transform="translate(-660.322 -3919.39)">
        <g id="그룹_1513" transform="translate(13914.102 -1879.042)">
            <g id="그룹_1512" transform="rotate(90 -9493.135 -3511.428)">
                <g filter="url(#타원_77)" transform="rotate(-90 32.975 216.245)">
                    <ellipse id="타원_77-2" cx="9.5" cy="10" class="cls-1" rx="9.5" ry="10" transform="rotate(-90 216.145 -13.535)"/>
                </g>
                <path id="패스_681" fill="none" stroke="#707070" stroke-width="2px" d="M0 0l3.67 3.67L7.34 0" transform="rotate(180 6.67 5.424)"/>
            </g>
            <path id="사각형_1684" d="M0 0H274V592H0z" class="cls-1" transform="translate(-13259.102 5793.042)"/>
            <path id="사각형_1685" d="M0 0H274V392H0z" class="cls-4" transform="translate(-13259.102 5904.042)"/>
            <g id="그룹_1509" transform="translate(-13165.16 5803.292)">
                <g id="그룹_3" transform="translate(21.933 4.727)">
                    <path id="패스_329" d="M342.553 522.845a2.381 2.381 0 0 0-2.379-2.377h-4.794v8.709h.8v-3.954h3.993a1.578 1.578 0 0 1 1.576 1.575v2.378h.8V526.8a2.372 2.372 0 0 1 0-3.953zm-2.377 1.576h-3.993v-3.152h3.993a1.576 1.576 0 1 1 0 3.152z" class="cls-5" transform="translate(-335.38 -520.424)"/>
                    <path id="패스_330" d="M604.256 520.4h-.8v8.709h6.488l.684-.8h-6.371z" class="cls-5" transform="translate(-576.474 -520.365)"/>
                    <path id="패스_331" d="M726.836 522.734a2.38 2.38 0 0 0-2.378-2.377h-4.795v8.709h4.795a17.126 17.126 0 0 1 2.376-6.332zm-2.376 5.53h-3.993v-3.152h3.993a1.576 1.576 0 1 1 0 3.152zm0-3.954h-3.993v-3.15h3.993a1.576 1.576 0 1 1 0 3.152z" class="cls-5" transform="translate(-680.987 -520.324)"/>
                    <path id="패스_332" d="M815.394 525.448a2.784 2.784 0 1 1-5.569 0v-5.123h-.8v5.123a3.586 3.586 0 0 0 7.173 0v-5.123h-.8z" class="cls-5" transform="translate(-761.352 -520.295)"/>
                    <path id="패스_333" d="M901.054 520.3l-2.992 3.716-2.995-3.715h-1.03l3.624 4.495v4.213h.8V524.8l3.623-4.5z" class="cls-5" transform="translate(-837.811 -520.271)"/>
                    <path id="패스_334" d="M424.741 529.147h7.173v-.8h-6.371v-3.152h6.371v-.8h-6.371v-3.155h6.371v-.8h-7.173z" class="cls-5" transform="translate(-415.745 -520.395)"/>
                    <g id="그룹_2" transform="translate(17.797)">
                        <path id="패스_335" d="M516.237 520.03h-.51l-3.522 8.749h.865l1.592-3.954h2.644l1.594 3.953h.865zm-1.253 3.993l1-2.48 1 2.479z" class="cls-5" transform="translate(-512.205 -520.03)"/>
                    </g>
                </g>
                <g id="그룹_4">
                    <path id="패스_336" d="M176.15 474.536l-3.418-1.472v13.361h1.662v-9.173h1.555z" class="cls-5" transform="translate(-167.169 -473.064)"/>
                    <path id="패스_337" d="M117.459 474.536l.968 11.889-.553-11.576 4.934-1.786z" class="cls-5" transform="translate(-117.459 -473.064)"/>
                    <path id="패스_338" d="M199.42 518.582h-6.272v8.78h2.935V524.1h2.91a.448.448 0 0 1 .477.477.458.458 0 0 1-.477.489h-1.238l1.617 2.3h.047a2.6 2.6 0 0 0 2.872-2.784 2.82 2.82 0 0 0-.527-1.643 2.656 2.656 0 0 0 .527-1.58 2.593 2.593 0 0 0-2.871-2.777zm-.427 3.249h-2.91v-.953h2.91a.438.438 0 0 1 .477.464.458.458 0 0 1-.477.489z" class="cls-5" transform="translate(-185.53 -514.001)"/>
                </g>
            </g>
            <g id="그룹_1510" transform="translate(-13237.507 5807.492)">
                <path id="선_1" d="M0 0L13.815 0" class="cls-6"/>
                <path id="선_2" d="M0 0L13.815 0" class="cls-6" transform="translate(0 4.89)"/>
                <path id="선_3" d="M0 0L13.815 0" class="cls-6" transform="translate(0 9.779)"/>
            </g>
            <path id="선_693" fill="none" stroke="#3182f5" stroke-width="2px" d="M0 0L35.264 0" transform="translate(-13104.811 5903.268)"/>
            <text id="매입_분석" class="cls-8" transform="translate(-13246.102 5895.042)">
                <tspan x="0" y="0">매입 분석</tspan>
            </text>
            <text id="안전성_분석" fill="#3182f5" font-family="NanumSquare_acEB, NanumSquare_ac" font-size="11px" transform="translate(-13246.102 5856.042)">
                <tspan x="0" y="0">안전성 분석</tspan>
            </text>
            <text id="임차인_분석" class="cls-8" transform="translate(-13180.102 5895.042)">
                <tspan x="0" y="0">임차인 분석</tspan>
            </text>
            <text id="투자구조" fill="#3182f5" font-family="NanumSquare_acEB, NanumSquare_ac" font-size="9px" transform="translate(-13104.102 5894.042)">
                <tspan x="0" y="0">투자구조</tspan>
            </text>
            <text id="공동투자자_및_운용사" fill="#555" font-family="NanumSquare_acR, NanumSquare_ac" font-size="9px" transform="translate(-13042.102 5882.042)">
                <tspan x="0" y="0">공동투자자</tspan><tspan x="0" y="10"> 및 운용사</tspan>
            </text>
            <path id="선_694" d="M0 0L276.297 0" class="cls-12" transform="translate(-13261.5 5904.359)"/>
            <path id="선_695" d="M0 0L276.297 0" class="cls-12" transform="translate(-13261.5 5830.922)"/>
            <g id="그룹_1511" transform="translate(-13300.188 5938.526)">
                <path id="사각형_1365" d="M0 0H101V110H0z" class="cls-1" transform="translate(.087 128.515)"/>
                <path id="사각형_1368" d="M0 0H101V83H0z" class="cls-1" transform="translate(126.087 .515)"/>
                <path id="사각형_1366" d="M0 0H63V110H0z" class="cls-1" transform="translate(143.087 128.515)"/>
                <path id="사각형_1367" d="M0 0H60V110H0z" class="cls-1" transform="translate(247.086 128.515)"/>
                <text id="_La_Francaise_Real_Estate_" class="cls-13" transform="translate(147.086 67.515)">
                    <tspan x="0" y="0">(La Francaise Real Estate)</tspan>
                </text>
                <text id="_독일_투자회사_" class="cls-13" transform="translate(160.087 210.515)">
                    <tspan x="0" y="0">(독일 투자회사)</tspan>
                </text>
                <text id="_신한대체자산운용_" class="cls-13" transform="translate(258.087 209.515)">
                    <tspan x="0" y="0">(신한대체자산운용)</tspan>
                </text>
                <text id="독일_현지_자산관리_회사" fill="#555" font-family="NanumSquare_acB, NanumSquare_ac" font-size="8px" opacity="0.9" transform="translate(139.086 59.515)">
                    <tspan x="0" y="0">독일 현지 자산관리 회사</tspan>
                </text>
                <text id="독일_SPC" class="cls-15" transform="translate(159.087 200.515)">
                    <tspan x="0" y="0">독일 SPC</tspan>
                </text>
                <text id="국내_운용사" class="cls-15" transform="translate(259.087 200.515)">
                    <tspan x="0" y="0">국내 운용사</tspan>
                </text>
                <g id="구성_요소_22_1" transform="translate(154.087 5.888)">
                    <g id="그룹_498" transform="translate(0 39.443)">
                        <path id="패스_419" d="M599.238 711.618h-44.832a.307.307 0 1 1 0-.613h44.833a.307.307 0 0 1 0 .613z" class="cls-16" transform="translate(-554.099 -711.005)"/>
                    </g>
                    <g id="그룹_499" transform="translate(14.529 23.32)">
                        <path id="패스_420" d="M634.207 656.208h-15.338a.307.307 0 0 1-.307-.307v-16.122a.307.307 0 0 1 .307-.307h15.338a.307.307 0 0 1 .307.307V655.9a.307.307 0 0 1-.307.308zm-15.031-.613H633.9v-15.51h-14.725z" class="cls-16" transform="translate(-618.562 -639.472)"/>
                    </g>
                    <g id="그룹_500" transform="translate(18.302 34.738)">
                        <path id="패스_421" d="M643.4 695.451h-7.792a.307.307 0 0 1-.307-.307v-4.7a.307.307 0 0 1 .307-.307h7.792a.307.307 0 0 1 .307.307v4.7a.307.307 0 0 1-.307.307zm-7.485-.613h7.179v-4.091h-7.179z" class="cls-16" transform="translate(-635.302 -690.133)"/>
                    </g>
                    <g id="그룹_503" transform="translate(16.304 25.641)">
                        <g id="그룹_501" transform="translate(0 4.913)">
                            <path id="패스_422" d="M638.534 674.315h-11.787a.307.307 0 0 1-.307-.307v-2.136a.307.307 0 0 1 .307-.307h11.787a.307.307 0 0 1 .307.307v2.136a.307.307 0 0 1-.307.307zm-11.48-.613h11.174v-1.523h-11.175z" class="cls-16" transform="translate(-626.44 -671.566)"/>
                        </g>
                        <g id="그룹_502">
                            <path id="패스_423" d="M638.534 652.518h-11.787a.307.307 0 0 1-.307-.307v-2.136a.307.307 0 0 1 .307-.306h11.787a.307.307 0 0 1 .307.306v2.136a.307.307 0 0 1-.307.307zm-11.48-.613h11.174v-1.523h-11.175z" class="cls-16" transform="translate(-626.44 -649.769)"/>
                        </g>
                    </g>
                    <g id="그룹_504" transform="translate(22.198 34.738)">
                        <path id="패스_424" d="M652.895 695.451a.306.306 0 0 1-.306-.307v-4.7a.306.306 0 1 1 .613 0v4.7a.307.307 0 0 1-.307.307z" class="cls-16" transform="translate(-652.588 -690.133)"/>
                    </g>
                    <g id="그룹_505" transform="translate(13.697)">
                        <path id="패스_425" d="M615.177 540.734a.307.307 0 0 1-.307-.307v-4.113a.306.306 0 1 1 .613 0v4.113a.307.307 0 0 1-.306.307z" class="cls-16" transform="translate(-614.87 -536.007)"/>
                    </g>
                    <g id="그룹_511" transform="translate(8.116 4.113)">
                        <g id="그룹_506" transform="translate(3.354)">
                            <path id="패스_426" d="M609.752 558.646H605.3a.307.307 0 0 1-.307-.307v-3.775a.307.307 0 0 1 .307-.307h4.452a.306.306 0 0 1 .307.307v3.775a.307.307 0 0 1-.307.307zm-4.145-.613h3.839v-3.163h-3.839z" class="cls-16" transform="translate(-604.994 -554.257)"/>
                        </g>
                        <g id="그룹_507" transform="translate(1.549 3.775)">
                            <path id="패스_427" d="M605.353 576.015h-8.063a.307.307 0 0 1-.307-.307v-4.4a.306.306 0 0 1 .307-.306h8.063a.306.306 0 0 1 .307.306v4.4a.306.306 0 0 1-.307.307zm-7.753-.615h7.45v-3.78h-7.45z" class="cls-16" transform="translate(-596.983 -571.007)"/>
                        </g>
                        <g id="그룹_508" transform="translate(0 8.17)">
                            <path id="패스_428" d="M596.83 618.279h-6.413a.306.306 0 0 1-.306-.307v-27.159a.307.307 0 0 1 .306-.307h11.161a.307.307 0 0 1 .307.307v11.036a.307.307 0 0 1-.307.307h-4.441v15.816a.307.307 0 0 1-.307.307zm-6.106-.613h5.8v-15.817a.307.307 0 0 1 .307-.307h4.441v-10.423h-10.548z" class="cls-16" transform="translate(-590.111 -590.506)"/>
                        </g>
                        <g id="그룹_509" transform="translate(1.891 10.218)">
                            <path id="패스_429" d="M601.438 623.351h-2.631a.307.307 0 0 1-.307-.306V599.9a.307.307 0 0 1 .307-.307h2.631a.307.307 0 0 1 .307.307v23.146a.307.307 0 0 1-.307.305zm-2.324-.613h2.018v-22.533h-2.018z" class="cls-16" transform="translate(-598.501 -599.592)"/>
                        </g>
                        <g id="그룹_510" transform="translate(6.413 10.218)">
                            <path id="패스_430" d="M621.5 607.5h-2.631a.307.307 0 0 1-.307-.307V599.9a.307.307 0 0 1 .307-.307h2.631a.307.307 0 0 1 .307.307v7.292a.307.307 0 0 1-.307.308zm-2.324-.613h2.018v-6.679h-2.018z" class="cls-16" transform="translate(-618.562 -599.592)"/>
                        </g>
                    </g>
                    <g id="그룹_514" transform="translate(27.216 10.709)">
                        <g id="그룹_512" transform="translate(1.46)">
                            <path id="패스_431" d="M686.086 586.3h-4.452a.307.307 0 0 1-.307-.306v-2.164a.307.307 0 0 1 .307-.307h4.452a.307.307 0 0 1 .307.307v2.164a.307.307 0 0 1-.307.306zm-4.145-.613h3.839v-1.551h-3.839z" class="cls-16" transform="translate(-681.328 -583.519)"/>
                        </g>
                        <g id="그룹_513" transform="translate(0 2.164)">
                            <path id="패스_432" d="M682.552 596.466h-7.395a.307.307 0 0 1-.307-.307v-2.731a.307.307 0 0 1 .307-.307h7.395a.306.306 0 0 1 .306.307v2.731a.306.306 0 0 1-.306.307zm-7.088-.613h6.782v-2.118h-6.782z" class="cls-16" transform="translate(-674.851 -593.121)"/>
                        </g>
                    </g>
                    <g id="그룹_515" transform="translate(25.111 15.604)">
                        <path id="패스_433" d="M677.423 629.692h-6.849a.307.307 0 0 1-.307-.307v-15.816h-4.449a.307.307 0 0 1-.307-.307v-7.716a.307.307 0 0 1 .307-.307h11.6a.307.307 0 0 1 .307.307v23.839a.307.307 0 0 1-.302.307zm-6.542-.613h6.235v-23.226h-10.991v7.1h4.449a.307.307 0 0 1 .307.307z" class="cls-16" transform="translate(-665.512 -605.24)"/>
                    </g>
                    <g id="그룹_516" transform="translate(31.991 17.312)">
                        <path id="패스_434" d="M698.976 633.594h-2.631a.307.307 0 0 1-.307-.307v-20.165a.307.307 0 0 1 .307-.307h2.631a.307.307 0 0 1 .307.307v20.165a.307.307 0 0 1-.307.307zm-2.324-.613h2.018v-19.553h-2.018z" class="cls-16" transform="translate(-696.038 -612.815)"/>
                    </g>
                    <g id="그룹_517" transform="translate(27.228 17.312)">
                        <path id="패스_435" d="M677.843 617.74h-2.631a.307.307 0 0 1-.307-.307v-4.312a.307.307 0 0 1 .307-.307h2.631a.307.307 0 0 1 .307.307v4.312a.307.307 0 0 1-.307.307zm-2.324-.613h2.018v-3.7h-2.018z" class="cls-16" transform="translate(-674.905 -612.815)"/>
                    </g>
                </g>
                <g id="구성_요소_24_1" transform="translate(152.087 152.227)">
                    <g id="그룹_589" transform="translate(0 33.969)">
                        <path id="패스_484" d="M97.065 211.008H51.681a.3.3 0 1 1 0-.608h45.384a.3.3 0 1 1 0 .608z" class="cls-16" transform="translate(-51.377 -210.4)"/>
                    </g>
                    <g id="그룹_604" transform="translate(4.663)">
                        <g id="그룹_594" transform="translate(27.912 17.952)">
                            <g id="그룹_590" transform="translate(4.937 4.937)">
                                <path id="패스_485" d="M219.591 172.493a.3.3 0 0 1-.3-.3V161.11a.3.3 0 1 1 .608 0v11.08a.3.3 0 0 1-.308.303z" class="cls-16" transform="translate(-219.287 -160.806)"/>
                            </g>
                            <g id="그룹_591">
                                <path id="패스_486" d="M202.428 149.189a5.241 5.241 0 1 1 5.241-5.241 5.247 5.247 0 0 1-5.241 5.241zm0-9.875a4.633 4.633 0 1 0 4.633 4.633 4.639 4.639 0 0 0-4.633-4.633z" class="cls-16" transform="translate(-197.187 -138.706)"/>
                            </g>
                            <g id="그룹_592" transform="translate(4.937 5.263)">
                                <path id="패스_487" d="M219.591 166.013a.3.3 0 0 1-.215-.519l3.14-3.14a.3.3 0 1 1 .43.43l-3.14 3.14a.3.3 0 0 1-.215.089z" class="cls-16" transform="translate(-219.287 -162.265)"/>
                            </g>
                            <g id="그룹_593" transform="translate(2.671 4.552)">
                                <path id="패스_488" d="M211.713 161.957a.3.3 0 0 1-.215-.089l-2.266-2.266a.3.3 0 1 1 .43-.43l2.266 2.266a.3.3 0 0 1-.215.519z" class="cls-16" transform="translate(-209.143 -159.083)"/>
                            </g>
                        </g>
                        <g id="그룹_595" transform="translate(0 5.648)">
                            <path id="패스_489" d="M85.426 112.561H72.553a.3.3 0 0 1-.3-.3V88.676a.3.3 0 0 1 .2-.285l12.873-4.74a.3.3 0 0 1 .409.285v28.321a.3.3 0 0 1-.309.304zm-12.569-.608h12.265V84.372l-12.265 4.516z" class="cls-16" transform="translate(-72.249 -83.632)"/>
                        </g>
                        <g id="그룹_596" transform="translate(12.845)">
                            <path id="패스_490" d="M142.922 92.927h-12.873a.3.3 0 0 1-.3-.3V58.654a.3.3 0 0 1 .409-.285l12.873 4.74a.3.3 0 0 1 .2.285v29.229a.3.3 0 0 1-.309.304zm-12.569-.608h12.265V63.606l-12.265-4.516z" class="cls-16" transform="translate(-129.745 -58.35)"/>
                        </g>
                        <g id="그룹_597" transform="translate(17.181 26.4)">
                            <path id="패스_491" d="M153.78 184.692h-4.322a.3.3 0 0 1-.3-.3v-7.564a.3.3 0 0 1 .3-.3h4.322a.3.3 0 0 1 .3.3v7.564a.3.3 0 0 1-.3.3zm-4.018-.608h3.714v-6.956h-3.714z" class="cls-16" transform="translate(-149.154 -176.52)"/>
                        </g>
                        <g id="그룹_598" transform="translate(14.804 19.768)">
                            <path id="패스_492" d="M147.894 151.117h-9.077a.3.3 0 0 1-.3-.3v-3.674a.3.3 0 0 1 .3-.3h9.077a.3.3 0 0 1 .3.3v3.674a.3.3 0 0 1-.3.3zm-8.773-.608h8.469v-3.066h-8.469z" class="cls-16" transform="translate(-138.513 -146.835)"/>
                        </g>
                        <g id="그룹_599" transform="translate(14.804 13.285)">
                            <path id="패스_493" d="M147.894 122.1h-9.077a.3.3 0 0 1-.3-.3v-3.674a.3.3 0 0 1 .3-.3h9.077a.3.3 0 0 1 .3.3v3.674a.3.3 0 0 1-.3.3zm-8.773-.608h8.469v-3.066h-8.469z" class="cls-16" transform="translate(-138.513 -117.814)"/>
                        </g>
                        <g id="그룹_600" transform="translate(1.837 19.768)">
                            <path id="패스_494" d="M89.853 151.117h-9.077a.3.3 0 0 1-.3-.3v-3.674a.3.3 0 0 1 .3-.3h9.077a.3.3 0 0 1 .3.3v3.674a.3.3 0 0 1-.3.3zm-8.773-.608h8.469v-3.066H81.08z" class="cls-16" transform="translate(-80.472 -146.835)"/>
                        </g>
                        <g id="그룹_601" transform="translate(1.837 13.285)">
                            <path id="패스_495" d="M89.853 122.1h-9.077a.3.3 0 0 1-.3-.3v-3.674a.3.3 0 0 1 .3-.3h9.077a.3.3 0 0 1 .3.3v3.674a.3.3 0 0 1-.3.3zm-8.773-.608h8.469v-3.066H81.08z" class="cls-16" transform="translate(-80.472 -117.814)"/>
                        </g>
                        <g id="그룹_602" transform="translate(14.804 6.801)">
                            <path id="패스_496" d="M147.894 93.075h-9.077a.3.3 0 0 1-.3-.3V89.1a.3.3 0 0 1 .3-.3h9.077a.3.3 0 0 1 .3.3v3.674a.3.3 0 0 1-.3.301zm-8.773-.608h8.469V89.4h-8.469z" class="cls-16" transform="translate(-138.513 -88.793)"/>
                        </g>
                        <g id="그룹_603" transform="translate(4.214 26.4)">
                            <path id="패스_497" d="M95.739 184.692h-4.322a.3.3 0 0 1-.3-.3v-7.564a.3.3 0 0 1 .3-.3h4.322a.3.3 0 0 1 .3.3v7.564a.3.3 0 0 1-.3.3zm-4.018-.608h3.715v-6.956h-3.715z" class="cls-16" transform="translate(-91.113 -176.52)"/>
                        </g>
                    </g>
                </g>
                <g id="구성_요소_25_1" transform="translate(256.087 143.582)">
                    <g id="그룹_756" transform="translate(0 42.445)">
                        <path id="패스_612" d="M1102.953 461.31h-41.607a.3.3 0 1 1 0-.608h41.607a.3.3 0 1 1 0 .608z" class="cls-16" transform="translate(-1061.042 -460.702)"/>
                    </g>
                    <g id="그룹_757" transform="translate(11.219)">
                        <path id="패스_613" d="M1130.733 307.216h-19.169a.3.3 0 0 1-.3-.3v-27.79a.3.3 0 0 1 .108-.232l9.584-8.1a.3.3 0 0 1 .393 0l9.584 8.1a.3.3 0 0 1 .108.232v27.79a.3.3 0 0 1-.308.3zm-18.865-.608h18.561v-27.344l-9.28-7.847-9.281 7.847z" class="cls-16" transform="translate(-1111.26 -270.714)"/>
                    </g>
                    <g id="그룹_758" transform="translate(11.219 35.894)">
                        <path id="패스_614" d="M1130.733 438.538h-19.169a.3.3 0 0 1-.3-.3v-6.551a.3.3 0 0 1 .3-.3h19.169a.3.3 0 0 1 .3.3v6.551a.3.3 0 0 1-.3.3zm-18.865-.608h18.561v-5.943h-18.561z" class="cls-16" transform="translate(-1111.26 -431.379)"/>
                    </g>
                    <g id="그룹_759" transform="translate(13.577 29.917)">
                        <path id="패스_615" d="M1136.572 407.935h-14.453a.3.3 0 0 1-.3-.3v-2.7a.3.3 0 0 1 .3-.3h14.453a.3.3 0 0 1 .3.3v2.7a.3.3 0 0 1-.3.3zm-14.149-.608h13.845v-2.094h-13.845z" class="cls-16" transform="translate(-1121.815 -404.626)"/>
                    </g>
                    <g id="그룹_760" transform="translate(13.577 29.917)">
                        <path id="패스_616" d="M1136.572 407.935h-14.453a.3.3 0 0 1-.3-.3v-2.7a.3.3 0 0 1 .3-.3h14.453a.3.3 0 0 1 .3.3v2.7a.3.3 0 0 1-.3.3zm-14.149-.608h13.845v-2.094h-13.845z" class="cls-16" transform="translate(-1121.815 -404.626)"/>
                    </g>
                    <g id="그룹_761" transform="translate(13.577 23.94)">
                        <path id="패스_617" d="M1136.572 381.181h-14.453a.3.3 0 0 1-.3-.3v-2.7a.3.3 0 0 1 .3-.3h14.453a.3.3 0 0 1 .3.3v2.7a.3.3 0 0 1-.3.3zm-14.149-.608h13.845v-2.093h-13.845z" class="cls-16" transform="translate(-1121.815 -377.872)"/>
                    </g>
                    <g id="그룹_762" transform="translate(13.577 17.963)">
                        <path id="패스_618" d="M1136.572 354.428h-14.453a.3.3 0 0 1-.3-.3v-2.7a.3.3 0 0 1 .3-.3h14.453a.3.3 0 0 1 .3.3v2.7a.3.3 0 0 1-.3.3zm-14.149-.608h13.845v-2.094h-13.845z" class="cls-16" transform="translate(-1121.815 -351.119)"/>
                    </g>
                    <g id="그룹_763" transform="translate(13.577 11.986)">
                        <path id="패스_619" d="M1136.572 327.674h-14.453a.3.3 0 0 1-.3-.3v-2.7a.3.3 0 0 1 .3-.3h14.453a.3.3 0 0 1 .3.3v2.7a.3.3 0 0 1-.3.3zm-14.149-.608h13.845v-2.094h-13.845z" class="cls-16" transform="translate(-1121.815 -324.365)"/>
                    </g>
                    <g id="그룹_764" transform="translate(16.653 35.894)">
                        <path id="패스_620" d="M1144.188 438.538h-8.3a.3.3 0 0 1-.3-.3v-6.551a.3.3 0 0 1 .3-.3h8.3a.3.3 0 0 1 .3.3v6.551a.3.3 0 0 1-.3.3zm-8-.608h7.693v-5.943h-7.693z" class="cls-16" transform="translate(-1135.584 -431.379)"/>
                    </g>
                    <g id="그룹_765" transform="translate(30.388 11.986)">
                        <path id="패스_621" d="M1205.007 355.432h-7.642a.3.3 0 0 1-.3-.3v-30.463a.3.3 0 0 1 .3-.3h7.642a.3.3 0 0 1 .3.3v30.459a.3.3 0 0 1-.3.304zm-7.338-.608h7.034v-29.851h-7.034z" class="cls-16" transform="translate(-1197.061 -324.365)"/>
                    </g>
                    <g id="그룹_766" transform="translate(3.577 17.963)">
                        <path id="패스_622" d="M1085 376.209h-7.642a.3.3 0 0 1-.3-.3v-24.486a.3.3 0 0 1 .3-.3H1085a.3.3 0 0 1 .3.3V375.9a.3.3 0 0 1-.3.309zm-7.338-.608h7.034v-23.874h-7.034z" class="cls-16" transform="translate(-1077.053 -351.119)"/>
                    </g>
                    <g id="그룹_767" transform="translate(20.803 35.894)">
                        <path id="패스_623" d="M1154.465 438.538a.3.3 0 0 1-.3-.3v-6.551a.3.3 0 1 1 .608 0v6.551a.3.3 0 0 1-.308.3z" class="cls-16" transform="translate(-1154.161 -431.379)"/>
                    </g>
                    <g id="그룹_768" transform="translate(7.398 20.747)">
                        <path id="패스_624" d="M1094.461 383.1a.3.3 0 0 1-.3-.3v-18.915a.3.3 0 1 1 .608 0V382.8a.3.3 0 0 1-.308.3z" class="cls-16" transform="translate(-1094.157 -363.581)"/>
                    </g>
                    <g id="그룹_769" transform="translate(34.209 14.991)">
                        <path id="패스_625" d="M1214.468 362.873a.3.3 0 0 1-.3-.3V338.12a.3.3 0 1 1 .608 0v24.449a.3.3 0 0 1-.308.304z" class="cls-16" transform="translate(-1214.164 -337.816)"/>
                    </g>
                </g>
                <g id="그룹_836" transform="translate(173.945 84.803)">
                    <path id="선_450" d="M0 0L0 49.757" class="cls-17" transform="translate(2.21)"/>
                    <path id="패스_978" d="M21320.213 2067.055l2.211 2.1 2.215-2.1" class="cls-17" transform="translate(-21320.213 -2019.313)"/>
                </g>
                <g id="구성_요소_26_1" transform="translate(95.122 158.375)">
                    <g id="그룹_837" transform="rotate(90 24.92 24.92)">
                        <path id="선_450-2" d="M0 0L0 49.757" class="cls-17" transform="translate(2.21)"/>
                        <path id="패스_978-2" d="M0 0l2.21 2.1L4.423 0" class="cls-17" transform="translate(0 47.742)"/>
                    </g>
                </g>
                <g id="그룹_839" transform="rotate(-90 160.474 65.35)">
                    <path id="선_450-3" d="M0 0L0 49.757" class="cls-17" transform="translate(2.21)"/>
                    <path id="패스_978-3" d="M0 0l2.21 2.1L4.423 0" class="cls-17" transform="translate(0 47.742)"/>
                </g>
                <g id="구성_요소_27_1" transform="translate(202.931 221.4)">
                    <g id="그룹_840" transform="rotate(-90 2.212 2.212)">
                        <path id="선_450-4" d="M0 0L0 49.757" class="cls-17" transform="translate(2.21)"/>
                        <path id="패스_978-4" d="M0 0l2.21 2.1L4.423 0" class="cls-17" transform="translate(0 47.742)"/>
                    </g>
                </g>
                <g id="그룹_842" transform="rotate(-90 262.773 -36.949)">
                    <path id="선_450-5" d="M0 0L0 40.319" class="cls-17" transform="translate(2.21)"/>
                    <path id="패스_978-5" d="M0 0l2.21 2.1L4.423 0" class="cls-17" transform="translate(0 38.304)"/>
                </g>
                <g id="그룹_838" transform="rotate(90 47.198 205.573)">
                    <path id="선_450-6" d="M0 0L0 49.757" class="cls-17" transform="translate(2.21)"/>
                    <path id="패스_978-6" d="M0 0l2.21 2.1L4.423 0" class="cls-17" transform="translate(0 47.742)"/>
                </g>
                <g id="그룹_841" transform="rotate(90 90.3 248.674)">
                    <path id="선_450-7" d="M0 0L0 41.04" class="cls-17" transform="translate(2.21)"/>
                    <path id="패스_978-7" d="M0 0l2.21 2.1L4.423 0" class="cls-17" transform="translate(0 39.025)"/>
                </g>
                <path id="사각형_1361" d="M0 0H42V15H0z" class="cls-4" transform="translate(156.087 100.515)"/>
                <text id="자산관리" class="cls-18" transform="translate(164.087 109.515)">
                    <tspan x="0" y="0">자산관리</tspan>
                </text>
                <text id="투자_100_" class="cls-18" transform="translate(103.56 151.312)">
                    <tspan x="0" y="0">투자 100%</tspan>
                </text>
                <text id="투자_100_2" class="cls-18" transform="translate(211.726 153.135)">
                    <tspan x="0" y="0">투자 100%</tspan>
                </text>
                <text id="투자_100_3" class="cls-18" transform="translate(306.041 153.135)">
                    <tspan x="0" y="0">투자 100%</tspan>
                </text>
                <text id="임대료_지급" class="cls-18" transform="translate(104.503 216.161)">
                    <tspan x="0" y="0">임대료 지급</tspan>
                </text>
                <text id="배당_지급" class="cls-18" transform="translate(215.433 216.161)">
                    <tspan x="0" y="0">배당 지급</tspan>
                </text>
                <text id="배당_지급-2" class="cls-18" transform="translate(306.849 216.161)">
                    <tspan x="0" y="0">배당 지급</tspan>
                </text>
                <g id="dollar2" transform="translate(111.806 182.537)">
                    <path id="dollar2-2" d="M16.129 12.506l.026-7.656-13.911.008V3.98h14.78v8.526zm-.451 1.347h-.895l.026-7.653H.9v-.873h14.778v8.526zm-1.318.9H0v-8.08h14.36zm-.9-7.208H.9v6.311h12.562V7.542zm-1.344 5.635a.657.657 0 0 0 .045.224H7.18a2.5 2.5 0 0 0 2.244-2.693A2.5 2.5 0 0 0 7.18 8.019h4.981a.657.657 0 0 0-.045.224.673.673 0 0 0 .673.673.657.657 0 0 0 .224-.045v3.68a.657.657 0 0 0-.9.629zm-.9-3.4c-.372 0-.673.4-.673.9s.3.9.673.9.673-.4.673-.9-.299-.903-.671-.903zm-3.1-.683a.209.209 0 0 1 .017.052.46.46 0 0 1 .009.082v.26a.625.625 0 0 1-.014.093.116.116 0 0 1-.028.053.07.07 0 0 1-.049.017.237.237 0 0 1-.1-.039c-.045-.026-.1-.054-.165-.085a1.582 1.582 0 0 0-.227-.084A1.007 1.007 0 0 0 7.28 9.4a.671.671 0 0 0-.21.029.433.433 0 0 0-.15.081.322.322 0 0 0-.09.124.4.4 0 0 0-.03.154.341.341 0 0 0 .066.212.62.62 0 0 0 .177.157 1.9 1.9 0 0 0 .251.129q.14.06.286.127a2.847 2.847 0 0 1 .286.153 1.136 1.136 0 0 1 .25.2.954.954 0 0 1 .177.28.982.982 0 0 1 .067.38 1.121 1.121 0 0 1-.107.5 1.037 1.037 0 0 1-.289.361 1.255 1.255 0 0 1-.426.217c-.021.006-.043.009-.064.014v.49h-.441v-.432h-.017a1.9 1.9 0 0 1-.349-.03 2.023 2.023 0 0 1-.284-.073 1.25 1.25 0 0 1-.206-.09.584.584 0 0 1-.119-.083.21.21 0 0 1-.052-.1.959.959 0 0 1-.016-.2c0-.058 0-.107.006-.146a.414.414 0 0 1 .018-.1.107.107 0 0 1 .034-.052.083.083 0 0 1 .052-.002.23.23 0 0 1 .111.047 1.969 1.969 0 0 0 .184.1 1.684 1.684 0 0 0 .268.1 1.264 1.264 0 0 0 .36.047.83.83 0 0 0 .241-.032.549.549 0 0 0 .181-.091.394.394 0 0 0 .113-.146.462.462 0 0 0 .039-.194.342.342 0 0 0-.067-.212.666.666 0 0 0-.175-.157 1.76 1.76 0 0 0-.245-.129c-.092-.04-.186-.083-.283-.128a2.576 2.576 0 0 1-.283-.153 1.132 1.132 0 0 1-.245-.2.971.971 0 0 1-.175-.281 1.146 1.146 0 0 1 .03-.848.941.941 0 0 1 .256-.333 1.111 1.111 0 0 1 .39-.19 1.621 1.621 0 0 1 .236-.049v-.468h.441v.464h.052a1.759 1.759 0 0 1 .241.053 1.325 1.325 0 0 1 .2.075.494.494 0 0 1 .116.069.177.177 0 0 1 .037.046zm-3.18 1.614A2.5 2.5 0 0 0 7.18 13.4H2.2a.657.657 0 0 0-.852-.852V8.871a.657.657 0 0 0 .224.045.657.657 0 0 0 .628-.9h4.98a2.5 2.5 0 0 0-2.244 2.695zm-1.8-.935c-.372 0-.673.4-.673.9s.3.9.673.9.673-.4.673-.9-.3-.9-.673-.9z" class="cls-19" transform="translate(0 -3.98)"/>
                </g>
                <path id="dollar2-3" d="M16.129 12.506l.026-7.656-13.911.008V3.98h14.78v8.526zm-.451 1.347h-.895l.026-7.653H.9v-.873h14.778v8.526zm-1.318.9H0v-8.08h14.36zm-.9-7.208H.9v6.311h12.562V7.542zm-1.344 5.635a.657.657 0 0 0 .045.224H7.18a2.5 2.5 0 0 0 2.244-2.693A2.5 2.5 0 0 0 7.18 8.019h4.981a.657.657 0 0 0-.045.224.673.673 0 0 0 .673.673.657.657 0 0 0 .224-.045v3.68a.657.657 0 0 0-.9.629zm-.9-3.4c-.372 0-.673.4-.673.9s.3.9.673.9.673-.4.673-.9-.299-.903-.671-.903zm-3.1-.683a.209.209 0 0 1 .017.052.46.46 0 0 1 .009.082v.26a.625.625 0 0 1-.014.093.116.116 0 0 1-.028.053.07.07 0 0 1-.049.017.237.237 0 0 1-.1-.039c-.045-.026-.1-.054-.165-.085a1.582 1.582 0 0 0-.227-.084A1.007 1.007 0 0 0 7.28 9.4a.671.671 0 0 0-.21.029.433.433 0 0 0-.15.081.322.322 0 0 0-.09.124.4.4 0 0 0-.03.154.341.341 0 0 0 .066.212.62.62 0 0 0 .177.157 1.9 1.9 0 0 0 .251.129q.14.06.286.127a2.847 2.847 0 0 1 .286.153 1.136 1.136 0 0 1 .25.2.954.954 0 0 1 .177.28.982.982 0 0 1 .067.38 1.121 1.121 0 0 1-.107.5 1.037 1.037 0 0 1-.289.361 1.255 1.255 0 0 1-.426.217c-.021.006-.043.009-.064.014v.49h-.441v-.432h-.017a1.9 1.9 0 0 1-.349-.03 2.023 2.023 0 0 1-.284-.073 1.25 1.25 0 0 1-.206-.09.584.584 0 0 1-.119-.083.21.21 0 0 1-.052-.1.959.959 0 0 1-.016-.2c0-.058 0-.107.006-.146a.414.414 0 0 1 .018-.1.107.107 0 0 1 .034-.052.083.083 0 0 1 .052-.002.23.23 0 0 1 .111.047 1.969 1.969 0 0 0 .184.1 1.684 1.684 0 0 0 .268.1 1.264 1.264 0 0 0 .36.047.83.83 0 0 0 .241-.032.549.549 0 0 0 .181-.091.394.394 0 0 0 .113-.146.462.462 0 0 0 .039-.194.342.342 0 0 0-.067-.212.666.666 0 0 0-.175-.157 1.76 1.76 0 0 0-.245-.129c-.092-.04-.186-.083-.283-.128a2.576 2.576 0 0 1-.283-.153 1.132 1.132 0 0 1-.245-.2.971.971 0 0 1-.175-.281 1.146 1.146 0 0 1 .03-.848.941.941 0 0 1 .256-.333 1.111 1.111 0 0 1 .39-.19 1.621 1.621 0 0 1 .236-.049v-.468h.441v.464h.052a1.759 1.759 0 0 1 .241.053 1.325 1.325 0 0 1 .2.075.494.494 0 0 1 .116.069.177.177 0 0 1 .037.046zm-3.18 1.614A2.5 2.5 0 0 0 7.18 13.4H2.2a.657.657 0 0 0-.852-.852V8.871a.657.657 0 0 0 .224.045.657.657 0 0 0 .628-.9h4.98a2.5 2.5 0 0 0-2.244 2.695zm-1.8-.935c-.372 0-.673.4-.673.9s.3.9.673.9.673-.4.673-.9-.3-.9-.673-.9z" class="cls-19" transform="translate(219.614 178.557)"/>
                <path id="dollar2-4" d="M16.129 12.506l.026-7.656-13.911.008V3.98h14.78v8.526zm-.451 1.347h-.895l.026-7.653H.9v-.873h14.778v8.526zm-1.318.9H0v-8.08h14.36zm-.9-7.208H.9v6.311h12.562V7.542zm-1.344 5.635a.657.657 0 0 0 .045.224H7.18a2.5 2.5 0 0 0 2.244-2.693A2.5 2.5 0 0 0 7.18 8.019h4.981a.657.657 0 0 0-.045.224.673.673 0 0 0 .673.673.657.657 0 0 0 .224-.045v3.68a.657.657 0 0 0-.9.629zm-.9-3.4c-.372 0-.673.4-.673.9s.3.9.673.9.673-.4.673-.9-.299-.903-.671-.903zm-3.1-.683a.209.209 0 0 1 .017.052.46.46 0 0 1 .009.082v.26a.625.625 0 0 1-.014.093.116.116 0 0 1-.028.053.07.07 0 0 1-.049.017.237.237 0 0 1-.1-.039c-.045-.026-.1-.054-.165-.085a1.582 1.582 0 0 0-.227-.084A1.007 1.007 0 0 0 7.28 9.4a.671.671 0 0 0-.21.029.433.433 0 0 0-.15.081.322.322 0 0 0-.09.124.4.4 0 0 0-.03.154.341.341 0 0 0 .066.212.62.62 0 0 0 .177.157 1.9 1.9 0 0 0 .251.129q.14.06.286.127a2.847 2.847 0 0 1 .286.153 1.136 1.136 0 0 1 .25.2.954.954 0 0 1 .177.28.982.982 0 0 1 .067.38 1.121 1.121 0 0 1-.107.5 1.037 1.037 0 0 1-.289.361 1.255 1.255 0 0 1-.426.217c-.021.006-.043.009-.064.014v.49h-.441v-.432h-.017a1.9 1.9 0 0 1-.349-.03 2.023 2.023 0 0 1-.284-.073 1.25 1.25 0 0 1-.206-.09.584.584 0 0 1-.119-.083.21.21 0 0 1-.052-.1.959.959 0 0 1-.016-.2c0-.058 0-.107.006-.146a.414.414 0 0 1 .018-.1.107.107 0 0 1 .034-.052.083.083 0 0 1 .052-.002.23.23 0 0 1 .111.047 1.969 1.969 0 0 0 .184.1 1.684 1.684 0 0 0 .268.1 1.264 1.264 0 0 0 .36.047.83.83 0 0 0 .241-.032.549.549 0 0 0 .181-.091.394.394 0 0 0 .113-.146.462.462 0 0 0 .039-.194.342.342 0 0 0-.067-.212.666.666 0 0 0-.175-.157 1.76 1.76 0 0 0-.245-.129c-.092-.04-.186-.083-.283-.128a2.576 2.576 0 0 1-.283-.153 1.132 1.132 0 0 1-.245-.2.971.971 0 0 1-.175-.281 1.146 1.146 0 0 1 .03-.848.941.941 0 0 1 .256-.333 1.111 1.111 0 0 1 .39-.19 1.621 1.621 0 0 1 .236-.049v-.468h.441v.464h.052a1.759 1.759 0 0 1 .241.053 1.325 1.325 0 0 1 .2.075.494.494 0 0 1 .116.069.177.177 0 0 1 .037.046zm-3.18 1.614A2.5 2.5 0 0 0 7.18 13.4H2.2a.657.657 0 0 0-.852-.852V8.871a.657.657 0 0 0 .224.045.657.657 0 0 0 .628-.9h4.98a2.5 2.5 0 0 0-2.244 2.695zm-1.8-.935c-.372 0-.673.4-.673.9s.3.9.673.9.673-.4.673-.9-.3-.9-.673-.9z" class="cls-19" transform="translate(311.388 178.557)"/>
                <g id="사각형_1362" class="cls-20">
                    <path d="M0 0H81V60H0z" class="cls-23" transform="translate(345.086 132.515)"/>
                    <path d="M0.5 0.5H80.5V59.5H0.5z" class="cls-24" transform="translate(345.086 132.515)"/>
                </g>
                <g id="사각형_1363" class="cls-20">
                    <path d="M0 0H81V58H0z" class="cls-23" transform="translate(345.086 199.515)"/>
                    <path d="M0.5 0.5H80.5V57.5H0.5z" class="cls-24" transform="translate(345.086 199.515)"/>
                </g>
                <g id="그룹_835" transform="translate(356.816 145.999)">
                    <text id="_-_주택도시기금_-_경찰공제회" class="cls-13" transform="translate(.271 19.516)">
                        <tspan x="0" y="0">- 주택도시기금</tspan><tspan x="0" y="6">- 경찰공제회</tspan>
                    </text>
                    <text id="국내_투자기관" class="cls-13" transform="translate(2.271 3.516)">
                        <tspan x="0" y="0">국내 투자기관</tspan>
                    </text>
                </g>
                <text id="_REAL_BUY_전용_SPC_" class="cls-13" transform="translate(351.087 236.515)">
                    <tspan x="0" y="0">(REAL BUY 전용 SPC)</tspan>
                </text>
                <text id="특정_금전_신탁" class="cls-15" transform="translate(357.087 224.515)">
                    <tspan x="0" y="0">특정 금전 신탁</tspan>
                </text>
                <g id="사각형_1364" class="cls-20">
                    <path d="M0 0H81V37H0z" class="cls-23" transform="translate(345.086 300.515)"/>
                    <path d="M0.5 0.5H80.5V36.5H0.5z" class="cls-24" transform="translate(345.086 300.515)"/>
                </g>
                <text id="개인투자자" class="cls-15" transform="translate(363.087 319.515)">
                    <tspan x="0" y="0">개인투자자</tspan>
                </text>
                <path id="패스_980" fill="none" stroke="#707070" d="M21620.725 2133h-8.178v99.589h8.178" transform="translate(-21276.5 -1987.106)"/>
                <text id="독일_Amazon_물류센터" class="cls-13" transform="translate(26.086 197.515)">
                    <tspan x="0" y="0">독일 Amazon 물류센터</tspan>
                </text>
                <g id="그룹_830" transform="translate(28.509 150.936)">
                    <g id="구성_요소_23_1">
                        <g id="그룹_723" transform="translate(0 35.365)">
                            <path id="패스_590" d="M849.968 961.916H806.2a.3.3 0 0 1 0-.608h43.773a.3.3 0 1 1 0 .608z" class="cls-16" transform="translate(-805.891 -961.308)"/>
                        </g>
                        <g id="그룹_1427" transform="translate(7.754)">
                            <g id="그룹_828">
                                <g id="그룹_724" transform="translate(0 3.907)">
                                    <path id="패스_591" d="M887.224 848.727h-26.132c-.229 0-.414-.132-.414-.3v-31.47c0-.163.186-.3.414-.3h26.132c.229 0 .414.133.414.3v31.47c0 .167-.185.3-.414.3zm-25.718-.592h25.3v-30.878h-25.3z" class="cls-16" transform="translate(-860.677 -816.665)"/>
                                </g>
                                <g id="그룹_725" transform="translate(5.611)">
                                    <path id="패스_592" d="M888.276 805.868H873.2a.333.333 0 0 1-.334-.331v-3.691a.333.333 0 0 1 .334-.331h15.072a.333.333 0 0 1 .334.331v3.691a.333.333 0 0 1-.33.331zm-14.738-.663h14.4v-3.028h-14.4z" class="cls-16" transform="translate(-872.87 -801.514)"/>
                                </g>
                            </g>
                            <g id="그룹_729" transform="translate(2.717 16.215)">
                                <g id="그룹_726">
                                    <path id="패스_593" d="M875.884 847.992h-2.71c-.168 0-.3-.09-.3-.2V830.5c0-.111.136-.2.3-.2h2.71c.168 0 .3.09.3.2v17.292c.004.108-.132.2-.3.2zm-2.406-.4h2.1V830.7h-2.1z" class="cls-16" transform="translate(-872.87 -830.298)"/>
                                </g>
                                <g id="그룹_727" transform="translate(9.244 .049)">
                                    <path id="패스_594" d="M900.906 848.324H898.2c-.168 0-.3-.09-.3-.2v-17.293c0-.111.136-.2.3-.2h2.71c.168 0 .3.09.3.2v17.292c0 .111-.136.201-.304.201zm-2.406-.4h2.1v-16.89h-2.1z" class="cls-16" transform="translate(-897.892 -830.63)"/>
                                </g>
                                <g id="그룹_728" transform="translate(18.207 .049)">
                                    <path id="패스_595" d="M925.168 848.324h-2.71c-.168 0-.3-.09-.3-.2v-17.293c0-.111.136-.2.3-.2h2.71c.168 0 .3.09.3.2v17.292c.004.111-.132.201-.3.201zm-2.406-.4h2.1v-16.89h-2.1z" class="cls-16" transform="translate(-922.154 -830.63)"/>
                                </g>
                            </g>
                            <g id="그룹_736" transform="translate(27.986 21.923)">
                                <g id="그룹_734">
                                    <path id="패스_598" d="M966.169 915.193a.3.3 0 0 1-.3-.3v-10.452a3.3 3.3 0 1 1 6.6 0 .3.3 0 0 1-.608 0 2.69 2.69 0 0 0-5.38 0v10.448a.3.3 0 0 1-.312.304z" class="cls-16" transform="translate(-965.865 -901.143)"/>
                                </g>
                                <g id="그룹_735" transform="translate(4.655 2.981)">
                                    <path id="패스_599" d="M988.969 918.835H987.7a.3.3 0 0 1-.292-.219l-.7-2.409a.3.3 0 0 1 .077-.3l1.333-1.334a.313.313 0 0 1 .43 0l1.333 1.334a.3.3 0 0 1 .077.3l-.7 2.409a.3.3 0 0 1-.289.219zm-1.036-.608h.808l.587-2.018-.991-.991-.991.991z" class="cls-16" transform="translate(-986.7 -914.487)"/>
                                </g>
                            </g>
                        </g>
                    </g>
                </g>
                <g id="그룹_843" transform="translate(354.73 255.083)">
                    <path id="선_450-8" d="M0 0L0 49.757" class="cls-17" transform="translate(2.21)"/>
                    <path id="패스_978-8" d="M21320.213 2067.055l2.211 2.1 2.215-2.1" class="cls-17" transform="translate(-21320.213 -2019.313)"/>
                </g>
                <g id="그룹_844" transform="translate(408.358 255.083)">
                    <path id="선_450-9" d="M0 0L0 49.757" class="cls-17" transform="translate(2.21)"/>
                    <path id="패스_978-9" d="M21320.213 2067.055l2.211 2.1 2.215-2.1" class="cls-17" transform="translate(-21320.213 -2019.313)"/>
                </g>
                <path id="사각형_1369" d="M0 0H42V13H0z" class="cls-4" transform="translate(340.086 272.515)"/>
                <path id="사각형_1370" d="M0 0H34V13H0z" class="cls-4" transform="translate(392.087 272.515)"/>
                <text id="배당지급" class="cls-22" transform="translate(342.087 277.515)">
                    <tspan x="0" y="0">배당지급</tspan>
                </text>
                <text id="투자_100_4" class="cls-22" transform="translate(397.087 277.515)">
                    <tspan x="0" y="0">투자 100%</tspan>
                </text>
                <path id="dollar2-5" d="M16.129 12.506l.026-7.656-13.911.008V3.98h14.78v8.526zm-.451 1.347h-.895l.026-7.653H.9v-.873h14.778v8.526zm-1.318.9H0v-8.08h14.36zm-.9-7.208H.9v6.311h12.562V7.542zm-1.344 5.635a.657.657 0 0 0 .045.224H7.18a2.5 2.5 0 0 0 2.244-2.693A2.5 2.5 0 0 0 7.18 8.019h4.981a.657.657 0 0 0-.045.224.673.673 0 0 0 .673.673.657.657 0 0 0 .224-.045v3.68a.657.657 0 0 0-.9.629zm-.9-3.4c-.372 0-.673.4-.673.9s.3.9.673.9.673-.4.673-.9-.299-.903-.671-.903zm-3.1-.683a.209.209 0 0 1 .017.052.46.46 0 0 1 .009.082v.26a.625.625 0 0 1-.014.093.116.116 0 0 1-.028.053.07.07 0 0 1-.049.017.237.237 0 0 1-.1-.039c-.045-.026-.1-.054-.165-.085a1.582 1.582 0 0 0-.227-.084A1.007 1.007 0 0 0 7.28 9.4a.671.671 0 0 0-.21.029.433.433 0 0 0-.15.081.322.322 0 0 0-.09.124.4.4 0 0 0-.03.154.341.341 0 0 0 .066.212.62.62 0 0 0 .177.157 1.9 1.9 0 0 0 .251.129q.14.06.286.127a2.847 2.847 0 0 1 .286.153 1.136 1.136 0 0 1 .25.2.954.954 0 0 1 .177.28.982.982 0 0 1 .067.38 1.121 1.121 0 0 1-.107.5 1.037 1.037 0 0 1-.289.361 1.255 1.255 0 0 1-.426.217c-.021.006-.043.009-.064.014v.49h-.441v-.432h-.017a1.9 1.9 0 0 1-.349-.03 2.023 2.023 0 0 1-.284-.073 1.25 1.25 0 0 1-.206-.09.584.584 0 0 1-.119-.083.21.21 0 0 1-.052-.1.959.959 0 0 1-.016-.2c0-.058 0-.107.006-.146a.414.414 0 0 1 .018-.1.107.107 0 0 1 .034-.052.083.083 0 0 1 .052-.002.23.23 0 0 1 .111.047 1.969 1.969 0 0 0 .184.1 1.684 1.684 0 0 0 .268.1 1.264 1.264 0 0 0 .36.047.83.83 0 0 0 .241-.032.549.549 0 0 0 .181-.091.394.394 0 0 0 .113-.146.462.462 0 0 0 .039-.194.342.342 0 0 0-.067-.212.666.666 0 0 0-.175-.157 1.76 1.76 0 0 0-.245-.129c-.092-.04-.186-.083-.283-.128a2.576 2.576 0 0 1-.283-.153 1.132 1.132 0 0 1-.245-.2.971.971 0 0 1-.175-.281 1.146 1.146 0 0 1 .03-.848.941.941 0 0 1 .256-.333 1.111 1.111 0 0 1 .39-.19 1.621 1.621 0 0 1 .236-.049v-.468h.441v.464h.052a1.759 1.759 0 0 1 .241.053 1.325 1.325 0 0 1 .2.075.494.494 0 0 1 .116.069.177.177 0 0 1 .037.046zm-3.18 1.614A2.5 2.5 0 0 0 7.18 13.4H2.2a.657.657 0 0 0-.852-.852V8.871a.657.657 0 0 0 .224.045.657.657 0 0 0 .628-.9h4.98a2.5 2.5 0 0 0-2.244 2.695zm-1.8-.935c-.372 0-.673.4-.673.9s.3.9.673.9.673-.4.673-.9-.3-.9-.673-.9z" class="cls-19" transform="translate(374.414 268.673)"/>
            </g>
        </g>
    </g>
</svg>
