<svg xmlns="http://www.w3.org/2000/svg" width="76.503" height="63.077" viewBox="0 0 76.503 63.077">
    <defs>
        <clipPath id="clip-path">
            <path id="사각형_1199" fill="none" d="M0 0H52.741V61.957H0z"/>
        </clipPath>
        <style>
            .cls-2,.cls-4{fill:none;stroke:#0540ff;stroke-width:2px}.cls-4{stroke-linecap:round;stroke-linejoin:round}
        </style>
    </defs>
    <g id="그룹_1790" transform="translate(1)">
        <g id="그룹_1787">
            <g id="그룹_962">
                <g id="그룹_378" transform="translate(15.261)">
                    <g id="그룹_367">
                        <path id="선_326" d="M0 0L7.195 3.568" class="cls-2" transform="translate(29.363 33.816)"/>
                        <path id="선_327" d="M0 0L6.988 3.598" class="cls-2" transform="translate(17.923 28.095)"/>
                        <path id="선_328" d="M0 5.701L7.784 0" class="cls-2" transform="translate(5.953 28.597)"/>
                        <g id="그룹_365" clip-path="url(#clip-path)">
                            <path id="사각형_1195" d="M0 0H7.149V19.485H0z" class="cls-2" transform="translate(.567 41.905)"/>
                            <circle id="타원_72" cx="2.418" cy="2.418" r="2.418" class="cls-2" transform="translate(1.723 33.705)"/>
                            <path id="사각형_1196" d="M0 0H7.149V28.596H0z" class="cls-4" transform="translate(12.079 32.794)"/>
                            <path id="패스_664" d="M28.183 45.8a2.418 2.418 0 1 1-2.418-2.418 2.418 2.418 0 0 1 2.418 2.418z" class="cls-2" transform="translate(-10.111 -18.786)"/>
                            <path id="사각형_1197" d="M0 0H7.149V22.859H0z" class="cls-2" transform="translate(23.592 38.531)"/>
                            <path id="패스_665" d="M48.49 55.918a2.418 2.418 0 1 1-2.418-2.418 2.418 2.418 0 0 1 2.418 2.418z" class="cls-2" transform="translate(-18.906 -23.17)"/>
                            <path id="사각형_1198" d="M0 0H7.149V17.122H0z" class="cls-2" transform="translate(35.104 44.268)"/>
                            <path id="패스_666" d="M68.8 66.038a2.418 2.418 0 1 1-2.418-2.418 2.419 2.419 0 0 1 2.418 2.418z" class="cls-2" transform="translate(-27.701 -27.553)"/>
                            <path id="패스_667" d="M65.065 24.51v13.5a2.222 2.222 0 1 1-4.443 0" class="cls-4" transform="translate(-26.255 -10.615)"/>
                            <path id="선_329" d="M0 0L0 2.505" class="cls-4" transform="translate(38.811 .567)"/>
                            <path id="패스_668" d="M69.93 18.053c-.234-6.936-2.718-12.4-5.751-12.4s-5.517 5.46-5.751 12.395a8.134 8.134 0 0 1 5.751-1.964 8.133 8.133 0 0 1 5.751 1.969z" class="cls-4" transform="translate(-25.304 -2.45)"/>
                            <path id="패스_669" d="M45.115 17.061a11.244 11.244 0 0 1 2.653-.307 8.529 8.529 0 0 1 4.9 1.286c.236-6.929 2.719-12.382 5.75-12.382a13.46 13.46 0 0 0-13.303 11.403z" class="cls-4" transform="translate(-19.539 -2.45)"/>
                            <path id="패스_670" d="M81.872 17.053a13.462 13.462 0 0 0-13.3-11.4c3.034 0 5.519 5.462 5.752 12.4h.008a8.478 8.478 0 0 1 4.919-1.3 11.286 11.286 0 0 1 2.621.3z" class="cls-4" transform="translate(-29.698 -2.45)"/>
                        </g>
                    </g>
                </g>
                <path id="패스_679" fill="none" stroke="#0540ff" stroke-linecap="round" stroke-width="2px" d="M-3.419 0h74.5" transform="translate(3.419 62.077)"/>
            </g>
        </g>
    </g>
</svg>
