<svg xmlns="http://www.w3.org/2000/svg" width="1237.385" height="425.698" viewBox="0 0 1237.385 425.698">
    <defs>
        <style>
            .cls-2{fill:#666}.cls-3{fill:#fff}
        </style>
    </defs>
    <g id="Vector_Smart_Object" opacity="0.16" transform="translate(-48.384 -43.452)">
        <g id="그룹_87" transform="translate(48.384 43.452)">
            <g id="그룹_85" transform="translate(290.791 186.676)">
                <path id="패스_135" d="M849.466 321.541v18.919h-17.639v15.779h-9.452v-37.215H848.2z" class="cls-2" transform="translate(-270.015 -205.505)"/>
                <path id="패스_136" d="M974.014 288.038v90.191h-27.092l-19.548 5.052v-21.455h-14.481v-22.7l-18.282-34.056-18.9 34.056v15.136H865.63v-24.6h-18.283l-1.266-2.517v-18.919h18.281v-68.737l62.388-11.352 15.125 6.3v31.54h15.749z" class="cls-2" transform="translate(-267.896 -213.626)"/>
                <path id="패스_137" d="M651.367 261.369v38.844l-20.153 4.672v71.9h-16.393V362.27h-59.873v-18.277h-5.2l3.308-6.943h27.734l15.749 15.76v-97.74h6.314v-10.728h15.125v8.193h6.922z" class="cls-2" transform="translate(-294.375 -212.178)"/>
                <path id="패스_138" d="M406.069 295.226v85.461h-7.241v-30.272h-29l-27.716 3.785v-8.211h-26.79v-31.843l30.249-4.73v-17.028l7.562-.947v-52.975l17.015-23.65 20.8 23.65v52.976z" class="cls-2" transform="translate(-315.322 -214.816)"/>
            </g>
            <g id="그룹_86">
                <path id="패스_139" d="M1284.42 436.778l-17.521-2.7h-29.653v-40.464l-26.956-21.583h-24.262v28.327h-31v-55.3l-25.608-16.187V351.8h-24.262v-57.344h-23.316l-28.359 4.415v95.861h-35.291l-19.534 5.046v-21.443h-14.5v-22.7l-18.268-34.06-18.9 34.055v15.136H936.9v-24.6h-18.274v18.92h-17.647v15.767h-9.452V258.508h-69.949L790.7 269.231v79.463h-13.234v-8.829l-22.058-5.045h-6.93v-22.074h-28.991l-43.482 10.09v71.9h-16.384v-14.5h-59.867v-18.298H580.22v18.92h-9.453v-6.308l-11.975-10.72v10.721h-6.931V340.5l-5.042-6.939v-67.485h-13.234v-85.77h-17.014v-71.265h-16.386L496.4 43.452V110.3l-5.672 6.937-1.89-39.1-1.259 42.253-4.409 6.31v54.237h-8.192v83.878h-11.343v104.691H444.1v13.874h-5.042v12.614h-16.386v-30.272h-28.987l-27.728 3.783v-8.2h-35.29v-6.935H316.8v8.2h-4.41v-8.2h-30.247v-27.119h-42.222v25.227h-46.634l-4.41 2.522v11.982h-5.671v-11.351l-6.933 2.523v10.721h-6.3v-8.829l-5.674 1.892v27.629h-31l-22.913 24.279v26.977H92.863v-17.534H65.906v39.117l-17.522 6.744h1237.384z" transform="translate(-48.384 -43.452)"/>
                <path id="사각형_9" d="M0 0H52.934V2.759H0z" class="cls-3" transform="translate(785.167 235.435)"/>
                <path id="사각형_10" d="M0 0H52.934V2.76H0z" class="cls-3" transform="translate(785.167 241.11)"/>
                <path id="사각형_11" d="M0 0H52.934V2.76H0z" class="cls-3" transform="translate(785.167 246.787)"/>
                <path id="사각형_12" d="M0 0H52.934V2.76H0z" class="cls-3" transform="translate(785.167 252.463)"/>
                <path id="사각형_13" d="M0 0H52.934V2.759H0z" class="cls-3" transform="translate(785.167 258.139)"/>
                <path id="사각형_14" d="M0 0H52.934V2.76H0z" class="cls-3" transform="translate(785.167 263.815)"/>
                <path id="사각형_15" d="M0 0H52.934V2.76H0z" class="cls-3" transform="translate(785.167 269.49)"/>
                <path id="사각형_16" d="M0 0H52.934V2.76H0z" class="cls-3" transform="translate(785.167 275.167)"/>
                <path id="사각형_17" d="M0 0H52.934V2.76H0z" class="cls-3" transform="translate(785.167 280.842)"/>
                <path id="사각형_18" d="M0 0H52.934V2.76H0z" class="cls-3" transform="translate(785.167 286.519)"/>
                <path id="사각형_19" d="M0 0H52.934V2.76H0z" class="cls-3" transform="translate(785.167 292.194)"/>
                <path id="사각형_20" d="M0 0H52.934V2.759H0z" class="cls-3" transform="translate(785.167 297.871)"/>
                <path id="사각형_21" d="M0 0H52.934V2.76H0z" class="cls-3" transform="translate(785.167 303.546)"/>
                <path id="사각형_22" d="M0 0H52.934V2.76H0z" class="cls-3" transform="translate(785.167 309.222)"/>
                <path id="사각형_23" d="M0 0H52.934V2.759H0z" class="cls-3" transform="translate(785.167 314.899)"/>
                <path id="사각형_24" d="M0 0H52.934V2.76H0z" class="cls-3" transform="translate(785.167 320.574)"/>
                <path id="사각형_25" d="M0 0H22.371V2.046H0z" class="cls-3" transform="translate(673.782 284.037)"/>
                <path id="사각형_26" d="M0 0H22.371V2.047H0z" class="cls-3" transform="translate(673.782 288.247)"/>
                <path id="사각형_27" d="M0 0H22.371V2.046H0z" class="cls-3" transform="translate(673.782 292.457)"/>
                <path id="사각형_28" d="M0 0H22.371V2.047H0z" class="cls-3" transform="translate(673.782 296.667)"/>
                <path id="사각형_29" d="M0 0H22.371V2.047H0z" class="cls-3" transform="translate(673.782 300.877)"/>
                <path id="사각형_30" d="M0 0H22.371V2.047H0z" class="cls-3" transform="translate(673.782 305.087)"/>
                <path id="사각형_31" d="M0 0H22.371V2.048H0z" class="cls-3" transform="translate(673.782 309.296)"/>
                <path id="사각형_32" d="M0 0H22.371V2.047H0z" class="cls-3" transform="translate(673.782 313.507)"/>
                <path id="사각형_33" d="M0 0H22.371V2.048H0z" class="cls-3" transform="translate(673.782 317.716)"/>
                <path id="사각형_34" d="M0 0H22.371V2.047H0z" class="cls-3" transform="translate(673.782 321.926)"/>
                <path id="사각형_35" d="M0 0H22.371V2.047H0z" class="cls-3" transform="translate(673.782 326.136)"/>
                <path id="사각형_36" d="M0 0H22.371V2.047H0z" class="cls-3" transform="translate(673.782 330.345)"/>
                <path id="사각형_37" d="M0 0H22.371V2.047H0z" class="cls-3" transform="translate(673.782 334.556)"/>
                <path id="사각형_38" d="M0 0H22.371V2.047H0z" class="cls-3" transform="translate(673.782 338.766)"/>
                <path id="사각형_39" d="M0 0H22.371V2.046H0z" class="cls-3" transform="translate(673.782 342.976)"/>
                <path id="사각형_40" d="M0 0H22.371V2.047H0z" class="cls-3" transform="translate(673.782 347.185)"/>
                <path id="사각형_41" d="M0 0H22.371V2.046H0z" class="cls-3" transform="translate(347.348 331.337)"/>
                <path id="사각형_42" d="M0 0H22.371V2.047H0z" class="cls-3" transform="translate(347.348 335.547)"/>
                <path id="사각형_43" d="M0 0H22.371V2.046H0z" class="cls-3" transform="translate(347.348 339.757)"/>
                <path id="사각형_44" d="M0 0H22.371V2.047H0z" class="cls-3" transform="translate(347.348 343.967)"/>
                <path id="사각형_45" d="M0 0H22.371V2.047H0z" class="cls-3" transform="translate(347.348 348.177)"/>
                <path id="사각형_46" d="M0 0H22.371V2.047H0z" class="cls-3" transform="translate(347.348 352.387)"/>
                <path id="사각형_47" d="M0 0H22.371V2.047H0z" class="cls-3" transform="translate(347.348 356.596)"/>
                <path id="사각형_48" d="M0 0H22.371V2.047H0z" class="cls-3" transform="translate(347.348 360.807)"/>
                <path id="사각형_49" d="M0 0H22.371V2.048H0z" class="cls-3" transform="translate(347.348 365.016)"/>
                <path id="사각형_50" d="M0 0H22.371V2.047H0z" class="cls-3" transform="translate(347.348 369.226)"/>
                <path id="사각형_51" d="M0 0H22.371V2.047H0z" class="cls-3" transform="translate(347.348 373.436)"/>
                <path id="사각형_52" d="M0 0H22.371V2.047H0z" class="cls-3" transform="translate(347.348 377.645)"/>
                <path id="사각형_53" d="M0 0H22.371V2.047H0z" class="cls-3" transform="translate(347.348 381.855)"/>
                <path id="사각형_54" d="M0 0H22.371V2.048H0z" class="cls-3" transform="translate(347.348 386.065)"/>
                <path id="사각형_55" d="M0 0H22.371V2.046H0z" class="cls-3" transform="translate(347.348 390.276)"/>
                <path id="사각형_56" d="M0 0H22.371V2.047H0z" class="cls-3" transform="translate(347.348 394.485)"/>
                <path id="사각형_57" d="M0 0H31.35V2.427H0z" class="cls-3" transform="translate(282.445 326.053)"/>
                <path id="사각형_58" d="M0 0H31.35V2.429H0z" class="cls-3" transform="translate(282.445 331.047)"/>
                <path id="사각형_59" d="M0 0H31.35V2.426H0z" class="cls-3" transform="translate(282.445 336.041)"/>
                <path id="사각형_60" d="M0 0H31.35V2.429H0z" class="cls-3" transform="translate(282.445 341.035)"/>
                <path id="사각형_61" d="M0 0H31.35V2.428H0z" class="cls-3" transform="translate(282.445 346.029)"/>
                <path id="사각형_62" d="M0 0H31.35V2.429H0z" class="cls-3" transform="translate(282.445 351.022)"/>
                <path id="사각형_63" d="M0 0H31.35V2.428H0z" class="cls-3" transform="translate(282.445 356.016)"/>
                <path id="사각형_64" d="M0 0H31.35V2.429H0z" class="cls-3" transform="translate(282.445 361.009)"/>
                <path id="사각형_65" d="M0 0H31.35V2.429H0z" class="cls-3" transform="translate(282.445 366.003)"/>
                <path id="사각형_66" d="M0 0H31.35V2.428H0z" class="cls-3" transform="translate(282.445 370.997)"/>
                <path id="사각형_67" d="M0 0H31.35V2.429H0z" class="cls-3" transform="translate(282.445 375.99)"/>
                <path id="사각형_68" d="M0 0H31.35V2.428H0z" class="cls-3" transform="translate(282.445 380.984)"/>
                <path id="사각형_69" d="M0 0H31.35V2.429H0z" class="cls-3" transform="translate(282.445 385.977)"/>
                <path id="사각형_70" d="M0 0H31.35V2.428H0z" class="cls-3" transform="translate(282.445 390.972)"/>
                <path id="사각형_71" d="M0 0H31.35V2.428H0z" class="cls-3" transform="translate(282.445 395.966)"/>
                <path id="사각형_72" d="M0 0H31.35V2.429H0z" class="cls-3" transform="translate(282.445 400.958)"/>
                <path id="사각형_73" d="M0 0H31.35V2.426H0z" class="cls-3" transform="translate(151.368 322.27)"/>
                <path id="사각형_74" d="M0 0H31.35V2.429H0z" class="cls-3" transform="translate(151.368 327.262)"/>
                <path id="사각형_75" d="M0 0H31.35V2.427H0z" class="cls-3" transform="translate(151.368 332.257)"/>
                <path id="사각형_76" d="M0 0H31.35V2.429H0z" class="cls-3" transform="translate(151.368 337.251)"/>
                <path id="사각형_77" d="M0 0H31.35V2.428H0z" class="cls-3" transform="translate(151.368 342.245)"/>
                <path id="사각형_78" d="M0 0H31.35V2.429H0z" class="cls-3" transform="translate(151.368 347.238)"/>
                <path id="사각형_79" d="M0 0H31.35V2.428H0z" class="cls-3" transform="translate(151.368 352.232)"/>
                <path id="사각형_80" d="M0 0H31.35V2.429H0z" class="cls-3" transform="translate(151.368 357.225)"/>
                <path id="사각형_81" d="M0 0H31.35V2.429H0z" class="cls-3" transform="translate(151.368 362.219)"/>
                <path id="사각형_82" d="M0 0H31.35V2.428H0z" class="cls-3" transform="translate(151.368 367.213)"/>
                <path id="사각형_83" d="M0 0H31.35V2.429H0z" class="cls-3" transform="translate(151.368 372.206)"/>
                <path id="사각형_84" d="M0 0H31.35V2.428H0z" class="cls-3" transform="translate(151.368 377.2)"/>
                <path id="사각형_85" d="M0 0H31.35V2.429H0z" class="cls-3" transform="translate(151.368 382.193)"/>
                <path id="사각형_86" d="M0 0H31.35V2.427H0z" class="cls-3" transform="translate(151.368 387.188)"/>
                <path id="사각형_87" d="M0 0H31.35V2.428H0z" class="cls-3" transform="translate(151.368 392.182)"/>
                <path id="사각형_88" d="M0 0H31.35V2.429H0z" class="cls-3" transform="translate(151.368 397.174)"/>
                <path id="사각형_89" d="M0 0H28.359V3.329H0z" class="cls-3" transform="translate(199.732 292.046)"/>
                <path id="사각형_90" d="M0 0H28.359V3.332H0z" class="cls-3" transform="translate(199.732 298.895)"/>
                <path id="사각형_91" d="M0 0H28.359V3.329H0z" class="cls-3" transform="translate(199.732 305.746)"/>
                <path id="사각형_92" d="M0 0H28.359V3.332H0z" class="cls-3" transform="translate(199.732 312.595)"/>
                <path id="사각형_93" d="M0 0H28.359V3.33H0z" class="cls-3" transform="translate(199.732 319.446)"/>
                <path id="사각형_94" d="M0 0H28.359V3.331H0z" class="cls-3" transform="translate(199.732 326.295)"/>
                <path id="사각형_95" d="M0 0H28.359V3.33H0z" class="cls-3" transform="translate(199.732 333.145)"/>
                <path id="사각형_96" d="M0 0H28.359V3.333H0z" class="cls-3" transform="translate(199.732 339.994)"/>
                <path id="사각형_97" d="M0 0H28.359V3.332H0z" class="cls-3" transform="translate(199.732 346.843)"/>
                <path id="사각형_98" d="M0 0H28.359V3.33H0z" class="cls-3" transform="translate(199.732 353.695)"/>
                <path id="사각형_99" d="M0 0H28.359V3.331H0z" class="cls-3" transform="translate(199.732 360.544)"/>
                <path id="사각형_100" d="M0 0H28.359V3.331H0z" class="cls-3" transform="translate(199.732 367.394)"/>
                <path id="사각형_101" d="M0 0H28.359V3.333H0z" class="cls-3" transform="translate(199.732 374.243)"/>
                <path id="사각형_102" d="M0 0H28.359V3.331H0z" class="cls-3" transform="translate(199.732 381.094)"/>
                <path id="사각형_103" d="M0 0H28.359V3.33H0z" class="cls-3" transform="translate(199.732 387.944)"/>
                <path id="사각형_104" d="M0 0H28.359V3.332H0z" class="cls-3" transform="translate(199.732 394.792)"/>
                <path id="사각형_105" d="M0 0H14.336V2.427H0z" class="cls-3" transform="translate(244.87 319.37)"/>
                <path id="사각형_106" d="M0 0H14.336V2.429H0z" class="cls-3" transform="translate(244.87 324.363)"/>
                <path id="사각형_107" d="M0 0H14.336V2.426H0z" class="cls-3" transform="translate(244.87 329.358)"/>
                <path id="사각형_108" d="M0 0H14.336V2.429H0z" class="cls-3" transform="translate(244.87 334.35)"/>
                <path id="사각형_109" d="M0 0H14.336V2.428H0z" class="cls-3" transform="translate(244.87 339.345)"/>
                <path id="사각형_110" d="M0 0H14.336V2.429H0z" class="cls-3" transform="translate(244.87 344.338)"/>
                <path id="사각형_111" d="M0 0H14.336V2.427H0z" class="cls-3" transform="translate(244.87 349.332)"/>
                <path id="사각형_112" d="M0 0H14.336V2.429H0z" class="cls-3" transform="translate(244.87 354.326)"/>
                <path id="사각형_113" d="M0 0H14.336V2.429H0z" class="cls-3" transform="translate(244.87 359.318)"/>
                <path id="사각형_114" d="M0 0H14.336V2.428H0z" class="cls-3" transform="translate(244.87 364.313)"/>
                <path id="사각형_115" d="M0 0H14.336V2.429H0z" class="cls-3" transform="translate(244.87 369.307)"/>
                <path id="사각형_116" d="M0 0H14.336V2.428H0z" class="cls-3" transform="translate(244.87 374.3)"/>
                <path id="사각형_117" d="M0 0H14.336V2.429H0z" class="cls-3" transform="translate(244.87 379.294)"/>
                <path id="사각형_118" d="M0 0H14.336V2.428H0z" class="cls-3" transform="translate(244.87 384.288)"/>
                <path id="사각형_119" d="M0 0H14.336V2.428H0z" class="cls-3" transform="translate(244.87 389.282)"/>
                <path id="사각형_120" d="M0 0H14.336V2.429H0z" class="cls-3" transform="translate(244.87 394.275)"/>
                <path id="사각형_121" d="M0 0H4.726V6.375H0z" class="cls-3" transform="translate(1009.04 259.856)"/>
                <path id="사각형_122" d="M0 0H4.726V6.374H0z" class="cls-3" transform="translate(1009.04 272.969)"/>
                <path id="사각형_123" d="M0 0H4.726V6.374H0z" class="cls-3" transform="translate(1009.04 286.079)"/>
                <path id="사각형_124" d="M0 0H4.726V6.375H0z" class="cls-3" transform="translate(1009.04 299.191)"/>
                <path id="사각형_125" d="M0 0H4.726V6.374H0z" class="cls-3" transform="translate(1009.04 312.304)"/>
                <path id="사각형_126" d="M0 0H4.726V6.374H0z" class="cls-3" transform="translate(1009.04 325.414)"/>
                <path id="사각형_127" d="M0 0H4.726V6.374H0z" class="cls-3" transform="translate(1009.04 338.528)"/>
                <path id="사각형_128" d="M0 0H4.726V6.374H0z" class="cls-3" transform="translate(1019.752 258.304)"/>
                <path id="사각형_129" d="M0 0H4.726V6.374H0z" class="cls-3" transform="translate(1019.752 271.417)"/>
                <path id="사각형_130" d="M0 0H4.726V6.374H0z" class="cls-3" transform="translate(1019.752 284.527)"/>
                <path id="사각형_131" d="M0 0H4.726V6.374H0z" class="cls-3" transform="translate(1019.752 297.64)"/>
                <path id="사각형_132" d="M0 0H4.726V6.374H0z" class="cls-3" transform="translate(1019.752 310.752)"/>
                <path id="사각형_133" d="M0 0H4.726V6.374H0z" class="cls-3" transform="translate(1019.752 323.862)"/>
                <path id="사각형_134" d="M0 0H4.726V6.375H0z" class="cls-3" transform="translate(1019.752 336.975)"/>
                <path id="사각형_135" d="M0 0H2.657V4.152H0z" class="cls-3" transform="translate(927.52 312.569)"/>
                <path id="사각형_136" d="M0 0H2.657V4.153H0z" class="cls-3" transform="translate(927.52 321.112)"/>
                <path id="사각형_137" d="M0 0H2.657V4.152H0z" class="cls-3" transform="translate(927.52 329.653)"/>
                <path id="사각형_138" d="M0 0H2.657V4.152H0z" class="cls-3" transform="translate(927.52 338.196)"/>
                <path id="사각형_139" d="M0 0H2.657V4.152H0z" class="cls-3" transform="translate(927.52 346.738)"/>
                <path id="사각형_140" d="M0 0H2.657V4.153H0z" class="cls-3" transform="translate(927.52 355.279)"/>
                <path id="사각형_141" d="M0 0H2.657V4.152H0z" class="cls-3" transform="translate(927.52 363.821)"/>
                <path id="사각형_142" d="M0 0H2.659V4.152H0z" class="cls-3" transform="translate(921.848 312.569)"/>
                <path id="사각형_143" d="M0 0H2.659V4.153H0z" class="cls-3" transform="translate(921.848 321.112)"/>
                <path id="사각형_144" d="M0 0H2.659V4.152H0z" class="cls-3" transform="translate(921.848 329.653)"/>
                <path id="사각형_145" d="M0 0H2.659V4.152H0z" class="cls-3" transform="translate(921.848 338.196)"/>
                <path id="사각형_146" d="M0 0H2.659V4.152H0z" class="cls-3" transform="translate(921.848 346.738)"/>
                <path id="사각형_147" d="M0 0H2.659V4.153H0z" class="cls-3" transform="translate(921.848 355.279)"/>
                <path id="사각형_148" d="M0 0H2.659V4.152H0z" class="cls-3" transform="translate(921.848 363.821)"/>
                <path id="사각형_149" d="M0 0H2.659V4.152H0z" class="cls-3" transform="translate(916.176 312.569)"/>
                <path id="사각형_150" d="M0 0H2.659V4.153H0z" class="cls-3" transform="translate(916.176 321.112)"/>
                <path id="사각형_151" d="M0 0H2.659V4.152H0z" class="cls-3" transform="translate(916.176 329.653)"/>
                <path id="사각형_152" d="M0 0H2.659V4.152H0z" class="cls-3" transform="translate(916.176 338.196)"/>
                <path id="사각형_153" d="M0 0H2.659V4.152H0z" class="cls-3" transform="translate(916.176 346.738)"/>
                <path id="사각형_154" d="M0 0H2.659V4.153H0z" class="cls-3" transform="translate(916.176 355.279)"/>
                <path id="사각형_155" d="M0 0H2.659V4.152H0z" class="cls-3" transform="translate(916.176 363.821)"/>
                <path id="사각형_156" d="M0 0H8.269V4.153H0z" class="cls-3" transform="translate(873.948 349.092)"/>
                <path id="사각형_157" d="M0 0H8.269V4.152H0z" class="cls-3" transform="translate(873.948 357.635)"/>
                <path id="사각형_158" d="M0 0H8.269V4.152H0z" class="cls-3" transform="translate(873.948 366.175)"/>
                <path id="사각형_159" d="M0 0H8.269V4.152H0z" class="cls-3" transform="translate(873.948 374.718)"/>
                <path id="사각형_160" d="M0 0H8.269V4.152H0z" class="cls-3" transform="translate(873.948 383.26)"/>
                <path id="사각형_161" d="M0 0H8.269V4.152H0z" class="cls-3" transform="translate(873.948 391.802)"/>
                <path id="사각형_162" d="M0 0H8.269V4.152H0z" class="cls-3" transform="translate(873.948 400.344)"/>
                <path id="사각형_163" d="M0 0H8.27V4.153H0z" class="cls-3" transform="translate(856.306 349.092)"/>
                <path id="사각형_164" d="M0 0H8.27V4.152H0z" class="cls-3" transform="translate(856.306 357.635)"/>
                <path id="사각형_165" d="M0 0H8.27V4.152H0z" class="cls-3" transform="translate(856.306 366.175)"/>
                <path id="사각형_166" d="M0 0H8.27V4.152H0z" class="cls-3" transform="translate(856.306 374.718)"/>
                <path id="사각형_167" d="M0 0H8.27V4.152H0z" class="cls-3" transform="translate(856.306 383.26)"/>
                <path id="사각형_168" d="M0 0H8.27V4.152H0z" class="cls-3" transform="translate(856.306 391.802)"/>
                <path id="사각형_169" d="M0 0H8.27V4.152H0z" class="cls-3" transform="translate(856.306 400.344)"/>
                <path id="사각형_170" d="M0 0H8.269V4.153H0z" class="cls-3" transform="translate(838.667 349.092)"/>
                <path id="사각형_171" d="M0 0H8.269V4.152H0z" class="cls-3" transform="translate(838.667 357.635)"/>
                <path id="사각형_172" d="M0 0H8.269V4.152H0z" class="cls-3" transform="translate(838.667 366.175)"/>
                <path id="사각형_173" d="M0 0H8.269V4.152H0z" class="cls-3" transform="translate(838.667 374.718)"/>
                <path id="사각형_174" d="M0 0H8.269V4.152H0z" class="cls-3" transform="translate(838.667 383.26)"/>
                <path id="사각형_175" d="M0 0H8.269V4.152H0z" class="cls-3" transform="translate(838.667 391.802)"/>
                <path id="사각형_176" d="M0 0H8.269V4.152H0z" class="cls-3" transform="translate(838.667 400.344)"/>
                <path id="사각형_177" d="M0 0H5.025V4.152H0z" class="cls-3" transform="translate(603.063 342.155)"/>
                <path id="사각형_178" d="M0 0H5.025V4.152H0z" class="cls-3" transform="translate(603.063 350.698)"/>
                <path id="사각형_179" d="M0 0H5.025V4.152H0z" class="cls-3" transform="translate(603.063 359.238)"/>
                <path id="사각형_180" d="M0 0H5.025V4.152H0z" class="cls-3" transform="translate(603.063 367.781)"/>
                <path id="사각형_181" d="M0 0H5.025V4.152H0z" class="cls-3" transform="translate(603.063 376.323)"/>
                <path id="사각형_182" d="M0 0H5.025V4.152H0z" class="cls-3" transform="translate(603.063 384.865)"/>
                <path id="사각형_183" d="M0 0H5.025V4.152H0z" class="cls-3" transform="translate(603.063 393.407)"/>
                <path id="사각형_184" d="M0 0H5.025V4.152H0z" class="cls-3" transform="translate(592.342 342.155)"/>
                <path id="사각형_185" d="M0 0H5.025V4.152H0z" class="cls-3" transform="translate(592.342 350.698)"/>
                <path id="사각형_186" d="M0 0H5.025V4.152H0z" class="cls-3" transform="translate(592.342 359.238)"/>
                <path id="사각형_187" d="M0 0H5.025V4.152H0z" class="cls-3" transform="translate(592.342 367.781)"/>
                <path id="사각형_188" d="M0 0H5.025V4.152H0z" class="cls-3" transform="translate(592.342 376.323)"/>
                <path id="사각형_189" d="M0 0H5.025V4.152H0z" class="cls-3" transform="translate(592.342 384.865)"/>
                <path id="사각형_190" d="M0 0H5.025V4.152H0z" class="cls-3" transform="translate(592.342 393.407)"/>
                <path id="사각형_191" d="M0 0H5.026V4.152H0z" class="cls-3" transform="translate(581.62 342.155)"/>
                <path id="사각형_192" d="M0 0H5.026V4.152H0z" class="cls-3" transform="translate(581.62 350.698)"/>
                <path id="사각형_193" d="M0 0H5.026V4.152H0z" class="cls-3" transform="translate(581.62 359.238)"/>
                <path id="사각형_194" d="M0 0H5.026V4.152H0z" class="cls-3" transform="translate(581.62 367.781)"/>
                <path id="사각형_195" d="M0 0H5.026V4.152H0z" class="cls-3" transform="translate(581.62 376.323)"/>
                <path id="사각형_196" d="M0 0H5.026V4.152H0z" class="cls-3" transform="translate(581.62 384.865)"/>
                <path id="사각형_197" d="M0 0H5.026V4.152H0z" class="cls-3" transform="translate(581.62 393.407)"/>
                <path id="사각형_198" d="M0 0H5.025V4.152H0z" class="cls-3" transform="translate(571.562 341.58)"/>
                <path id="사각형_199" d="M0 0H5.025V4.152H0z" class="cls-3" transform="translate(571.562 350.123)"/>
                <path id="사각형_200" d="M0 0H5.025V4.152H0z" class="cls-3" transform="translate(571.562 358.664)"/>
                <path id="사각형_201" d="M0 0H5.025V4.152H0z" class="cls-3" transform="translate(571.562 367.207)"/>
                <path id="사각형_202" d="M0 0H5.025V4.153H0z" class="cls-3" transform="translate(571.562 375.748)"/>
                <path id="사각형_203" d="M0 0H5.025V4.152H0z" class="cls-3" transform="translate(571.562 384.29)"/>
                <path id="사각형_204" d="M0 0H5.025V4.153H0z" class="cls-3" transform="translate(571.562 392.832)"/>
                <path id="사각형_205" d="M0 0H5.026V4.152H0z" class="cls-3" transform="translate(560.841 341.58)"/>
                <path id="사각형_206" d="M0 0H5.026V4.152H0z" class="cls-3" transform="translate(560.841 350.123)"/>
                <path id="사각형_207" d="M0 0H5.026V4.152H0z" class="cls-3" transform="translate(560.841 358.664)"/>
                <path id="사각형_208" d="M0 0H5.026V4.152H0z" class="cls-3" transform="translate(560.841 367.207)"/>
                <path id="사각형_209" d="M0 0H5.026V4.153H0z" class="cls-3" transform="translate(560.841 375.748)"/>
                <path id="사각형_210" d="M0 0H5.026V4.152H0z" class="cls-3" transform="translate(560.841 384.29)"/>
                <path id="사각형_211" d="M0 0H5.026V4.153H0z" class="cls-3" transform="translate(560.841 392.832)"/>
                <path id="사각형_212" d="M0 0H5.025V4.152H0z" class="cls-3" transform="translate(550.12 341.58)"/>
                <path id="사각형_213" d="M0 0H5.025V4.152H0z" class="cls-3" transform="translate(550.12 350.123)"/>
                <path id="사각형_214" d="M0 0H5.025V4.152H0z" class="cls-3" transform="translate(550.12 358.664)"/>
                <path id="사각형_215" d="M0 0H5.025V4.152H0z" class="cls-3" transform="translate(550.12 367.207)"/>
                <path id="사각형_216" d="M0 0H5.025V4.153H0z" class="cls-3" transform="translate(550.12 375.748)"/>
                <path id="사각형_217" d="M0 0H5.025V4.152H0z" class="cls-3" transform="translate(550.12 384.29)"/>
                <path id="사각형_218" d="M0 0H5.025V4.153H0z" class="cls-3" transform="translate(550.12 392.832)"/>
                <path id="사각형_219" d="M0 0H5.025V4.152H0z" class="cls-3" transform="translate(494.036 300.873)"/>
                <path id="사각형_220" d="M0 0H5.025V4.152H0z" class="cls-3" transform="translate(494.036 309.416)"/>
                <path id="사각형_221" d="M0 0H5.025V4.152H0z" class="cls-3" transform="translate(494.036 317.957)"/>
                <path id="사각형_222" d="M0 0H5.025V4.153H0z" class="cls-3" transform="translate(494.036 326.498)"/>
                <path id="사각형_223" d="M0 0H5.025V4.153H0z" class="cls-3" transform="translate(494.036 335.04)"/>
                <path id="사각형_224" d="M0 0H5.025V4.152H0z" class="cls-3" transform="translate(494.036 343.582)"/>
                <path id="사각형_225" d="M0 0H5.025V4.152H0z" class="cls-3" transform="translate(494.036 352.125)"/>
                <path id="사각형_226" d="M0 0H5.026V4.152H0z" class="cls-3" transform="translate(485.204 292.49)"/>
                <path id="사각형_227" d="M0 0H5.026V4.153H0z" class="cls-3" transform="translate(485.204 301.032)"/>
                <path id="사각형_228" d="M0 0H5.026V4.152H0z" class="cls-3" transform="translate(485.204 309.573)"/>
                <path id="사각형_229" d="M0 0H5.026V4.153H0z" class="cls-3" transform="translate(485.204 318.116)"/>
                <path id="사각형_230" d="M0 0H5.026V4.152H0z" class="cls-3" transform="translate(485.204 326.658)"/>
                <path id="사각형_231" d="M0 0H5.026V4.152H0z" class="cls-3" transform="translate(485.204 335.2)"/>
                <path id="사각형_232" d="M0 0H5.026V4.152H0z" class="cls-3" transform="translate(485.204 343.742)"/>
                <path id="사각형_233" d="M0 0H4.711V3.207H0z" class="cls-3" transform="translate(379.813 359.525)"/>
                <path id="사각형_234" d="M0 0H4.711V3.207H0z" class="cls-3" transform="translate(379.813 366.122)"/>
                <path id="사각형_235" d="M0 0H4.711V3.207H0z" class="cls-3" transform="translate(379.813 372.719)"/>
                <path id="사각형_236" d="M0 0H4.711V3.207H0z" class="cls-3" transform="translate(379.813 379.317)"/>
                <path id="사각형_237" d="M0 0H4.711V3.207H0z" class="cls-3" transform="translate(379.813 385.914)"/>
                <path id="사각형_238" d="M0 0H4.711V3.206H0z" class="cls-3" transform="translate(379.813 392.511)"/>
                <path id="사각형_239" d="M0 0H4.711V3.207H0z" class="cls-3" transform="translate(379.813 399.108)"/>
                <path id="사각형_240" d="M0 0H4.711V3.207H0z" class="cls-3" transform="translate(388.322 359.865)"/>
                <path id="사각형_241" d="M0 0H4.711V3.207H0z" class="cls-3" transform="translate(388.322 366.463)"/>
                <path id="사각형_242" d="M0 0H4.711V3.208H0z" class="cls-3" transform="translate(388.322 373.059)"/>
                <path id="사각형_243" d="M0 0H4.711V3.207H0z" class="cls-3" transform="translate(388.322 379.657)"/>
                <path id="사각형_244" d="M0 0H4.711V3.207H0z" class="cls-3" transform="translate(388.322 386.253)"/>
                <path id="사각형_245" d="M0 0H4.711V3.207H0z" class="cls-3" transform="translate(388.322 392.851)"/>
                <path id="사각형_246" d="M0 0H4.711V3.207H0z" class="cls-3" transform="translate(388.322 399.448)"/>
                <path id="사각형_247" d="M0 0H4.712V3.207H0z" class="cls-3" transform="translate(397.143 359.526)"/>
                <path id="사각형_248" d="M0 0H4.712V3.207H0z" class="cls-3" transform="translate(397.143 366.123)"/>
                <path id="사각형_249" d="M0 0H4.712V3.207H0z" class="cls-3" transform="translate(397.143 372.72)"/>
                <path id="사각형_250" d="M0 0H4.712V3.207H0z" class="cls-3" transform="translate(397.143 379.318)"/>
                <path id="사각형_251" d="M0 0H4.712V3.207H0z" class="cls-3" transform="translate(397.143 385.914)"/>
                <path id="사각형_252" d="M0 0H4.712V3.207H0z" class="cls-3" transform="translate(397.143 392.512)"/>
                <path id="사각형_253" d="M0 0H4.712V3.207H0z" class="cls-3" transform="translate(397.143 399.109)"/>
                <path id="사각형_254" d="M0 0H3.161V15.299H0z" class="cls-3" transform="translate(475.499 144.998)"/>
                <path id="사각형_255" d="M0 0H3.161V15.294H0z" class="cls-3" transform="translate(475.499 176.469)"/>
                <path id="사각형_256" d="M0 0H3.161V15.299H0z" class="cls-3" transform="translate(475.499 207.931)"/>
                <path id="사각형_257" d="M0 0H3.161V15.295H0z" class="cls-3" transform="translate(475.499 239.401)"/>
                <path id="사각형_258" d="M0 0H3.161V15.295H0z" class="cls-3" transform="translate(475.499 270.867)"/>
                <path id="사각형_259" d="M0 0H3.161V15.295H0z" class="cls-3" transform="translate(475.499 302.334)"/>
                <path id="사각형_260" d="M0 0H3.161V15.299H0z" class="cls-3" transform="translate(475.499 333.8)"/>
                <path id="사각형_261" d="M0 0H3.161V15.299H0z" class="cls-3" transform="translate(466.676 144.998)"/>
                <path id="사각형_262" d="M0 0H3.161V15.294H0z" class="cls-3" transform="translate(466.676 176.469)"/>
                <path id="사각형_263" d="M0 0H3.161V15.299H0z" class="cls-3" transform="translate(466.676 207.931)"/>
                <path id="사각형_264" d="M0 0H3.161V15.295H0z" class="cls-3" transform="translate(466.676 239.401)"/>
                <path id="사각형_265" d="M0 0H3.161V15.295H0z" class="cls-3" transform="translate(466.676 270.867)"/>
                <path id="사각형_266" d="M0 0H3.161V15.295H0z" class="cls-3" transform="translate(466.676 302.334)"/>
                <path id="사각형_267" d="M0 0H3.161V15.299H0z" class="cls-3" transform="translate(466.676 333.8)"/>
                <path id="사각형_268" d="M0 0H3.16V15.299H0z" class="cls-3" transform="translate(432.579 145.035)"/>
                <path id="사각형_269" d="M0 0H3.16V15.293H0z" class="cls-3" transform="translate(432.579 176.506)"/>
                <path id="사각형_270" d="M0 0H3.16V15.299H0z" class="cls-3" transform="translate(432.579 207.967)"/>
                <path id="사각형_271" d="M0 0H3.16V15.295H0z" class="cls-3" transform="translate(432.579 239.437)"/>
                <path id="사각형_272" d="M0 0H3.16V15.295H0z" class="cls-3" transform="translate(432.579 270.904)"/>
                <path id="사각형_273" d="M0 0H3.16V15.295H0z" class="cls-3" transform="translate(432.579 302.371)"/>
                <path id="사각형_274" d="M0 0H3.16V15.299H0z" class="cls-3" transform="translate(432.579 333.837)"/>
                <path id="사각형_275" d="M0 0H3.161V15.295H0z" class="cls-3" transform="translate(421.867 239.639)"/>
                <path id="사각형_276" d="M0 0H3.161V15.295H0z" class="cls-3" transform="translate(421.867 271.104)"/>
                <path id="사각형_277" d="M0 0H3.161V15.295H0z" class="cls-3" transform="translate(421.867 302.571)"/>
                <path id="사각형_278" d="M0 0H3.161V15.3H0z" class="cls-3" transform="translate(421.867 334.037)"/>
                <path id="사각형_279" d="M0 0H3.161V23.537H0z" class="cls-3" transform="translate(447.072 76.991)"/>
                <path id="사각형_280" d="M0 0H3.161V23.53H0z" class="cls-3" transform="translate(447.072 125.411)"/>
                <path id="사각형_281" d="M0 0H3.161V23.538H0z" class="cls-3" transform="translate(447.072 173.816)"/>
                <path id="사각형_282" d="M0 0H3.161V23.532H0z" class="cls-3" transform="translate(447.072 222.234)"/>
                <path id="사각형_283" d="M0 0H3.161V23.532H0z" class="cls-3" transform="translate(447.072 270.647)"/>
                <path id="사각형_284" d="M0 0H3.161V23.532H0z" class="cls-3" transform="translate(447.072 319.059)"/>
                <path id="사각형_285" d="M0 0H3.161V23.539H0z" class="cls-3" transform="translate(447.072 367.471)"/>
            </g>
        </g>
    </g>
</svg>
