<svg xmlns="http://www.w3.org/2000/svg" width="575.735" height="220" viewBox="0 0 575.735 220">
    <defs>
        <clipPath id="clip-path">
            <path id="사각형_1200" d="M0 0H85.177V93.13H0z" class="cls-1"/>
        </clipPath>
        <clipPath id="clip-path-2">
            <path id="사각형_1193" fill="none" stroke="#0540ff" d="M0 0H79.097V82.206H0z"/>
        </clipPath>
        <clipPath id="clip-path-3">
            <path id="사각형_1199" d="M0 0H83.083V97.601H0z" class="cls-1"/>
        </clipPath>
        <style>
            .cls-1,.cls-11,.cls-4,.cls-5,.cls-9{fill:none}.cls-4,.cls-5,.cls-9{stroke:#0540ff}.cls-4,.cls-5{stroke-linecap:round}.cls-4{stroke-linejoin:round}.cls-4,.cls-5,.cls-9{stroke-width:2px}.cls-6,.cls-7{fill:#0540ff}.cls-6{font-size:16px;font-family:NanumSquare_acB,NanumSquare_ac}.cls-7{font-size:12px;font-family:NanumSquare_acR,NanumSquare_ac}.cls-11{stroke:#a4a4a4}
        </style>
    </defs>
    <g id="그룹_1152" transform="translate(-307 -1551)">
        <g id="그룹_1149">
            <g id="그룹_960" transform="translate(764.369 1555)">
                <g id="그룹_379" transform="translate(15.629)">
                    <g id="그룹_370">
                        <g id="그룹_369" clip-path="url(#clip-path)">
                            <path id="패스_671" d="M70.3 40.089h10.38a2.417 2.417 0 0 1 2.42 2.418v47.95" class="cls-4" transform="translate(-7.518 -4.287)"/>
                            <path id="패스_672" d="M10.746 90.456V42.507a2.417 2.417 0 0 1 2.418-2.418h10.5" class="cls-4" transform="translate(-1.149 -4.287)"/>
                            <path id="패스_673" d="M49.287 97.623h35.1v.217a4.836 4.836 0 0 1-4.837 4.836H5.837A4.836 4.836 0 0 1 1 97.84v-.217h48.287z" class="cls-4" transform="translate(-.107 -10.439)"/>
                            <path id="패스_674" d="M58.659 50.988h13.767v36.22h-56.2v-36.22h13.887" class="cls-4" transform="translate(-1.735 -5.452)"/>
                            <path id="패스_675" d="M61.75 8.882C54.523.724 46.571.9 44.991 1.035 43.412.9 35.455.724 28.231 8.882c-8.071 9.109-6.639 22.247-2.084 28.5s6.247 10.929 6.247 14.572a7.754 7.754 0 0 0 .464 3.022h24.26a7.609 7.609 0 0 0 .467-3.022c0-3.643 1.691-8.327 6.246-14.572s5.986-19.391-2.081-28.5z" class="cls-4" transform="translate(-2.401 -.107)"/>
                            <path id="패스_676" d="M33.641 65.263v7.987a9.981 9.981 0 0 0 9.982 9.979h4.656a9.982 9.982 0 0 0 9.984-9.979v-7.987" class="cls-4" transform="translate(-3.597 -6.979)"/>
                            <path id="패스_677" d="M58.131 21.269l-6.11 16.025-5.612-16.025L40.3 37.294l-5.614-16.025" class="cls-4" transform="translate(-3.709 -2.274)"/>
                            <path id="선_330" d="M0 0L6.11 0" class="cls-4" transform="translate(26.613 24.378)"/>
                            <path id="선_331" d="M0 0L6.11 0" class="cls-4" transform="translate(52.802 24.378)"/>
                        </g>
                    </g>
                </g>
                <path id="패스_678" d="M-3.419 0h117.366" class="cls-5" transform="translate(3.419 93.325)"/>
            </g>
            <g id="그룹_957" transform="translate(0 47)">
                <text id="자본의_효율화" class="cls-6" transform="translate(778 1644)">
                    <tspan x="0" y="0">자본의 효율화</tspan>
                </text>
                <text id="불필요한_비용을_줄이고_투자수익은_올리고_안정성은_높이고_" class="cls-7" transform="translate(823 1670)">
                    <tspan x="-56.28" y="0">불필요한 비용을 줄이고!</tspan><tspan x="-44.46" y="17">투자수익은 올리고!</tspan><tspan x="-39.3" y="34">안정성은 높이고!</tspan>
                </text>
            </g>
        </g>
        <g id="그룹_1150">
            <g id="그룹_959" transform="translate(0 47)">
                <text id="기회의_민주화" class="cls-6" transform="translate(333 1644)">
                    <tspan x="0" y="0">기회의 민주화</tspan>
                </text>
                <text id="투자기관과_공동_투자함으로서_이제는_나도_투자_전문가" class="cls-7" transform="translate(378 1670)">
                    <tspan x="-70.08" y="0">투자기관과 공동 투자함으로서</tspan><tspan x="-56.1" y="17">이제는 나도 투자 전문가</tspan>
                </text>
            </g>
            <g id="그룹_961" transform="translate(319.684 1566)">
                <g id="그룹_381" transform="translate(19.201)">
                    <g id="그룹_377">
                        <g id="그룹_361">
                            <g id="그룹_360" clip-path="url(#clip-path-2)">
                                <path id="패스_655" d="M20.055 42.445a6.831 6.831 0 0 1-6.534 7.094 6.83 6.83 0 0 1-6.532-7.094 6.83 6.83 0 0 1 6.532-7.094 6.831 6.831 0 0 1 6.534 7.094z" class="cls-5" transform="translate(-.747 -3.78)"/>
                                <path id="패스_656" d="M9.456 52.556L9 54.934H7.222A6.22 6.22 0 0 0 1 61.154v25.78" class="cls-5" transform="translate(-.107 -5.62)"/>
                                <path id="패스_657" d="M22.274 55.229a6.218 6.218 0 0 0-1.9-.3h-1.783l-.451-2.378" class="cls-5" transform="translate(-1.94 -5.62)"/>
                                <ellipse id="타원_71" cx="6.533" cy="7.094" class="cls-5" rx="6.533" ry="7.094" transform="translate(59.79 31.57)"/>
                                <path id="패스_658" d="M69.932 52.556l-.451 2.378H67.7a6.21 6.21 0 0 0-1.908.3" class="cls-5" transform="translate(-7.035 -5.62)"/>
                                <path id="패스_659" d="M86.555 86.933V61.154a6.222 6.222 0 0 0-6.222-6.221h-1.782l-.451-2.378" class="cls-5" transform="translate(-8.351 -5.62)"/>
                                <path id="선_321" d="M0 7.187L0 0" class="cls-5" transform="translate(40.57 .893)"/>
                                <path id="선_322" d="M2.712 6.237L0 0" class="cls-5" transform="translate(30.672 3.199)"/>
                                <path id="선_323" d="M5.085 5.085L0 0" class="cls-5" transform="translate(22.197 8.283)"/>
                                <path id="선_324" d="M0 6.237L2.712 0" class="cls-5" transform="translate(47.757 3.199)"/>
                                <path id="선_325" d="M0 5.085L5.085 0" class="cls-5" transform="translate(53.859 8.283)"/>
                            </g>
                        </g>
                        <g id="그룹_363" transform="translate(19.013 17.966)">
                            <g id="그룹_380">
                                <path id="패스_660" d="M51.652 28.487a8.369 8.369 0 1 1-8.369-8.37 8.369 8.369 0 0 1 8.369 8.37z" class="cls-4" transform="translate(-22.746 -20.117)"/>
                                <path id="패스_661" d="M31.11 85.751V53.079c-1.163 3.073-2.27 7.905-2.27 15.248a87.6 87.6 0 0 0 .492 9.041 3.773 3.773 0 0 1-3.368 4.139c-.132.012-.262.02-.391.02a3.773 3.773 0 0 1-3.749-3.387 95.8 95.8 0 0 1-.534-9.813c-.074-19.145 7.085-25.451 8.089-26.1a3.744 3.744 0 0 1 1.731-.695V41.5h21.43v.032a3.747 3.747 0 0 1 1.732.695c1 .649 8.164 6.955 8.089 26.1a95.543 95.543 0 0 1-.534 9.813 3.772 3.772 0 0 1-3.749 3.387c-.129 0-.259-.007-.39-.02a3.775 3.775 0 0 1-3.37-4.139 87.125 87.125 0 0 0 .493-9.041c0-7.343-1.107-12.175-2.27-15.248v32.672" class="cls-4" transform="translate(-21.289 -22.404)"/>
                                <path id="패스_662" d="M45.885 49.421l.976-3.307-2.928-2.414L41 46.114l.976 3.307" class="cls-4" transform="translate(-23.398 -22.638)"/>
                                <path id="패스_663" d="M46.987 68.5l-3.07 2.854-3.069-2.854L41.9 50.475h4.025z" class="cls-4" transform="translate(-23.381 -23.363)"/>
                            </g>
                        </g>
                    </g>
                </g>
                <path id="패스_680" d="M-3.419 0h117.366" class="cls-5" transform="translate(3.419 82.609)"/>
            </g>
        </g>
        <g id="그룹_1151">
            <g id="그룹_962" transform="translate(541.099 1551)">
                <g id="그룹_378" transform="translate(24.04)">
                    <g id="그룹_367">
                        <path id="선_326" d="M0 0L11.334 5.62" class="cls-9" transform="translate(46.257 53.271)"/>
                        <path id="선_327" d="M0 0L11.009 5.667" class="cls-9" transform="translate(28.234 44.259)"/>
                        <path id="선_328" d="M0 8.981L12.261 0" class="cls-9" transform="translate(9.377 45.049)"/>
                        <g id="그룹_365" clip-path="url(#clip-path-3)">
                            <path id="사각형_1195" d="M0 0H11.262V30.695H0z" class="cls-9" transform="translate(.894 66.014)"/>
                            <circle id="타원_72" cx="3.809" cy="3.809" r="3.809" class="cls-9" transform="translate(2.714 53.095)"/>
                            <path id="사각형_1196" d="M0 0H11.262V45.048H0z" class="cls-4" transform="translate(19.029 51.66)"/>
                            <path id="패스_664" d="M30.965 47.188a3.809 3.809 0 1 1-3.81-3.81 3.809 3.809 0 0 1 3.81 3.81z" class="cls-9" transform="translate(-2.497 -4.639)"/>
                            <path id="사각형_1197" d="M0 0H11.262V36.01H0z" class="cls-9" transform="translate(37.165 60.698)"/>
                            <path id="패스_665" d="M51.273 57.31a3.809 3.809 0 1 1-3.81-3.811 3.809 3.809 0 0 1 3.81 3.811z" class="cls-9" transform="translate(-4.668 -5.721)"/>
                            <path id="사각형_1198" d="M0 0H11.262V26.972H0z" class="cls-9" transform="translate(55.3 69.736)"/>
                            <path id="패스_666" d="M71.581 67.43a3.81 3.81 0 1 1-3.81-3.81 3.81 3.81 0 0 1 3.81 3.81z" class="cls-9" transform="translate(-6.84 -6.803)"/>
                            <path id="패스_667" d="M67.622 24.51v21.264a3.5 3.5 0 1 1-7 0" class="cls-4" transform="translate(-6.483 -2.621)"/>
                            <path id="선_329" d="M0 0L0 3.946" class="cls-4" transform="translate(61.14 .893)"/>
                            <path id="패스_668" d="M76.547 25.184c-.368-10.926-4.282-19.527-9.06-19.527s-8.691 8.6-9.06 19.526c1.748-1.843 5.15-3.094 9.06-3.094s7.313 1.252 9.06 3.095z" class="cls-4" transform="translate(-6.248 -.605)"/>
                            <path id="패스_669" d="M45.115 23.622a17.713 17.713 0 0 1 4.179-.484 13.435 13.435 0 0 1 7.713 2.025c.372-10.916 4.284-19.505 9.058-19.505a21.2 21.2 0 0 0-20.95 17.964z" class="cls-4" transform="translate(-4.824 -.605)"/>
                            <path id="패스_670" d="M89.523 23.609a21.207 21.207 0 0 0-20.95-17.952c4.78 0 8.694 8.6 9.061 19.534h.013c1.6-1.23 4.47-2.053 7.748-2.053a17.779 17.779 0 0 1 4.128.471z" class="cls-4" transform="translate(-7.333 -.605)"/>
                        </g>
                    </g>
                </g>
                <path id="패스_679" d="M-3.419 0h117.366" class="cls-5" transform="translate(3.419 97.791)"/>
            </g>
            <g id="그룹_958" transform="translate(0 47)">
                <text id="투자의_전문화" class="cls-6" transform="translate(552 1644)">
                    <tspan x="0" y="0">투자의 전문화</tspan>
                </text>
                <text id="투자기관과_공동_투자함으로서_이제는_나도_투자_전문가_" class="cls-7" transform="translate(597 1670)">
                    <tspan x="-70.08" y="0">투자기관과 공동 투자함으로서</tspan><tspan x="-57.78" y="17">이제는 나도 투자 전문가!</tspan>
                </text>
            </g>
        </g>
        <path id="선_633" d="M0 0L0 137" class="cls-11" transform="translate(487.5 1587.5)"/>
        <path id="선_632" d="M0 0L0 137" class="cls-11" transform="translate(718.5 1587.5)"/>
    </g>
</svg>
