<svg xmlns="http://www.w3.org/2000/svg" width="130.391" height="55.002" viewBox="0 0 130.391 55.002">
    <defs>
        <style>
            .cls-1{fill:#0540ff}
        </style>
    </defs>
    <g id="그룹_187">
        <path id="패스_319" d="M1454.061 808.067l3.985 48.943-2.276-47.652 20.311-7.35z" class="cls-1" transform="translate(-1454.061 -802.008)"/>
        <path id="패스_320" d="M1519.6 808.067l-14.072-6.059v55h6.84v-37.76h6.4z" class="cls-1" transform="translate(-1482.626 -802.008)"/>
        <path id="패스_321" d="M1550.353 844.391h-25.816v36.143h12.082v-13.425h11.981a1.843 1.843 0 0 1 1.962 1.962 1.884 1.884 0 0 1-1.962 2.014h-5.1l6.658 9.449h.194c7.332 0 11.824-4.234 11.824-11.462a11.612 11.612 0 0 0-2.169-6.764 10.938 10.938 0 0 0 2.169-6.505c0-7.229-4.492-11.411-11.824-11.411m-1.755 13.373h-11.979v-3.925h11.982a1.8 1.8 0 0 1 1.962 1.91 1.884 1.884 0 0 1-1.962 2.013" class="cls-1" transform="translate(-1493.178 -825.532)"/>
        <path id="패스_322" d="M1645.468 892.258a3.477 3.477 0 0 0-3.473-3.473h-7v12.72h7a25.016 25.016 0 0 1 3.473-9.248m-1.171 5.775a2.3 2.3 0 0 1-2.3 2.3h-5.832v-4.6h5.832a2.3 2.3 0 0 1 2.3 2.3m-2.3-3.473h-5.832v-4.6h5.832a2.3 2.3 0 1 1 0 4.6" class="cls-1" transform="translate(-1554.484 -850.173)"/>
        <path id="패스_323" d="M1673.818 896.267a4.067 4.067 0 1 1-8.134 0v-7.482h-1.171v7.482a5.238 5.238 0 0 0 10.477 0v-7.482h-1.171z" class="cls-1" transform="translate(-1570.871 -850.173)"/>
        <path id="패스_324" d="M1698.478 894.212l-4.373-5.427h-1.5l5.291 6.567v6.153h1.169v-6.151l5.293-6.57h-1.5z" class="cls-1" transform="translate(-1586.461 -850.173)"/>
        <path id="패스_325" d="M1645.468 858.316a3.477 3.477 0 0 0-3.473-3.473h-7v12.72h1.171v-5.775h5.832a2.3 2.3 0 0 1 2.3 2.3v3.473h1.171v-3.473a3.465 3.465 0 0 1 0-5.775m-3.473 2.3h-5.832v-4.6h5.832a2.3 2.3 0 1 1 0 4.6" class="cls-1" transform="translate(-1554.484 -831.334)"/>
        <path id="패스_326" d="M1693.4 867.652h1.262l2.326-5.775h3.862l2.327 5.775h1.262l-5.1-12.65h-.848zm4.061-6.946l1.459-3.622 1.459 3.622z" class="cls-1" transform="translate(-1586.906 -831.422)"/>
        <path id="패스_327" d="M1724.729 866.48V855h-1.171v12.65h9.477l1-1.171z" class="cls-1" transform="translate(-1603.643 -831.422)"/>
        <path id="패스_328" d="M1672.626 854.843h-8.113v12.721h10.477v-1.171h-9.305v-4.6h9.305v-1.171h-9.305v-4.6h9.305v-1.1h-2.364z" class="cls-1" transform="translate(-1570.871 -831.333)"/>
        <path id="사각형_94" d="M0 0H1.171V0.071H0z" class="cls-1" transform="translate(119.915 23.509)"/>
        <path id="사각형_95" d="M0 0H2.364V0.071H0z" class="cls-1" transform="translate(101.756 23.509)"/>
    </g>
</svg>
