<svg xmlns="http://www.w3.org/2000/svg" width="130.408" height="55.009" viewBox="0 0 130.408 55.009">
    <defs>
        <style>
            .cls-1{fill:#fff}
        </style>
    </defs>
    <g id="그룹_187">
        <path id="패스_319" d="M1454.061 808.068l3.985 48.949-2.276-47.658 20.313-7.351z" class="cls-1" transform="translate(-1454.061 -802.008)"/>
        <path id="패스_320" d="M1519.6 808.068l-14.073-6.06v55.009h6.841V819.25h6.4z" class="cls-1" transform="translate(-1482.624 -802.008)"/>
        <path id="패스_321" d="M1550.356 844.391h-25.82v36.147h12.084v-13.426h11.98a1.843 1.843 0 0 1 1.963 1.962 1.884 1.884 0 0 1-1.963 2.014h-5.1l6.659 9.45h.195c7.333 0 11.826-4.234 11.826-11.464a11.614 11.614 0 0 0-2.17-6.765 10.941 10.941 0 0 0 2.17-6.506c0-7.23-4.493-11.413-11.826-11.413m-1.756 13.375h-11.98v-3.924h11.98a1.8 1.8 0 0 1 1.963 1.91 1.884 1.884 0 0 1-1.963 2.014" class="cls-1" transform="translate(-1493.174 -825.53)"/>
        <path id="패스_322" d="M1645.469 892.258a3.477 3.477 0 0 0-3.474-3.473h-7v12.722h7a25.008 25.008 0 0 1 3.474-9.249m-1.171 5.775a2.3 2.3 0 0 1-2.3 2.3h-5.833v-4.6H1642a2.3 2.3 0 0 1 2.3 2.3m-2.3-3.473h-5.833v-4.6H1642a2.3 2.3 0 1 1 0 4.6" class="cls-1" transform="translate(-1554.474 -850.168)"/>
        <path id="패스_323" d="M1673.82 896.268a4.068 4.068 0 1 1-8.136 0v-7.483h-1.171v7.483a5.239 5.239 0 0 0 10.478 0v-7.483h-1.171z" class="cls-1" transform="translate(-1570.859 -850.168)"/>
        <path id="패스_324" d="M1698.478 894.212l-4.373-5.428h-1.5l5.292 6.568v6.154h1.169v-6.151l5.293-6.571h-1.5z" class="cls-1" transform="translate(-1586.447 -850.168)"/>
        <path id="패스_325" d="M1645.469 858.316a3.477 3.477 0 0 0-3.474-3.473h-7v12.722h1.172v-5.775H1642a2.3 2.3 0 0 1 2.3 2.3v3.473h1.171v-3.473a3.465 3.465 0 0 1 0-5.775m-3.474 2.3h-5.833v-4.6H1642a2.3 2.3 0 1 1 0 4.6" class="cls-1" transform="translate(-1554.474 -831.331)"/>
        <path id="패스_326" d="M1693.4 867.653h1.262l2.327-5.775h3.862l2.327 5.775h1.263l-5.1-12.651h-.848zm4.061-6.947l1.459-3.623 1.459 3.623z" class="cls-1" transform="translate(-1586.892 -831.419)"/>
        <path id="패스_327" d="M1724.729 866.482V855h-1.171v12.651h9.478l1-1.171z" class="cls-1" transform="translate(-1603.628 -831.419)"/>
        <path id="패스_328" d="M1672.627 854.843h-8.114v12.722h10.478v-1.171h-9.307v-4.6h9.307v-1.171h-9.307v-4.6h9.307v-1.1h-2.364z" class="cls-1" transform="translate(-1570.859 -831.331)"/>
        <path id="사각형_94" d="M0 0H1.171V0.071H0z" class="cls-1" transform="translate(119.93 23.512)"/>
        <path id="사각형_95" d="M0 0H2.364V0.071H0z" class="cls-1" transform="translate(101.769 23.512)"/>
    </g>
</svg>
