<svg xmlns="http://www.w3.org/2000/svg" id="구성_요소_88_1" width="118.505" height="49.988" viewBox="0 0 118.505 49.988">
    <defs>
        <style>
            .cls-1{fill:#bfbfbf}
        </style>
    </defs>
    <g id="그룹_187">
        <path id="패스_319" d="M1454.061 807.515l3.622 44.485-2.069-43.308 18.459-6.68z" class="cls-1" transform="translate(-1454.061 -802.008)"/>
        <path id="패스_320" d="M1518.315 807.515l-12.789-5.507V852h6.216v-34.32h5.818z" class="cls-1" transform="translate(-1484.714 -802.008)"/>
        <path id="패스_321" d="M1548 844.391h-23.463v32.848h10.981v-12.2h10.882a1.675 1.675 0 0 1 1.783 1.783 1.712 1.712 0 0 1-1.783 1.83h-4.632l6.051 8.588h.181c6.664 0 10.747-3.848 10.747-10.417a10.553 10.553 0 0 0-1.971-6.148 9.941 9.941 0 0 0 1.971-5.912c0-6.57-4.083-10.371-10.747-10.371m-1.6 12.154h-10.886v-3.566h10.886a1.638 1.638 0 0 1 1.783 1.736 1.712 1.712 0 0 1-1.783 1.83" class="cls-1" transform="translate(-1496.037 -827.251)"/>
        <path id="패스_322" d="M1644.512 891.941a3.16 3.16 0 0 0-3.156-3.156h-6.365v11.561h6.365a22.735 22.735 0 0 1 3.156-8.4m-1.064 5.248a2.094 2.094 0 0 1-2.092 2.092h-5.3V895.1h5.3a2.094 2.094 0 0 1 2.092 2.092m-2.092-3.156h-5.3v-4.184h5.3a2.092 2.092 0 1 1 0 4.184" class="cls-1" transform="translate(-1561.823 -853.693)"/>
        <path id="패스_323" d="M1672.97 895.585a3.7 3.7 0 1 1-7.393 0v-6.8h-1.064v6.8a4.761 4.761 0 0 0 9.521 0v-6.8h-1.064z" class="cls-1" transform="translate(-1579.407 -853.693)"/>
        <path id="패스_324" d="M1697.942 893.717l-3.974-4.932h-1.368l4.809 5.969v5.592h1.062v-5.59l4.811-5.971h-1.367z" class="cls-1" transform="translate(-1596.136 -853.692)"/>
        <path id="패스_325" d="M1644.512 858a3.16 3.16 0 0 0-3.156-3.156h-6.365V866.4h1.065v-5.248h5.3a2.094 2.094 0 0 1 2.092 2.092v3.156h1.064v-3.156a3.15 3.15 0 0 1 0-5.248m-3.156 2.092h-5.3v-4.184h5.3a2.092 2.092 0 1 1 0 4.184" class="cls-1" transform="translate(-1561.823 -833.477)"/>
        <path id="패스_326" d="M1693.4 866.5h1.147l2.114-5.248h3.51l2.115 5.248h1.147L1698.8 855h-.771zm3.691-6.313l1.326-3.292 1.326 3.292z" class="cls-1" transform="translate(-1596.614 -833.571)"/>
        <path id="패스_327" d="M1724.622 865.434V855h-1.064v11.5h8.613l.909-1.064z" class="cls-1" transform="translate(-1614.574 -833.571)"/>
        <path id="패스_328" d="M1671.887 854.843h-7.373V866.4h9.521v-1.064h-8.457v-4.184h8.457v-1.064h-8.457v-4.184h8.457v-1h-2.148z" class="cls-1" transform="translate(-1579.407 -833.477)"/>
        <path id="사각형_94" d="M0 0H1.064V0.064H0z" class="cls-1" transform="translate(108.984 21.366)"/>
        <path id="사각형_95" d="M0 0H2.148V0.064H0z" class="cls-1" transform="translate(92.48 21.366)"/>
    </g>
</svg>
