<svg xmlns="http://www.w3.org/2000/svg" width="118.562" height="18.541" viewBox="0 0 118.562 18.541">
    <defs>
        <style>
            .cls-1{fill:#0540ff}
        </style>
    </defs>
    <g id="그룹_5" transform="translate(-117.459 -473.064)">
        <g id="그룹_3" transform="translate(147.624 479.565)">
            <path id="패스_329" d="M345.246 523.737a3.274 3.274 0 0 0-3.271-3.269h-6.595v11.978h1.1v-5.437h5.492a2.17 2.17 0 0 1 2.168 2.167v3.27h1.1v-3.27a3.252 3.252 0 0 0-1.46-2.718 3.253 3.253 0 0 0 1.466-2.721zm-3.27 2.168h-5.492v-4.335h5.492a2.167 2.167 0 1 1 0 4.335z" class="cls-1" transform="translate(-335.38 -520.407)"/>
            <path id="패스_330" d="M604.557 520.4h-1.1v11.978h8.923l.941-1.1h-8.762z" class="cls-1" transform="translate(-566.347 -520.351)"/>
            <path id="패스_331" d="M729.529 523.626a3.274 3.274 0 0 0-3.271-3.269h-6.595v11.978h6.595a3.268 3.268 0 0 0 1.81-5.989 3.252 3.252 0 0 0 1.461-2.72zm-3.268 7.606h-5.492V526.9h5.492a2.167 2.167 0 0 1 0 4.335zm0-5.437h-5.492v-4.335h5.492a2.167 2.167 0 0 1 0 4.335z" class="cls-1" transform="translate(-666.47 -520.312)"/>
            <path id="패스_332" d="M817.786 527.37a3.829 3.829 0 1 1-7.659 0v-7.045h-1.1v7.045a4.932 4.932 0 1 0 9.865 0v-7.045h-1.1z" class="cls-1" transform="translate(-743.46 -520.284)"/>
            <path id="패스_333" d="M903.688 520.3l-4.116 5.111-4.119-5.109h-1.416l4.984 6.182v5.794h1.1v-5.792l4.979-6.186z" class="cls-1" transform="translate(-816.707 -520.261)"/>
            <path id="패스_334" d="M424.742 532.416h9.865v-1.1h-8.762v-4.335h8.762v-1.1h-8.762v-4.335h8.762v-1.1h-9.865z" class="cls-1" transform="translate(-412.369 -520.38)"/>
            <g id="그룹_2" transform="translate(24.476)">
                <path id="패스_335" d="M517.75 520.03h-.7l-4.844 12.033h1.189l2.189-5.438h3.636l2.192 5.437h1.188zm-1.723 5.492l1.373-3.411 1.375 3.41z" class="cls-1" transform="translate(-512.205 -520.03)"/>
            </g>
        </g>
        <g id="그룹_4" transform="translate(117.459 473.064)">
            <path id="패스_336" d="M177.433 475.088l-4.7-2.024v18.376h2.285v-12.616h2.139z" class="cls-1" transform="translate(-165.081 -473.064)"/>
            <path id="패스_337" d="M117.459 475.088l1.331 16.352-.76-15.92 6.786-2.456z" class="cls-1" transform="translate(-117.459 -473.064)"/>
            <path id="패스_338" d="M201.773 518.582h-8.625v12.075h4.037v-4.485h4a.616.616 0 0 1 .656.656.629.629 0 0 1-.656.673h-1.7l2.224 3.157h.065c2.45 0 3.95-1.414 3.95-3.83a3.878 3.878 0 0 0-.725-2.26 3.654 3.654 0 0 0 .725-2.174c0-2.415-1.501-3.812-3.951-3.812zm-.587 4.468h-4v-1.311h4a.6.6 0 0 1 .656.638.629.629 0 0 1-.655.673z" class="cls-1" transform="translate(-182.671 -512.281)"/>
        </g>
    </g>
</svg>
