<svg xmlns="http://www.w3.org/2000/svg" width="45" height="51.138" viewBox="0 0 45 51.138">
    <g>
        <text fill="#555" font-family="NanumSquare_acR, NanumSquare_ac" font-size="13px" transform="translate(0 .619) translate(0 47.519)">
            <tspan x="0" y="0">알림설정</tspan>
        </text>
        <path fill="none" stroke="#a0a5ac" stroke-linecap="round" d="M19.625 11.4c-2.96-6.371-4.5-8.792-9.337-8.69-1.723.035-1.31-1.249-2.624-.762s-.186 1.2-1.528 2.3C2.367 7.342 2.714 10.2 4.462 17.024c.736 2.874-1.775 3.014-.781 5.8.725 2.03 6.075 2.881 11.718.788s9.2-6.25 8.475-8.281c-.993-2.785-3-1.248-4.248-3.93zm-4.838 10.5c-5.04 1.87-9.182.771-9.357.282-.3-.844 1.627-3.657 7.39-5.795s8.979-1.345 9.314-.4c.2.557-2.3 4.046-7.347 5.917zm-1.62-4.536c-.282.1-.555.211-1.109.439a20.781 20.781 0 0 0-2.118 1.006 14.623 14.623 0 0 0-2.425 1.649 3.986 3.986 0 0 0 3.955.365c1.983-.734 3.2-2.423 2.72-3.77-.006-.017-.015-.03-.021-.047-.326.106-.66.222-1 .351z" transform="translate(0 .619) rotate(20 16.083 44.465)"/>
    </g>
</svg>
