<svg xmlns="http://www.w3.org/2000/svg" width="21.04" height="23.288" viewBox="0 0 21.04 23.288">
    <path fill="#d9d9d9" d="M19.84 11.523c-3-6.455-4.56-8.907-9.46-8.8-1.745.035-1.327-1.265-2.659-.772s-.187 1.211-1.547 2.328c-3.817 3.135-3.466 6.034-1.7 12.944.746 2.911-1.8 3.054-.792 5.874.735 2.057 6.155 2.919 11.872.8s9.322-6.332 8.586-8.39c-1.006-2.822-3.04-1.264-4.3-3.982zm-4.9 10.633c-5.106 1.894-9.3.781-9.48.285-.305-.855 1.648-3.7 7.487-5.871s9.1-1.363 9.437-.409c.2.564-2.335 4.1-7.443 5.994zM13.3 17.56c-.286.106-.562.214-1.123.445a21.053 21.053 0 0 0-2.146 1.027 14.815 14.815 0 0 0-2.46 1.668 4.039 4.039 0 0 0 4.007.37c2.009-.743 3.244-2.455 2.756-3.82-.007-.017-.015-.03-.021-.048-.331.108-.668.225-1.015.355z" transform="translate(-3.199 -1.835)"/>
</svg>
