<svg xmlns="http://www.w3.org/2000/svg" width="62.245" height="68.895" viewBox="0 0 62.245 68.895">
    <path fill="#3182f5" d="M49.231 28.662C40.358 9.566 35.741 2.311 21.245 2.615c-5.164.1-3.926-3.743-7.866-2.284s-.557 3.595-4.58 6.9C-2.494 16.506-1.456 25.082 3.783 45.525 5.99 54.138-1.536 54.559 1.441 62.9c2.174 6.086 18.208 8.635 35.122 2.362s27.577-18.733 25.4-24.821c-2.977-8.348-8.995-3.741-12.733-11.78zm-14.5 31.457c-15.107 5.6-27.521 2.311-28.047.844-.9-2.53 4.877-10.96 22.148-17.369s26.911-4.033 27.918-1.211c.6 1.669-6.908 12.127-22.019 17.734zm-4.855-13.6c-.845.314-1.662.632-3.323 1.315a62.283 62.283 0 0 0-6.353 3.041 43.829 43.829 0 0 0-7.27 4.943c2.5 2.272 7.187 2.826 11.855 1.095 5.942-2.2 9.6-7.263 8.153-11.3-.019-.051-.044-.09-.063-.141-.978.319-1.977.666-3 1.051z"/>
</svg>
