<svg xmlns="http://www.w3.org/2000/svg" width="81.495" height="34.376" viewBox="0 0 81.495 34.376">
  <g id="Group_188" data-name="Group 188" transform="translate(-1296 428)">
    <g id="Group_187" data-name="Group 187" transform="translate(1296 -428)">
      <path id="Path_319" data-name="Path 319" d="M1454.061,805.795l2.49,30.589-1.423-29.782,12.694-4.594Z" transform="translate(-1454.061 -802.008)" fill="#0540ff"/>
      <path id="Path_320" data-name="Path 320" d="M1514.321,805.795l-8.795-3.787v34.376h4.275v-23.6h4Z" transform="translate(-1491.214 -802.008)" fill="#0540ff"/>
      <path id="Path_321" data-name="Path 321" d="M1540.672,844.391h-16.135V866.98h7.552v-8.39h7.486a1.152,1.152,0,0,1,1.226,1.226,1.177,1.177,0,0,1-1.226,1.258h-3.186l4.161,5.906h.121c4.583,0,7.39-2.646,7.39-7.164a7.257,7.257,0,0,0-1.356-4.228,6.836,6.836,0,0,0,1.356-4.066c0-4.518-2.808-7.132-7.39-7.132m-1.1,8.358h-7.486V850.3h7.486a1.126,1.126,0,0,1,1.226,1.194,1.177,1.177,0,0,1-1.226,1.258" transform="translate(-1504.938 -832.604)" fill="#0540ff"/>
      <path id="Path_322" data-name="Path 322" d="M1641.539,890.956a2.173,2.173,0,0,0-2.171-2.171h-4.377v7.95h4.377a15.63,15.63,0,0,1,2.171-5.78m-.732,3.609a1.44,1.44,0,0,1-1.439,1.439h-3.645v-2.877h3.645a1.44,1.44,0,0,1,1.439,1.439m-1.439-2.171h-3.645v-2.877h3.645a1.439,1.439,0,1,1,0,2.877" transform="translate(-1584.674 -864.652)" fill="#0540ff"/>
      <path id="Path_323" data-name="Path 323" d="M1670.329,893.461a2.542,2.542,0,1,1-5.084,0v-4.676h-.732v4.676a3.274,3.274,0,0,0,6.548,0v-4.676h-.732Z" transform="translate(-1605.986 -864.652)" fill="#0540ff"/>
      <path id="Path_324" data-name="Path 324" d="M1696.274,892.176l-2.733-3.392h-.94l3.307,4.1v3.846h.731v-3.844l3.308-4.106h-.94Z" transform="translate(-1626.263 -864.652)" fill="#0540ff"/>
      <path id="Path_325" data-name="Path 325" d="M1641.539,857.014a2.173,2.173,0,0,0-2.171-2.171h-4.377v7.95h.732v-3.609h3.645a1.44,1.44,0,0,1,1.439,1.439v2.171h.732v-2.171a2.166,2.166,0,0,1,0-3.609m-2.171,1.439h-3.645v-2.877h3.645a1.439,1.439,0,1,1,0,2.877" transform="translate(-1584.674 -840.15)" fill="#0540ff"/>
      <path id="Path_326" data-name="Path 326" d="M1693.4,862.908h.789l1.454-3.609h2.414l1.454,3.609h.789L1697.118,855h-.53Zm2.538-4.341.912-2.264.912,2.264Z" transform="translate(-1626.842 -840.265)" fill="#0540ff"/>
      <path id="Path_327" data-name="Path 327" d="M1724.29,862.176V855h-.732v7.906h5.923l.625-.732Z" transform="translate(-1648.611 -840.264)" fill="#0540ff"/>
      <path id="Path_328" data-name="Path 328" d="M1669.584,854.843h-5.071v7.95h6.548v-.732h-5.816v-2.877h5.816v-.732h-5.816v-2.877h5.816v-.688h-1.477Z" transform="translate(-1605.987 -840.149)" fill="#0540ff"/>
      <rect id="Rectangle_94" data-name="Rectangle 94" width="0.732" height="0.044" transform="translate(74.947 14.693)" fill="#0540ff"/>
      <rect id="Rectangle_95" data-name="Rectangle 95" width="1.477" height="0.044" transform="translate(63.597 14.693)" fill="#0540ff"/>
    </g>
  </g>
</svg>
