<svg xmlns="http://www.w3.org/2000/svg" width="373" height="317" viewBox="0 0 373 317">
    <defs>
        <linearGradient id="linear-gradient" x1=".009" x2="1" y1=".5" y2=".5" gradientUnits="objectBoundingBox">
            <stop offset="0" stop-color="#3769fc"/>
            <stop offset="1" stop-color="#43cbff"/>
        </linearGradient>
        <clipPath id="clip-path">
            <path d="M0 0H2.615V7.975H0z" class="cls-1"/>
        </clipPath>
        <style>
            .cls-1,.cls-13,.cls-5{fill:none}.cls-5{stroke:#bfbfbf}.cls-8{fill:#7a7a7a}.cls-10,.cls-7,.cls-8{font-family:NanumSquare_acR,NanumSquare_ac}.cls-7{fill:#9d9d9d;font-size:10px}.cls-8{font-size:11px}.cls-10{fill:#555;font-size:12px}.cls-11{fill:url(#linear-gradient)}.cls-13{stroke:#fd7141}.cls-14{stroke:none}
        </style>
    </defs>
    <g id="그룹_1298" transform="translate(-612 -888)">
        <g id="그룹_1296">
            <g id="사각형_1563" fill="rgba(242,242,242,0.75)" stroke="#bfbfbf">
                <path d="M0 0H373V45H0z" class="cls-14" transform="translate(612 888)"/>
                <path d="M0.5 0.5H372.5V44.5H0.5z" class="cls-1" transform="translate(612 888)"/>
            </g>
            <text id="낮은_금융소득으로는_부자가_될_수_없다." fill="#7a7a7a" font-family="NanumSquare_acR, NanumSquare_ac" font-size="20px" transform="translate(646 917)">
                <tspan x="0" y="0">낮은 금융소득으로는 부자가 될 수 없다.</tspan>
            </text>
            <g id="패스_1014" fill="#fff">
                <path d="M372.5 272.5H.5V.5h372v272z" class="cls-14" transform="translate(612 932)"/>
                <path fill="#bfbfbf" d="M1 1v271h371V1H1M0 0h373v273H0V0z" transform="translate(612 932)"/>
            </g>
            <path id="선_636" d="M0 0L9.286 0" class="cls-5" transform="translate(669.371 1118.899)"/>
            <path id="선_637" d="M0 0L0 5.909" class="cls-5" transform="translate(669.371 1143.381)"/>
            <path id="선_638" d="M0 0L9.286 0" class="cls-5" transform="translate(669.371 1085.131)"/>
            <path id="선_639" d="M0 0L9.286 0" class="cls-5" transform="translate(669.371 1051.363)"/>
            <path id="선_640" d="M0 133.449L0 0" class="cls-5" transform="translate(669.371 1015.841)"/>
            <g id="반복_그리드_4" transform="translate(442.061 -583.125)">
                <path id="선_393" d="M0 11L0 0" class="cls-5" transform="translate(315.5 1724.5)"/>
            </g>
            <g id="반복_그리드_3" transform="translate(531.545 -583.125)">
                <path id="선_393-2" d="M0 11L0 0" class="cls-5" transform="translate(315.5 1724.5)"/>
            </g>
            <path id="선_641" d="M0 0L9.286 0" class="cls-5" transform="translate(669.371 1015.841)"/>
            <text id="_0_" class="cls-7" transform="translate(645 1151)">
                <tspan x="0" y="0">0%</tspan>
            </text>
            <text id="예금" class="cls-8" transform="translate(703 1168)">
                <tspan x="0" y="0">예금</tspan>
            </text>
            <text id="주식_배당" class="cls-8" transform="translate(783 1168)">
                <tspan x="0" y="0">주식 배당</tspan>
            </text>
            <text id="_배당_수익률_" fill="#7a7a7a" font-family="NanumSquare_acB, NanumSquare_ac" font-size="15px" transform="translate(763 974)">
                <tspan x="0" y="0">[배당 수익률]</tspan>
            </text>
            <text id="상업용_부동산" class="cls-8" transform="translate(865 1171)">
                <tspan x="0" y="0">상업용 부동산</tspan>
            </text>
            <text id="_2_" class="cls-7" transform="translate(645 1121)">
                <tspan x="0" y="0">2%</tspan>
            </text>
            <text id="_4_" class="cls-7" transform="translate(645 1086)">
                <tspan x="0" y="0">4%</tspan>
            </text>
            <text id="_6_" class="cls-7" transform="translate(645 1054)">
                <tspan x="0" y="0">6%</tspan>
            </text>
            <text id="_8_" class="cls-7" transform="translate(645 1019)">
                <tspan x="0" y="0">8%</tspan>
            </text>
            <text id="_1.5_" class="cls-10" transform="translate(699 1123)">
                <tspan x="0" y="0">1.5%</tspan>
            </text>
            <text id="_1.7_" class="cls-10" transform="translate(789 1120)">
                <tspan x="0" y="0">1.7%</tspan>
            </text>
            <text id="_6.0_" class="cls-10" transform="translate(878 1043)">
                <tspan x="0" y="0">6.0%</tspan>
            </text>
            <path id="사각형_1559" d="M0 0h14a3 3 0 0 1 3 3v33a3 3 0 0 1-3 3H0V0z" class="cls-11" transform="rotate(-90 921.5 228)"/>
            <path id="사각형_1560" d="M0 0h17a3 3 0 0 1 3 3v33a3 3 0 0 1-3 3H0V0z" class="cls-11" transform="rotate(-90 966.5 183)"/>
            <path id="사각형_1561" d="M0 0h95a3 3 0 0 1 3 3v33a3 3 0 0 1-3 3H0V0z" class="cls-11" transform="rotate(-90 1011 138.5)"/>
            <g id="그룹_1297">
                <g id="그룹_978" transform="translate(936.031 1141.375)">
                    <g id="반복_그리드_2" transform="translate(-315 -1724.5)">
                        <path id="선_393-3" d="M0 11L0 0" class="cls-5" transform="translate(315.5 1724.5)"/>
                    </g>
                </g>
                <g id="Now" transform="translate(668.904 1149.163)">
                    <path id="x_axis" fill="none" stroke="#bdbdbd" d="M0 .482h268.1" transform="translate(0 -.482)"/>
                </g>
            </g>
            <g id="그룹_983" transform="translate(.587 22.336)">
                <g id="그룹_979" transform="rotate(-148 571.722 433.747)">
                    <path id="선_450" d="M0 0L0 78.773" class="cls-13" transform="translate(3.751)"/>
                    <path id="패스_978" d="M0 0l3.75 3.561L7.506 0" class="cls-13" transform="translate(0 75.353)"/>
                </g>
                <g id="그룹_982" transform="rotate(32 -1371.298 2020.203)">
                    <path id="선_450-2" d="M0 0L0 78.773" class="cls-13" transform="translate(3.751)"/>
                    <path id="패스_978-2" d="M0 0l3.75 3.561L7.506 0" class="cls-13" transform="translate(0 75.353)"/>
                </g>
            </g>
        </g>
    </g>
</svg>
