<svg xmlns="http://www.w3.org/2000/svg" width="681.03" height="194.683" viewBox="0 0 681.03 194.683">
    <defs>
        <style>
            .cls-1,.cls-2{fill:none}.cls-1{stroke:#a4a4a4}.cls-2{stroke:#76706b;stroke-linecap:round;stroke-width:2px}.cls-3,.cls-4{fill:#555}.cls-3{font-size:19px;font-family:NanumSquare_acB,NanumSquare_ac}.cls-4{font-size:14px;font-family:NanumSquare_acR,NanumSquare_ac}.cls-5{fill:#76706b}
        </style>
    </defs>
    <g id="그룹_1304" transform="translate(-256 -1698.317)">
        <path id="선_645" d="M0 0L0 194.683" class="cls-1" transform="translate(467.178 1698.317)"/>
        <path id="선_644" d="M0 0L0 194.683" class="cls-1" transform="translate(741.9 1698.317)"/>
        <g id="그룹_1300" transform="translate(0 11)">
            <path id="패스_678" d="M-3.419 0h139.58" class="cls-2" transform="translate(799.869 1757.927)"/>
            <text id="투자_편의_확대" class="cls-3" transform="translate(813 1808)">
                <tspan x="0" y="0">투자 편의 확대</tspan>
            </text>
            <text id="투자가_어려운_고객들에게_간편투자_맞춤형_상품을_제공하며_투자_편의_확대" class="cls-4" transform="translate(866 1838)">
                <tspan x="-69.72" y="0">투자가 어려운 고객들에게</tspan><tspan x="-63.7" y="20">간편투자 맞춤형 상품을</tspan><tspan x="-65.45" y="40">제공하며 투자 편의 확대</tspan>
            </text>
            <path id="compass" d="M62.84 41.2A29.92 29.92 0 1 1 27.2 11.835a6.906 6.906 0 1 1 11.436 0A29.918 29.918 0 0 1 62.84 41.2zM32.92 4.372a3.452 3.452 0 1 0 3.452 3.452 3.452 3.452 0 0 0-3.452-3.452zm2.3 11.623v5.639h-4.6v-5.64A25.578 25.578 0 0 0 7.663 40.19h6.845v4.458H7.842a25.16 25.16 0 0 0 22.777 21.747v-5.637h4.6v5.636a25.3 25.3 0 0 0 22.756-21.746h-6.642v-4.6h6.849a25.294 25.294 0 0 0-22.96-24.054zM17.99 56.528l9.017-20.41 20.277-8.882-8.849 20.24-20.445 9.052zm17.968-17.97a4.6 4.6 0 1 0 0 6.509 4.6 4.6 0 0 0 0-6.509z" class="cls-5" transform="translate(833.263 1686.256)"/>
        </g>
        <g id="그룹_1303" transform="translate(0 11)">
            <g id="그룹_1302" transform="translate(4)">
                <path id="패스_679" d="M-3.419 0h139.58" class="cls-2" transform="translate(529.919 1758.479)"/>
                <text id="금융_수익_증대" class="cls-3" transform="translate(542 1808)">
                    <tspan x="0" y="0">금융 수익 증대</tspan>
                </text>
                <text id="안정적인_실물자산_투자를_통해_높은_금융소득을_제공" class="cls-4" transform="translate(596 1838)">
                    <tspan x="-85.26" y="0">안정적인 실물자산 투자를 통해 </tspan><tspan x="-57.68" y="20">높은 금융소득을 제공</tspan>
                </text>
                <path id="dollar2" d="M81.262 46.933l.129-38.572-70.085.039V3.976h74.466v42.959zm-2.273 6.787h-4.508l.129-38.572-70.084.045v-4.424h74.465V53.72zm-6.641 4.521H0v-40.7h72.348zm-4.523-36.315H4.521V53.72h63.3V21.926zm-6.78 28.4a3.308 3.308 0 0 0 .228 1.129h-25.1c6.243 0 11.306-6.072 11.306-13.565s-5.063-13.562-11.306-13.562h25.1a3.309 3.309 0 0 0-.228 1.131 3.389 3.389 0 0 0 3.39 3.39 3.31 3.31 0 0 0 1.131-.228v18.542a3.31 3.31 0 0 0-4.519 3.167zm-4.524-17.141c-1.873 0-3.39 2.022-3.39 4.521s1.517 4.521 3.39 4.521 3.39-2.022 3.39-4.521-1.516-4.521-3.39-4.521zm-15.615-3.442a1.052 1.052 0 0 1 .084.257 2.319 2.319 0 0 1 .047.411c.011.165.016.37.016.616 0 .273-.007.506-.02.693a3.147 3.147 0 0 1-.07.467.585.585 0 0 1-.14.269.353.353 0 0 1-.248.086 1.193 1.193 0 0 1-.494-.2c-.228-.133-.506-.273-.833-.427A7.971 7.971 0 0 0 38.1 31.5a5.073 5.073 0 0 0-1.427-.19 3.379 3.379 0 0 0-1.059.147 2.18 2.18 0 0 0-.756.409 1.624 1.624 0 0 0-.451.625 2.038 2.038 0 0 0-.149.774 1.716 1.716 0 0 0 .332 1.054 3.125 3.125 0 0 0 .892.79 9.553 9.553 0 0 0 1.264.65q.7.3 1.44.641a14.342 14.342 0 0 1 1.442.772 5.723 5.723 0 0 1 1.26 1.028 4.808 4.808 0 0 1 .892 1.413 4.949 4.949 0 0 1 .339 1.914 5.646 5.646 0 0 1-.537 2.526 5.222 5.222 0 0 1-1.456 1.817 6.325 6.325 0 0 1-2.147 1.092c-.1.032-.217.045-.323.07V49.5h-2.223v-2.175c-.029 0-.054.007-.084.007a9.55 9.55 0 0 1-1.758-.153 10.194 10.194 0 0 1-1.433-.37 6.3 6.3 0 0 1-1.038-.456 2.942 2.942 0 0 1-.6-.42 1.059 1.059 0 0 1-.262-.528 4.829 4.829 0 0 1-.079-1c0-.291.009-.537.029-.734a2.084 2.084 0 0 1 .093-.483.539.539 0 0 1 .169-.262.419.419 0 0 1 .246-.077 1.157 1.157 0 0 1 .56.235 9.927 9.927 0 0 0 .925.515 8.483 8.483 0 0 0 1.35.515 6.367 6.367 0 0 0 1.815.235 4.184 4.184 0 0 0 1.214-.163 2.768 2.768 0 0 0 .912-.458 1.986 1.986 0 0 0 .571-.736 2.328 2.328 0 0 0 .2-.977 1.723 1.723 0 0 0-.339-1.068 3.354 3.354 0 0 0-.883-.792 8.869 8.869 0 0 0-1.235-.648c-.463-.2-.937-.418-1.427-.643a12.976 12.976 0 0 1-1.427-.77 5.7 5.7 0 0 1-1.235-1.032 4.891 4.891 0 0 1-.883-1.417 5.774 5.774 0 0 1 .149-4.27 4.742 4.742 0 0 1 1.317-1.65 5.6 5.6 0 0 1 1.948-.982 8.169 8.169 0 0 1 1.19-.246v-2.336h2.223V28.5c.088.011.176.007.264.02a8.862 8.862 0 0 1 1.217.266 6.677 6.677 0 0 1 1 .379 2.49 2.49 0 0 1 .582.35.894.894 0 0 1 .185.23zm-16.037 8.15c0 7.491 5.061 13.565 11.3 13.565h-25.1a3.312 3.312 0 0 0-4.293-4.293V28.623a3.31 3.31 0 0 0 1.131.228 3.312 3.312 0 0 0 3.162-4.521h25.1c-6.243 0-11.3 6.072-11.3 13.563zm-9.044-4.708c-1.873 0-3.39 2.022-3.39 4.521s1.519 4.521 3.39 4.521 3.39-2.022 3.39-4.521-1.515-4.521-3.39-4.521z" class="cls-5" transform="translate(553 1699.201)"/>
            </g>
        </g>
        <g id="그룹_1301" transform="translate(0 11)">
            <text id="고객_이익_보호" class="cls-3" transform="translate(283 1808)">
                <tspan x="0" y="0">고객 이익 보호</tspan>
            </text>
            <text id="고객의_이익을_보호하기_위해_최선의_서비스_제공" class="cls-4" transform="translate(336 1838)">
                <tspan x="-79.24" y="0">고객의 이익을 보호하기 위해 </tspan><tspan x="-51.66" y="20">최선의 서비스 제공</tspan>
            </text>
            <path id="패스_680" d="M-3.419 0h139.58" class="cls-2" transform="translate(271.018 1758.264)"/>
            <path id="umbrella" d="M63.156 38.15s-2.993-4.9-6.319-4.9-6.811 5.068-6.811 5.068-3.656-5.062-6.648-5.062c-2.533 0-5.514 3.482-6.378 4.557v19.359a17.627 17.627 0 0 1-.6 4.931 8.165 8.165 0 0 1-1.762 3.289 6.691 6.691 0 0 1-2.9 1.843 12.849 12.849 0 0 1-4.025.57 10.439 10.439 0 0 1-3.728-.626 7.6 7.6 0 0 1-2.779-1.8 7.883 7.883 0 0 1-1.738-2.816 10.647 10.647 0 0 1-.607-3.677V57.02h5.3c0 1.754-.013 4.054.626 4.947a3.371 3.371 0 0 0 2.922 1.333 8.315 8.315 0 0 0 2.15-.439 5.545 5.545 0 0 0 1.26-1.222 10.186 10.186 0 0 0 .583-1.9s.15-1.551.15-2.439V37.5c-1.185-1.34-4.092-4.338-6.421-4.338-2.99 0-7.146 4.985-7.146 4.985s-3.987-4.985-6.648-4.985-6.48 4.985-6.48 4.985S3.991 12.061 30.415 9.4l3.825-5.314L37.9 9.4c27.246 1.663 25.256 28.75 25.256 28.75z" class="cls-5" transform="translate(309.32 1689.417)"/>
        </g>
    </g>
</svg>
