<svg xmlns="http://www.w3.org/2000/svg" width="756" height="700.534" viewBox="0 0 756 700.534">
    <defs>
        <filter id="사각형_1593" width="190" height="66" x="566" y="0" filterUnits="userSpaceOnUse">
            <feOffset dy="3"/>
            <feGaussianBlur result="blur" stdDeviation="3"/>
            <feFlood flood-opacity=".161"/>
            <feComposite in2="blur" operator="in"/>
            <feComposite in="SourceGraphic"/>
        </filter>
        <filter id="패스_1100" width="205.637" height="228.167" x="299.403" y="81" filterUnits="userSpaceOnUse">
            <feOffset dy="5"/>
            <feGaussianBlur result="blur-2" stdDeviation="10"/>
            <feFlood flood-opacity=".361"/>
            <feComposite in2="blur-2" operator="in"/>
            <feComposite in="SourceGraphic"/>
        </filter>
        <filter id="패스_1102" width="205.637" height="228.167" x="299.403" y="465.693" filterUnits="userSpaceOnUse">
            <feOffset dy="5"/>
            <feGaussianBlur result="blur-3" stdDeviation="10"/>
            <feFlood flood-opacity=".361"/>
            <feComposite in2="blur-3" operator="in"/>
            <feComposite in="SourceGraphic"/>
        </filter>
        <filter id="패스_1101" width="205.637" height="228.167" x="299.403" y="273.457" filterUnits="userSpaceOnUse">
            <feOffset dy="5"/>
            <feGaussianBlur result="blur-4" stdDeviation="10"/>
            <feFlood flood-opacity=".361"/>
            <feComposite in2="blur-4" operator="in"/>
            <feComposite in="SourceGraphic"/>
        </filter>
        <style>
            .cls-17{fill:#fff}.cls-10,.cls-3{fill:#555}.cls-3{font-family:NanumSquare_acB,NanumSquare_ac;font-size:17px}.cls-10,.cls-4{font-family:NanumSquare_acR,NanumSquare_ac}.cls-5,.cls-6{fill:#abd4dd}.cls-6{stroke:#abd4dd}.cls-15,.cls-7,.cls-9{fill:none}.cls-7{stroke:#707070;stroke-width:2px}.cls-8{fill:#939393}.cls-9{stroke:#939393;stroke-dasharray:5}.cls-10{font-size:18px}.cls-11,.cls-14{fill:#fafbfd}.cls-12,.cls-18{fill:#3769fc}.cls-14,.cls-15{stroke-linecap:round}.cls-14{stroke-linejoin:round;stroke-miterlimit:10}.cls-15,.cls-16{stroke:#a0a5ac}.cls-16,.cls-21{fill:#a0a5ac}.cls-16,.cls-18{stroke-width:.5px}.cls-18{stroke:#3769fc}.cls-19,.cls-21{stroke:none}
        </style>
    </defs>
    <g id="그룹_1486" transform="translate(-228 -2632)">
        <g id="그룹_1461">
            <g id="그룹_1443" transform="translate(33 -1106)">
                <g filter="url(#사각형_1593)" transform="translate(195 3738)">
                    <g id="사각형_1593-2" fill="#fff" stroke="#bfbfbf" transform="translate(575 6)">
                        <rect width="172" height="48" class="cls-19" rx="24"/>
                        <rect width="171" height="47" x=".5" y=".5" fill="none" rx="23.5"/>
                    </g>
                </g>
                <text id="개인_투자자" fill="#555" font-family="NanumSquare_acB, NanumSquare_ac" font-size="20px" transform="translate(856 3774)">
                    <tspan x="-45.5" y="0">개인 투자자</tspan>
                </text>
            </g>
        </g>
        <g id="그룹_1485">
            <g id="그룹_1476">
                <g id="그룹_1458">
                    <g id="그룹_1457">
                        <g id="그룹_1445" transform="translate(17 -795.466)">
                            <text id="위험자산_선호_투자자_고위험_고수익_" class="cls-3" transform="translate(872 4097)">
                                <tspan x="-70.04" y="0">위험자산 선호 투자자</tspan><tspan class="cls-4"><tspan x="-56.738" y="27">(고위험 / 고수익)</tspan></tspan>
                            </text>
                            <path id="user" d="M24.664 31.025S7.7 31.025 1.333 45.87a70.163 70.163 0 0 0 23.331 4.242 70.163 70.163 0 0 0 23.33-4.242c-6.362-14.845-23.33-14.845-23.33-14.845zm0-2.12c6.363 0 10.605-6.362 10.605-16.967s-10.605-10.6-10.605-10.6-10.605 0-10.605 10.6S18.3 28.9 24.664 28.9z" class="cls-5" transform="translate(840.893 4019.133)"/>
                        </g>
                        <text id="위험자산_선호_투자자_고위험_고수익_2" class="cls-3" transform="translate(889 3301.534)">
                            <tspan x="-70.04" y="0">위험자산 선호 투자자</tspan><tspan class="cls-4"><tspan x="-56.738" y="27">(고위험 / 고수익)</tspan></tspan>
                        </text>
                        <path id="user-2" d="M24.664 31.025S7.7 31.025 1.333 45.87a70.163 70.163 0 0 0 23.331 4.242 70.163 70.163 0 0 0 23.33-4.242c-6.362-14.845-23.33-14.845-23.33-14.845zm0-2.12c6.363 0 10.605-6.362 10.605-16.967s-10.605-10.6-10.605-10.6-10.605 0-10.605 10.6S18.3 28.9 24.664 28.9z" class="cls-5" transform="translate(857.893 3223.667)"/>
                        <g id="그룹_1446" transform="translate(911.221 3209.362)">
                            <g id="그룹_1140">
                                <g id="그룹_1135" transform="translate(21.572)">
                                    <path id="패스_1127" d="M371.628 48.638h-7.191A.438.438 0 0 1 364 48.2V19.438a.438.438 0 0 1 .438-.438h7.191a.438.438 0 0 1 .438.438V48.2a.438.438 0 0 1-.439.438zm-6.753-.875h6.315V19.875h-6.315z" class="cls-6" transform="translate(-364 -19)"/>
                                </g>
                                <g id="그룹_1136" transform="translate(14.381 8.128)">
                                    <path id="패스_1128" d="M256.628 170.509h-7.191a.438.438 0 0 1-.438-.438v-20.633a.438.438 0 0 1 .438-.438h7.191a.438.438 0 0 1 .438.438v20.634a.438.438 0 0 1-.438.437zm-6.753-.875h6.315v-19.759h-6.315z" class="cls-6" transform="translate(-249 -149)"/>
                                </g>
                                <g id="그룹_1137" transform="translate(7.191 13.131)">
                                    <path id="패스_1129" d="M141.628 245.507h-7.191a.438.438 0 0 1-.438-.438v-15.631a.438.438 0 0 1 .438-.438h7.191a.438.438 0 0 1 .438.438v15.632a.438.438 0 0 1-.438.437zm-6.753-.875h6.315v-14.757h-6.315z" class="cls-6" transform="translate(-134 -229)"/>
                                </g>
                                <g id="그룹_1138" transform="translate(0 19.383)">
                                    <path id="패스_1130" d="M26.628 339.254h-7.19a.438.438 0 0 1-.438-.438v-9.379a.438.438 0 0 1 .438-.438h7.191a.438.438 0 0 1 .438.438v9.379a.438.438 0 0 1-.439.438zm-6.753-.875h6.315v-8.5h-6.315z" class="cls-6" transform="translate(-19 -329)"/>
                                </g>
                                <g id="그룹_1139" transform="translate(2.944 -3.499)">
                                    <path id="패스_1131" d="M92.067 76.686a.577.577 0 0 1-.409-.169l-3.163-3.163a.578.578 0 0 1 0-.818L92.83 68.2l-1.173-1.173a.578.578 0 0 1 .343-.983l7.117-.791a.578.578 0 0 1 .639.639l-.791 7.117a.578.578 0 0 1-.984.345l-1.173-1.173-4.336 4.336a.577.577 0 0 1-.405.169zm-2.345-3.741l2.345 2.345 4.333-4.335a.578.578 0 0 1 .818 0l.731.731.578-5.2-5.2.578.731.731a.578.578 0 0 1 0 .818z" class="cls-6" transform="translate(-88.326 -65.25)"/>
                                </g>
                            </g>
                        </g>
                    </g>
                </g>
            </g>
            <g id="그룹_1460">
                <path id="user-3" d="M24.664 31.025S7.7 31.025 1.333 45.87a70.163 70.163 0 0 0 23.331 4.242 70.163 70.163 0 0 0 23.33-4.242c-6.362-14.845-23.33-14.845-23.33-14.845zm0-2.12c6.363 0 10.605-6.362 10.605-16.967s-10.605-10.6-10.605-10.6-10.605 0-10.605 10.6S18.3 28.9 24.664 28.9z" class="cls-5" transform="translate(857.893 2731.667)"/>
                <path id="unlocked2" d="M14.667 23.631v3.036h2.667v-3.036a2.667 2.667 0 1 0-2.668 0zm10.666-10.3V8c0-2.667-2.667-6.667-9.333-6.667S6.667 5.333 6.667 8v9.333h2.667V6.666S10.667 4 16 4s6.667 2.667 6.667 2.667v6.667H12V16h13.334v12A1.334 1.334 0 0 1 24 29.333H8A1.335 1.335 0 0 1 6.668 28v-8H4v8a4.005 4.005 0 0 0 4 4h16a4.005 4.005 0 0 0 4-4V13.333h-2.666z" class="cls-5" transform="translate(909 2722.201)"/>
                <text id="안전자산_선호_투자자_저위험_저수익_" class="cls-3" transform="translate(889 2810.534)">
                    <tspan x="-70.04" y="0">안전자산 선호 투자자</tspan><tspan class="cls-4"><tspan x="-56.738" y="27">(저위험 / 저수익)</tspan></tspan>
                </text>
            </g>
            <g id="그룹_1478">
                <path id="패스_1114" d="M14615.207-7430.5h-106.067" class="cls-7" transform="translate(-13810.002 10445)"/>
                <circle id="타원_305" cx="4.5" cy="4.5" r="4.5" class="cls-8" transform="translate(801 3010)"/>
            </g>
            <g id="그룹_1479">
                <path id="패스_1115" d="M14504.99-7612.069h44.146l35.531-51.589h31.438" class="cls-7" transform="translate(-13810 10445)"/>
                <circle id="타원_304" cx="4.5" cy="4.5" r="4.5" class="cls-8" transform="translate(801 2777)"/>
            </g>
            <g id="그룹_1477">
                <path id="패스_1116" d="M14504.99-7663.658h44.146l35.531 56.329h31.438" class="cls-7" transform="translate(-13810 10875.589)"/>
                <ellipse id="타원_330" cx="4.5" cy="5" class="cls-8" rx="4.5" ry="5" transform="translate(801 3263)"/>
            </g>
            <g id="그룹_1467">
                <path id="패스_1144" d="M14364.117-7201.993l-126 29.409" class="cls-9" transform="translate(-13805.045 10407.277)"/>
                <path id="패스_1149" d="M14364.117-7119.916l-126-82.076" class="cls-9" transform="translate(-13805.045 10325.199)"/>
                <path id="패스_1145" d="M14364.117-7201.992l-126 222.148" class="cls-9" transform="translate(-13805.045 10214.539)"/>
                <path id="패스_1146" d="M14364.117-7202l-126 418.945" class="cls-9" transform="translate(-13805.045 10017.742)"/>
                <path id="패스_1147" d="M14364.117-7201.993l-126 110.66" class="cls-9" transform="translate(-13805.045 10214.54)"/>
                <path id="패스_1148" d="M14364.117-7201.991l-126 307.465" class="cls-9" transform="translate(-13805.045 10017.734)"/>
                <path id="패스_1150" d="M14364.117-7201.992l-126 196.8" class="cls-9" transform="translate(-13805.045 10017.735)"/>
                <path id="패스_1151" d="M14364.117-7201.992h-126" class="cls-9" transform="translate(-13805.045 10214.539)"/>
                <path id="패스_1152" d="M14364.117-7201.992l-126 98.4" class="cls-9" transform="translate(-13805.045 10017.735)"/>
                <path id="패스_1153" d="M14364.117-7103.589l-126-98.4" class="cls-9" transform="translate(-13805.045 10116.137)"/>
                <path id="패스_1154" d="M14364.117-6910.853l-126-291.139" class="cls-9" transform="translate(-13805.045 10116.137)"/>
                <path id="패스_1155" d="M14364.117-7185.767l-126-16.225" class="cls-9" transform="translate(-13805.045 10001.511)"/>
                <path id="패스_1156" d="M14364.117-6988.961l-126-213.031" class="cls-9" transform="translate(-13805.045 10001.511)"/>
                <path id="패스_1157" d="M14364.117-6796.227l-126-405.766" class="cls-9" transform="translate(-13805.045 10001.511)"/>
                <path id="패스_1158" d="M14364.117-7009.255l-126-192.737" class="cls-9" transform="translate(-13805.045 10214.539)"/>
            </g>
            <g id="그룹_1484">
                <text id="투자자_성향_분석" class="cls-10" transform="translate(249 3224)">
                    <tspan x="0" y="0">투자자</tspan><tspan x="0" y="22">성향 분석</tspan>
                </text>
                <g id="그룹_1088" transform="translate(117 294)">
                    <ellipse id="타원_301" cx="46.5" cy="47" class="cls-11" rx="46.5" ry="47" transform="translate(229 2889)"/>
                    <g id="noun_Idea_2278011" transform="translate(233.172 2893.842)">
                        <g id="그룹_1075">
                            <path id="패스_1075" d="M27.305 25.515a2.784 2.784 0 0 1 .836 2 2.863 2.863 0 0 1-2.388 2.791l-.015 1.015a.554.554 0 0 1-.552.567.564.564 0 0 1-.552-.567v-1.06a2.96 2.96 0 0 1-1.328-.761 2.806 2.806 0 0 1-.821-2 .56.56 0 0 1 1.119 0 1.709 1.709 0 1 0 3.418.015 1.769 1.769 0 0 0-.493-1.209c-.925-.925-2.045-.045-3.328-1.343a2.823 2.823 0 0 1 1.463-4.763v-1.043a.552.552 0 1 1 1.1 0V20.2a2.92 2.92 0 0 1 1.448.776 2.832 2.832 0 0 1 .821 2 .56.56 0 0 1-1.119 0 1.741 1.741 0 0 0-.493-1.209 1.71 1.71 0 0 0-2.921 1.195 1.778 1.778 0 0 0 .493 1.224c.94.925 2.03.045 3.313 1.328zM78.81 37.559a.566.566 0 0 1 .746-.239.553.553 0 0 1 .239.761l-.612 1.179 1.194.612a.564.564 0 1 1-.522 1l-1.179-.627-.612 1.194a.579.579 0 0 1-.761.239.566.566 0 0 1-.239-.746l.612-1.194-1.176-.612a.548.548 0 0 1-.239-.746.537.537 0 0 1 .739-.239l1.194.612.612-1.194zM23.724 60.214a.547.547 0 0 1 .642-.448.561.561 0 0 1 .463.642l-.229 1.314 1.313.224a.559.559 0 1 1-.179 1.1l-1.328-.224-.224 1.313a.552.552 0 0 1-1.089-.179l.224-1.328-1.313-.224a.552.552 0 1 1 .179-1.09l1.313.224.224-1.328zM12.53 45.081a.579.579 0 0 1 .761-.239.566.566 0 0 1 .239.746l-.63 1.194 1.194.612a.579.579 0 0 1 .239.761.566.566 0 0 1-.746.239l-1.187-.627-.612 1.194a.564.564 0 1 1-1-.522l.627-1.179-1.194-.612a.566.566 0 0 1-.239-.746.537.537 0 0 1 .746-.239l1.194.612zm18.85-37.67a.545.545 0 0 1-.716-.313.581.581 0 0 1 .328-.731 42.358 42.358 0 0 1 51.759 60.608.558.558 0 1 1-.97-.552A41.247 41.247 0 0 0 31.38 7.411zm-4.448 75.131a.564.564 0 1 1-.522 1A42.31 42.31 0 0 1 4.695 36.529a41.863 41.863 0 0 1 3.149-8.97.557.557 0 1 1 1 .493 41.221 41.221 0 0 0 18.089 54.49zm3.522-67.579a.539.539 0 0 1-.731.269.556.556 0 0 1-.269-.746l1.388-2.955a.561.561 0 0 1 1.015.478zm3.6 3.045a.551.551 0 0 1-.791-.06.579.579 0 0 1 .06-.791l2.492-2.1a.579.579 0 0 1 .791.06.565.565 0 0 1-.075.791zm-19.327 3.03a.585.585 0 0 1 .373.7.572.572 0 0 1-.7.373l-3.119-.94a.56.56 0 0 1 .309-1.071l3.134.94zm21.327 1.239a.565.565 0 0 1-.687-.388.547.547 0 0 1 .388-.687l3.134-.9a.55.55 0 0 1 .687.373.572.572 0 0 1-.373.7zM17.2 17.037a.566.566 0 0 1 .06.791.58.58 0 0 1-.791.06l-2.463-2.149a.566.566 0 0 1 .746-.851l2.448 2.149zm3.925-2.612a.564.564 0 1 1-1.03.463l-1.343-2.97a.558.558 0 1 1 1.015-.463zm4.642-.761a.56.56 0 0 1-1.119 0V10.4a.56.56 0 0 1 1.119 0zm-3.283 28.73h5.447a1.019 1.019 0 0 1 1.03 1.015v1.7a1.051 1.051 0 0 1-.3.731 1.079 1.079 0 0 1-.731.3h-5.445a1.015 1.015 0 0 1-.716-.3 1 1 0 0 1-.313-.731v-1.7a1.019 1.019 0 0 1 1.03-1.015zm5.358 1.119h-5.268v1.507h5.268zm-6.312-5.566h7.358a1.042 1.042 0 0 1 .716.3 1.015 1.015 0 0 1 .3.716v1.7a1.079 1.079 0 0 1-.3.731 1.042 1.042 0 0 1-.716.3H21.53a1.019 1.019 0 0 1-1.015-1.03v-1.7a1.015 1.015 0 0 1 .3-.716 1.042 1.042 0 0 1 .715-.301zm7.253 1.119h-7.149v1.507h7.149zM25.2 15.44a9.348 9.348 0 0 1 8.746 12.671c-.836 2.224-2.477 3.433-3.358 5.746a13.038 13.038 0 0 0-.687 2.925.56.56 0 0 1-.552.478l-8.283.015a.558.558 0 0 1-.552-.537 12.355 12.355 0 0 0-.687-2.866c-.866-2.313-2.522-3.537-3.358-5.746A9.358 9.358 0 0 1 25.2 15.44zm5.821 3.522a8.234 8.234 0 0 0-13.507 8.761c.791 2.089 2.463 3.343 3.358 5.761a13.5 13.5 0 0 1 .687 2.672h7.3a13.917 13.917 0 0 1 .687-2.686c.91-2.4 2.582-3.686 3.358-5.746a8.261 8.261 0 0 0-1.881-8.761zm33.238 31.357a13.266 13.266 0 0 1-4.522 3.269L55.2 59.14l2.866 4.6a.612.612 0 0 1 .1.328v23.7a.567.567 0 0 1-.567.567h-6.325a.567.567 0 0 1-.567-.567v-23.7a.556.556 0 0 1 .1-.3l3.02-4.668-4.671-5.507a13.181 13.181 0 0 1-4.537-3.268h-4.03c-3.985 0-8.686 2.418-8.9 6.836L30.32 87.2h12.686V67.3a.56.56 0 0 1 1.119 0v20.465a.567.567 0 0 1-.567.567h-13.82a.563.563 0 0 1-.552-.657l1.388-30.565c.239-5.045 5.418-7.91 10.014-7.91h4.268a.531.531 0 0 1 .448.224 12.168 12.168 0 0 0 9.134 4.149 12.085 12.085 0 0 0 9.119-4.149.6.6 0 0 1 .463-.224h4.268c4.552 0 9.776 2.836 10 7.91l1.4 30.461c0 .388-.149.761-.522.761H65.334a.564.564 0 0 1-.552-.567V67.3a.56.56 0 0 1 1.119 0v19.9h12.656l-1.373-30.045c-.209-4.448-4.97-6.836-8.9-6.836h-4.03zm-6.537 3.955a13.2 13.2 0 0 1-3.283.418 13.651 13.651 0 0 1-3.239-.4l3.313 3.91 3.209-3.925zM40.156 32.35a21.232 21.232 0 0 0 10.164-1.537c5.776-2.388 7.507-6.089 7.507-6.089a.566.566 0 0 1 1.045.09c0 .015 1.821 5.522 9.85 7.328a14.3 14.3 0 0 0-24.4-9.417 14.211 14.211 0 0 0-4.166 9.625zm28.566.925c-6.641-1.4-9.462-5.268-10.462-7.119a16.75 16.75 0 0 1-7.522 5.686 22.649 22.649 0 0 1-10.582 1.627 14.293 14.293 0 0 0 28.566-.194zM54.438 17.41a15.425 15.425 0 1 1-10.9 4.522 15.413 15.413 0 0 1 10.9-4.522zM51.827 87.2h5.223v-7.718l-1.85 2.582a.557.557 0 0 1-.91-.642l2.761-3.865V73.3L55.2 75.885a.566.566 0 0 1-.776.119.553.553 0 0 1-.134-.776l2.761-3.851V67.11L55.2 69.692a.555.555 0 0 1-.776.134.571.571 0 0 1-.134-.791l2.76-3.835v-.985l-2.567-4.089-2.657 4.1V87.2z" class="cls-12" transform="translate(-3.62 -3.62)"/>
                        </g>
                    </g>
                </g>
            </g>
            <g id="그룹_1483">
                <path id="사각형_1656" d="M0 0H129V60H0z" class="cls-11" transform="translate(228 3092)"/>
                <text id="투자_Data_트렌드_분석" class="cls-10" transform="translate(249 3116)">
                    <tspan x="0" y="0">투자 Data</tspan><tspan x="0" y="22">트렌드 분석</tspan>
                </text>
                <g id="그룹_1087" transform="translate(117 300)">
                    <g id="그룹_1083" transform="translate(228.596 2775.224)">
                        <ellipse id="타원_302" cx="46.5" cy="47" class="cls-11" rx="46.5" ry="47" transform="translate(.404 -.224)"/>
                        <g id="noun_financial_report_2278000" transform="translate(4.652 4.652)">
                            <g id="그룹_1070">
                                <path id="패스_1070" d="M49.434 33.691h8.313a.554.554 0 0 1 .567.552 9.424 9.424 0 1 1-9.432-9.432.564.564 0 0 1 .552.567zm-31.208-2.955a.573.573 0 0 1-.6-.507.557.557 0 0 1 .507-.612l1.328-.119-.119-1.328a.564.564 0 0 1 .507-.6.557.557 0 0 1 .612.507l.1 1.328 1.343-.119a.554.554 0 1 1 .09 1.1l-1.328.119.119 1.328a.567.567 0 0 1-.507.612.553.553 0 0 1-.6-.507l-.119-1.328zM11.659 40.78a.55.55 0 0 1-.418-.657.583.583 0 0 1 .672-.433l1.3.3.3-1.3a.558.558 0 1 1 1.09.239l-.3 1.313 1.3.284a.561.561 0 0 1 .418.672.539.539 0 0 1-.657.418l-1.3-.3-.3 1.313a.559.559 0 1 1-1.09-.254l.3-1.3-1.313-.3zm51.968 3.283l-1.313 3.567a.564.564 0 0 1-.716.328.559.559 0 0 1-.328-.716l.821-2.254-24.328 11.553a.561.561 0 1 1-.478-1.015l24.1-11.432-2.4-.478a.563.563 0 1 1 .224-1.1l3.97.791a.564.564 0 0 1 .448.761zM59.12 65.182h2.448V50.914H59.12zm3 1.119h-3.567a.564.564 0 0 1-.553-.567V50.362a.564.564 0 0 1 .552-.567h3.568a.567.567 0 0 1 .567.567v15.372a.567.567 0 0 1-.567.566zm-9.776-1.119h2.448v-10.91h-2.448zm3 1.119h-3.567a.554.554 0 0 1-.552-.567V53.72a.554.554 0 0 1 .552-.567h3.567a.567.567 0 0 1 .567.567v12.014a.567.567 0 0 1-.567.566zm-9.791-1.119h2.463v-8.134h-2.463zm3.015 1.118H45a.567.567 0 0 1-.567-.567v-9.252a.564.564 0 0 1 .567-.552h3.567a.564.564 0 0 1 .567.552v9.253a.567.567 0 0 1-.566.566zm-9.791-1.119h2.448v-4.79h-2.447zm3.015 1.119h-3.567a.567.567 0 0 1-.567-.567v-5.9a.567.567 0 0 1 .567-.567h3.567a.567.567 0 0 1 .567.567v5.9a.567.567 0 0 1-.567.567zm36.819-45.52a.554.554 0 0 1 .1-.791.565.565 0 0 1 .776.1A42.344 42.344 0 0 1 84.746 63a.541.541 0 0 1-.731.284.56.56 0 0 1-.3-.731 41.059 41.059 0 0 0 2.612-8.1 41.21 41.21 0 0 0-7.716-33.67zM66.493 81.734a.558.558 0 1 1 .552.97 42.3 42.3 0 0 1-41.58.328.565.565 0 0 1 .552-.985 41.26 41.26 0 0 0 40.476-.313zM6.212 56.869a.558.558 0 0 1-.4.672.538.538 0 0 1-.672-.388A41.4 41.4 0 0 1 4 51.616a42.345 42.345 0 0 1 62.266-42.8.557.557 0 0 1-.522.985 41.229 41.229 0 0 0-61 36.177 40.6 40.6 0 0 0 1.463 10.9zm6.268-5.985h16.94a.564.564 0 0 1 .552.567v7.612a.564.564 0 0 1-.552.567H12.48a.554.554 0 0 1-.552-.567v-7.612a.554.554 0 0 1 .552-.567zM28.853 52H13.047v6.507h15.806zM11.3 48.69h14.732V17.005a3.943 3.943 0 0 1 3.94-3.925h15.552a2.4 2.4 0 0 1-.314-1.18 2.3 2.3 0 0 1 .672-1.627 2.331 2.331 0 0 1 1.612-.673h4.97a2.293 2.293 0 0 1 2.3 2.3 2.258 2.258 0 0 1-.328 1.179h16.3a3.949 3.949 0 0 1 3.925 3.925V75.9a3.94 3.94 0 0 1-3.925 3.925c-19.82 0-39.625-.1-59.43-.1a1.784 1.784 0 0 1-1.766-1.767V50.451a1.733 1.733 0 0 1 1.76-1.761zm15.269 1.12H11.3a.614.614 0 0 0-.642.642v27.506a.644.644 0 0 0 .179.448.655.655 0 0 0 .463.194h19.3a.655.655 0 0 0 .463-.194.644.644 0 0 0 .179-.448V50.451a.614.614 0 0 0-.642-.642h-4.03zm53.1 28.79v1.06a.567.567 0 0 1-1.134 0v-1.09l-1.505-7.06.328-36.73a.481.481 0 0 1 .09-.343l.522-.731.015-3.134a.554.554 0 0 1 .567-.552h1.582a.564.564 0 0 1 .552.567l-.015 3.134.507.731a.509.509 0 0 1 .1.328v.746h.239a.554.554 0 0 1 .552.567.561.561 0 0 1-.552.552h-.239v.433l.224.015a.552.552 0 1 1 0 1.1h-.224v.433l1.433 3.552a.637.637 0 0 1 .015.373l-1.4 5.059.985 2a.573.573 0 0 1-.269.746.56.56 0 0 1-.746-.269l-.015-.015q.022 10.768.015 21.566zm-.789-11.1a.561.561 0 0 1 .552.552.551.551 0 0 1-.552.552h-.761l-.03 2.836 1.03 4.6 1.075-4.582v-.925h-.761a.56.56 0 0 1 0-1.119h.761q0-17.216-.03-34.461l-.284-.418h-1.119l-.3.418-.342 32.527zm2.4-23.909l.328-1.164-.328-.806zm-1.728-10.184l.015-2.269H79.1l-.015 2.269zM69.687 68.6l-6.387-.03-.03 6.373zm-6.94-1.149l7.731.03V17.11H59.4a3.5 3.5 0 0 1-.97 1.91 3.4 3.4 0 0 1-2.448 1.03H44.016a3.43 3.43 0 0 1-2.448-1.03 3.66 3.66 0 0 1-.851-1.4 3.123 3.123 0 0 1-.119-.507H30.211V48.69h.389a1.758 1.758 0 0 1 1.761 1.761v25.283H62.15L62.194 68a.561.561 0 0 1 .552-.552zm7.731 1.94l-6.418 6.343h6.418zM29.659 15.975H40.6a3.515 3.515 0 0 1 .881-1.776H29.972a2.8 2.8 0 0 0-2.806 2.806V48.69h1.925V16.542a.567.567 0 0 1 .567-.567zm12.014.522a2.392 2.392 0 0 0 .687 1.7 2.36 2.36 0 0 0 1.657.687h11.97a2.36 2.36 0 0 0 1.657-.687 2.456 2.456 0 0 0 .612-1.045v-.06l.015-.015v-.015l.015-.045v-.03l.015-.06V16.87l.015-.03v-.12l.015-.03v-.18a2.353 2.353 0 0 0-.687-1.627 2.313 2.313 0 0 0-1.657-.687H43.956a2.336 2.336 0 0 0-2.283 2.3zm17.73-.522H71.03a.567.567 0 0 1 .567.567v59.744a.567.567 0 0 1-.567.567H32.36v1.282l-.015.015v.11l-.015.015v.045l-.015.015v.045l-.015.015v.045l-.015.015v.03l-.015.015v.045h-.015v.03l-.015.015v.01l-.015.015v.03l-.015.015v.015l-.015.015v.01h38.536a2.812 2.812 0 0 0 2.806-2.8V17.005a2.812 2.812 0 0 0-2.806-2.805H58.523a3.515 3.515 0 0 1 .881 1.776zm-6.94-5.253h-4.97a1.182 1.182 0 0 0-.821 2.015 1.209 1.209 0 0 0 .791.343h5.03a1.281 1.281 0 0 0 .806-.343 1.179 1.179 0 0 0-.836-2.015zM26.987 72.838a.56.56 0 0 1 0 1.119h-4.149a.56.56 0 0 1 0-1.119zm0-2.03a.56.56 0 0 1 0 1.119h-4.149a.56.56 0 0 1 0-1.119zm-8.149 2.672a.55.55 0 0 1 0 .791.577.577 0 0 1-.791 0L16.988 73.2l-1.075 1.075a.559.559 0 0 1-.791-.791l1.078-1.078-1.075-1.06a.577.577 0 0 1 0-.791.55.55 0 0 1 .791 0l1.075 1.06 1.06-1.06a.559.559 0 1 1 .791.791l-1.06 1.06zm8.149-8.88a.56.56 0 0 1 0 1.119h-4.149a.56.56 0 0 1 0-1.119zm-7.925 0a.56.56 0 0 1 0 1.119H17.54v1.507a.56.56 0 1 1-1.119 0v-1.507h-1.508a.56.56 0 1 1 0-1.119h1.507v-1.507a.56.56 0 1 1 1.119 0V64.6zm32.193-33.043v-8.88a.561.561 0 0 1 .552-.552 9.427 9.427 0 0 1 9.432 9.432.561.561 0 0 1-.552.552h-8.88a.561.561 0 0 1-.552-.552zm1.119-8.3v7.733H60.1a8.322 8.322 0 0 0-7.731-7.731zm4.791 11.553h-8.283a.567.567 0 0 1-.567-.567V25.96a8.316 8.316 0 1 0 8.85 8.85z" class="cls-12" transform="translate(-3.63 -3.625)"/>
                            </g>
                        </g>
                    </g>
                </g>
            </g>
            <g id="그룹_1482">
                <path id="사각형_1655" d="M0 0H129V60H0z" class="cls-11" transform="translate(228 2984)"/>
                <text id="실물자산_시장_분석" class="cls-10" transform="translate(249 3008)">
                    <tspan x="0" y="0">실물자산</tspan><tspan x="0" y="22">시장 분석</tspan>
                </text>
                <g id="그룹_1086" transform="translate(117 312)">
                    <g id="그룹_1082" transform="translate(228.596 2655.056)">
                        <ellipse id="타원_298" cx="46.5" cy="47" class="cls-11" rx="46.5" ry="47" transform="translate(.404 -.056)"/>
                        <g id="noun_Bank_2277988" transform="translate(4.613 4.652)">
                            <g id="그룹_1072">
                                <path id="패스_1072" d="M49.958 26.589a5.448 5.448 0 0 1-3.567 9.283l-.015 2.791a.551.551 0 0 1-.552.552.542.542 0 0 1-.552-.552v-2.836a5.459 5.459 0 0 1-4.642-5.4.56.56 0 1 1 1.119 0 4.34 4.34 0 1 0 7.418-3.06C46.9 25.1 44.615 27.111 42 24.485a5.461 5.461 0 0 1 3.316-9.285l.015-2.806a.552.552 0 1 1 1.1 0V15.2a5.453 5.453 0 0 1 4.88 5.448.561.561 0 0 1-.552.552.551.551 0 0 1-.552-.552 4.34 4.34 0 1 0-7.418 3.045c2.269 2.283 4.537.254 7.164 2.9zm-19.88-15.417a.579.579 0 0 1 .761-.239.566.566 0 0 1 .239.746l-.627 1.194 1.194.612a.561.561 0 0 1-.507 1l-1.194-.627-.612 1.194a.561.561 0 0 1-.746.239.54.54 0 0 1-.239-.746l.612-1.194-1.194-.612a.561.561 0 0 1-.239-.746.553.553 0 0 1 .761-.239l1.179.612.612-1.194zM78.27 55.737a.561.561 0 0 1 .642-.463.577.577 0 0 1 .463.642l-.224 1.328 1.313.224a.569.569 0 0 1 .463.642.577.577 0 0 1-.642.463l-1.328-.224-.224 1.313a.553.553 0 0 1-1.09-.194l.209-1.313-1.313-.224a.547.547 0 0 1-.448-.642.561.561 0 0 1 .642-.463l1.313.224.224-1.313zm-6.85-35.476a.553.553 0 1 1 1.09-.194l.239 1.313 1.313-.224a.57.57 0 0 1 .657.448.558.558 0 0 1-.463.642l-1.313.239.239 1.313a.553.553 0 1 1-1.09.194l-.239-1.313-1.313.239a.555.555 0 1 1-.209-1.09l1.328-.239-.239-1.328zM13.094 52.648a.554.554 0 1 1 .985.507l-.612 1.194 1.194.612a.557.557 0 1 1-.522.985l-1.179-.612-.612 1.179a.561.561 0 0 1-1-.507l.627-1.194-1.194-.612a.554.554 0 0 1 .507-.985l1.194.612zm2.776-28.372a.577.577 0 0 1 .63-.476.565.565 0 0 1 .478.627l-.178 1.326 1.328.179a.557.557 0 0 1 .478.627.568.568 0 0 1-.627.478l-1.328-.179-.179 1.328a.553.553 0 0 1-.612.478.576.576 0 0 1-.493-.627l.179-1.328-1.313-.179a.554.554 0 0 1-.493-.612.576.576 0 0 1 .627-.493l1.328.179zm-4.492 44.117a.561.561 0 1 1-.94.612A42.363 42.363 0 0 1 45.973 3.62a42.352 42.352 0 0 1 35.61 65.266.553.553 0 0 1-.761.164.544.544 0 0 1-.179-.761 41.243 41.243 0 1 0-69.265.1zM30.153 48.5h31.655v-1.986a2.744 2.744 0 0 1-1.239-.687 2.541 2.541 0 0 1-.746-1.791v-1.418h-27.7v1.418a2.541 2.541 0 0 1-.746 1.791 2.694 2.694 0 0 1-1.224.687V48.5zm31.655 1.119h-7.791a2.937 2.937 0 0 1 .612 1.776V74.2h5.194v-1.419a2.541 2.541 0 0 1 .746-1.791 2.586 2.586 0 0 1 1.239-.672v-20.7zm-23.879 0h-7.776v20.7a2.526 2.526 0 0 1 1.97 2.463V74.2h5.194V51.4a2.937 2.937 0 0 1 .612-1.776zM45.421 74.2V54.125a.554.554 0 0 1 .552-.567.567.567 0 0 1 .567.567V74.2h6.97V51.4a1.785 1.785 0 0 0-1.731-1.776H40.167a1.785 1.785 0 0 0-1.731 1.776v22.8zm11.3-43.655a.56.56 0 1 1 0-1.119h12.833l-17.6-17.581a8.467 8.467 0 0 0-11.97 0l-23.7 23.685h21.749a.56.56 0 1 1 0 1.119H15.169L10.333 41.5h71.28l-10.94-10.956H56.719zm26.638 11.118a.55.55 0 0 1 0 .791.569.569 0 0 1-.388.164h-8.059v1.418a2.541 2.541 0 0 1-.746 1.791 2.619 2.619 0 0 1-1.224.687v23.8a2.473 2.473 0 0 1 1.224.672 2.541 2.541 0 0 1 .746 1.791V74.2h4.1a.567.567 0 0 1 .567.567v5.94h5.865a.564.564 0 0 1 .567.552v6.507a.567.567 0 0 1-.567.567H6.5a.554.554 0 0 1-.552-.567v-6.508a.551.551 0 0 1 .552-.552h5.865v-5.94a.567.567 0 0 1 .567-.567h4.1v-1.418A2.526 2.526 0 0 1 19 70.318v-23.8a2.694 2.694 0 0 1-1.224-.687 2.541 2.541 0 0 1-.746-1.791v-1.422H8.975a.564.564 0 0 1-.552-.567.555.555 0 0 1 .194-.418L39.2 11.053a9.584 9.584 0 0 1 13.552 0c10.313 10.3 20.357 20.357 30.61 30.611zm-4.9 33.67H13.482v5.373h64.982zM7.064 87.2H84.9v-5.375H7.064zm59.744-38.91a.56.56 0 0 1 1.119 0v19.7a.56.56 0 0 1-1.119 0zm5.015-1.716h-8.9v23.67h8.9zm1.97-3.955H60.957l-.015 1.418a1.427 1.427 0 0 0 1.418 1.418h10.015a1.427 1.427 0 0 0 1.418-1.418zM60.943 74.2h12.85v-1.419a1.4 1.4 0 0 0-1.418-1.4H62.36a1.4 1.4 0 0 0-1.418 1.4V74.2zM24.019 48.29a.56.56 0 0 1 1.119 0v19.7a.56.56 0 0 1-1.119 0zm5-1.716h-8.88v23.67h8.88V46.573zM31 42.618H18.168l-.015 1.418a1.427 1.427 0 0 0 1.418 1.418h10.015A1.427 1.427 0 0 0 31 44.036zM18.154 74.2H31v-1.419a1.4 1.4 0 0 0-1.418-1.4H19.571a1.4 1.4 0 0 0-1.418 1.4V74.2z" class="cls-12" transform="translate(-3.626 -3.62)"/>
                            </g>
                        </g>
                    </g>
                </g>
            </g>
            <g id="그룹_1481">
                <path id="사각형_1654" d="M0 0H129V60H0z" class="cls-11" transform="translate(228 2880)"/>
                <text id="산업별_Data_분석" class="cls-10" transform="translate(249 2901)">
                    <tspan x="0" y="0">산업별</tspan><tspan x="0" y="22">Data 분석</tspan>
                </text>
                <g id="그룹_1085" transform="translate(117 320)">
                    <g id="그룹_1081" transform="translate(228.596 2539.539)">
                        <circle id="타원_297" cx="46.5" cy="46.5" r="46.5" class="cls-11" transform="translate(.404 .461)"/>
                        <g id="noun_Planning_2277991" transform="translate(4.652 3.102)">
                            <g id="그룹_1073">
                                <path id="패스_1073" d="M20.17 32.022h5.268a5.182 5.182 0 0 1 8.82-3.1 5.216 5.216 0 0 1 1.492 3.1h11.075a.561.561 0 0 1 .552.552 4.067 4.067 0 1 0 8.134 0 .551.551 0 0 1 .552-.552h5.806a.551.551 0 0 1 .552.552v5.268a5.182 5.182 0 0 1 3.1 8.82 5.133 5.133 0 0 1-3.1 1.492V59.23a.554.554 0 0 1-.552.567 4.06 4.06 0 0 0 0 8.119.551.551 0 0 1 .552.552v5.806a.554.554 0 0 1-.552.567H56.6a5.188 5.188 0 0 1-10.313 0h-5.268a.567.567 0 0 1-.567-.567v-5.806a.564.564 0 0 1 .567-.552 4.06 4.06 0 0 0 0-8.119.567.567 0 0 1-.567-.567v-5.239h-4.7a5.3 5.3 0 0 1-1.492 3.1 5.228 5.228 0 0 1-3.673 1.509 5.156 5.156 0 0 1-3.656-1.5 5.214 5.214 0 0 1-1.492-3.1H20.17a.567.567 0 0 1-.567-.567v-5.815a.564.564 0 0 1 .567-.552 4.06 4.06 0 0 0 0-8.119.567.567 0 0 1-.567-.567v-5.806a.564.564 0 0 1 .567-.552zM9.842 51.842a.557.557 0 1 1 1.045-.388l.463 1.254 1.254-.463a.554.554 0 0 1 .716.343.564.564 0 0 1-.328.716l-1.254.448.463 1.269a.562.562 0 0 1-1.06.373l-.448-1.254-1.254.46a.559.559 0 0 1-.716-.328.547.547 0 0 1 .328-.716L10.3 53.1l-.463-1.254zm62.012 8.686a.555.555 0 0 1 .537-.582.564.564 0 0 1 .582.537l.045 1.343 1.328-.06a.577.577 0 0 1 .582.552.551.551 0 0 1-.537.567l-1.328.045.045 1.343a.56.56 0 0 1-1.119.045l-.045-1.343-1.343.045a.552.552 0 0 1-.03-1.1l1.328-.06-.045-1.328zM79.331 41.5a.564.564 0 0 1 .328-.716.559.559 0 0 1 .716.328l.463 1.269 1.254-.463a.559.559 0 0 1 .716.328.541.541 0 0 1-.328.716l-1.254.463.463 1.254a.564.564 0 0 1-.328.716.559.559 0 0 1-.716-.328l-.463-1.267-1.254.463a.559.559 0 0 1-.716-.328.564.564 0 0 1 .328-.716l1.254-.463zM28.677 17.8a.561.561 0 0 1 .851.731l-.881 1.015 1.015.866a.561.561 0 1 1-.731.851l-1.015-.881-.866 1.018a.564.564 0 0 1-.791.045.547.547 0 0 1-.06-.776l.881-1.015-1.015-.866a.58.58 0 0 1-.06-.791.566.566 0 0 1 .791-.06l1.015.881zm14.805-2.418a.561.561 0 0 1 .194 1.1l-1.328.224.224 1.313a.552.552 0 1 1-1.09.179l-.224-1.313-1.328.224a.566.566 0 0 1-.642-.463.577.577 0 0 1 .463-.642l1.313-.224-.224-1.313a.569.569 0 0 1 .463-.642.558.558 0 0 1 .642.463l.224 1.313zm39.3 13.283a.557.557 0 0 1 1-.493 42.347 42.347 0 0 1-54.359 58.057.559.559 0 0 1 .433-1.03 41.233 41.233 0 0 0 52.923-56.535zM9.708 66.856a.558.558 0 0 1-.985.522 42.344 42.344 0 0 1 47.1-61.311.561.561 0 0 1 .418.672.573.573 0 0 1-.672.418 41.222 41.222 0 0 0-45.863 59.7zm56.206-47.3a.553.553 0 0 1-.731-.284.566.566 0 0 1 .284-.731l.433-.194a1.971 1.971 0 0 1 .134-.836 1.819 1.819 0 0 1 1.03-1.045.541.541 0 0 1 .731.284.56.56 0 0 1-.3.731.842.842 0 0 0-.418.433.791.791 0 0 0 0 .612.794.794 0 0 0 1.463.015v-.03c.239-.6-.463-1.075-.045-2.134a1.914 1.914 0 0 1 2.492-1.06 2.032 2.032 0 0 1 .746.537l.418-.164a.553.553 0 0 1 .731.284.56.56 0 0 1-.3.731l-.418.179a1.9 1.9 0 0 1-1.149 1.97l-.209.045a.567.567 0 0 1-.567-.567.546.546 0 0 1 .388-.522.809.809 0 0 0-.06-1.463.909.909 0 0 0-.6 0 .843.843 0 0 0-.433.448c-.239.582.463 1.164.03 2.164a1.911 1.911 0 0 1-3.264.441l-.388.164zm7.97-16.268l2.3 4.746a5.181 5.181 0 0 1 4.492 9.268l2.3 4.746a.563.563 0 0 1-.254.746L77.5 25.336a.563.563 0 0 1-.746-.254 4.062 4.062 0 1 0-7.313 3.537.556.556 0 0 1-.269.746L63.959 31.9a.556.556 0 0 1-.746-.269l-2.3-4.746a5.183 5.183 0 0 1-4.507-9.268l-2.3-4.746a.56.56 0 0 1 .269-.746l5.225-2.52a.545.545 0 0 1 .731.254 4.069 4.069 0 0 0 7.329-3.537.55.55 0 0 1 .254-.746l5.224-2.537a.567.567 0 0 1 .746.254zm1.522 5.716l-2.284-4.712-4.253 2.045a5.183 5.183 0 0 1-9.269 4.507l-4.239 2.045 2.283 4.731a.567.567 0 0 1-.254.746 4.062 4.062 0 0 0 3.537 7.313.55.55 0 0 1 .746.254l2.3 4.716 4.239-2.06A5.18 5.18 0 0 1 77.48 24.1l4.239-2.06-2.254-4.671a.491.491 0 0 1-.09-.284.547.547 0 0 1 .373-.522 4.068 4.068 0 0 0-3.6-7.3.563.563 0 0 1-.746-.254zM31.811 43.872a1.027 1.027 0 0 1 1.463-.149 1.041 1.041 0 0 1 .149 1.463 1.04 1.04 0 1 1-1.612-1.313zm-3.224 2.508a.563.563 0 0 1-.881-.7l4.9-6.044a.567.567 0 0 1 .791-.09.547.547 0 0 1 .075.776zm-.642-5.731a1.04 1.04 0 0 1 1.612 1.313 1.04 1.04 0 1 1-1.612-1.313zm25.506 3.567a.577.577 0 0 1 0 .791.55.55 0 0 1-.791 0L51.437 43.8l-1.209 1.209a.559.559 0 1 1-.791-.791l1.209-1.209-1.209-1.224a.55.55 0 0 1 0-.791.577.577 0 0 1 .791 0l1.209 1.224 1.224-1.224a.559.559 0 1 1 .791.791l-1.224 1.224zm.269 19.074a.56.56 0 1 1 0 1.119h-4.552a.56.56 0 1 1 0-1.119zm-28.356 9.835a.554.554 0 1 1 .478 1l-1.567.731.731 1.567a.543.543 0 0 1-.269.731.556.556 0 0 1-.746-.269l-.716-1.552-1.567.731a.561.561 0 0 1-.478-1.015l1.567-.731-.731-1.552a.561.561 0 1 1 1.015-.478l.731 1.567zm3.686-12.91l2.45 4.671a5.18 5.18 0 0 1 4.791 9.119l2.448 4.671a.584.584 0 0 1-.239.761l-5.134 2.686a.557.557 0 0 1-.761-.239A3.975 3.975 0 0 0 30.2 79.9a4.056 4.056 0 0 0-4.791 5.761.563.563 0 0 1-.3.791l-5.074 2.657a.543.543 0 0 1-.746-.224l-2.463-4.671a5.184 5.184 0 0 1-6.835-6.373 5.131 5.131 0 0 1 2.06-2.746L9.6 70.408a.548.548 0 0 1 .239-.746l5.134-2.686c.343-.179.582 0 .776.269a4.053 4.053 0 0 0 7.447-.716 4.11 4.11 0 0 0-.269-3.1.537.537 0 0 1 .239-.746l5.134-2.7a.561.561 0 0 1 .746.239zm1.716 5.656l-2.447-4.641-4.179 2.194a5.131 5.131 0 0 1 .134 3.433 5.185 5.185 0 0 1-9.253 1.343l-4.179 2.194 2.418 4.612a.546.546 0 0 1-.209.791 4 4 0 0 0-2 2.388 4.065 4.065 0 0 0 5.716 4.836.559.559 0 0 1 .806.209l2.433 4.642 4.179-2.194a5.131 5.131 0 0 1-.119-3.433A5.157 5.157 0 0 1 33.3 80.9l4.2-2.194-2.45-4.656a.566.566 0 0 1 .239-.746 4.013 4.013 0 0 0 1.985-2.388 4.056 4.056 0 0 0-5.761-4.806.561.561 0 0 1-.746-.239zM61.3 53.991h-5.236a.554.554 0 0 1-.552-.567 4.067 4.067 0 0 0-8.134 0 .564.564 0 0 1-.552.567h-5.239v4.716a5.18 5.18 0 0 1 0 10.3v4.716h5.239a.551.551 0 0 1 .552.552 4.067 4.067 0 1 0 8.134 0 .542.542 0 0 1 .552-.552H61.3v-4.718a5.18 5.18 0 0 1 0-10.3v-4.714zm-19.713-20.85v5.239a.567.567 0 0 1-.567.567 4.06 4.06 0 0 0 0 8.119.564.564 0 0 1 .567.552v5.253h4.7a5.187 5.187 0 0 1 10.313 0h4.7v-5.253a.564.564 0 0 1 .567-.552 4.06 4.06 0 1 0 0-8.119.567.567 0 0 1-.567-.567v-5.239h-4.7a5.188 5.188 0 0 1-10.313 0h-4.7zm-15.611 0h-5.239v4.7a5.189 5.189 0 0 1 0 10.313v4.716h5.239a.561.561 0 0 1 .552.552 4.067 4.067 0 1 0 8.134 0 .551.551 0 0 1 .552-.552h5.239v-4.714a5.183 5.183 0 0 1-.045-10.3l.045-.015v-4.7h-5.239a.554.554 0 0 1-.552-.567 4.067 4.067 0 0 0-8.134 0 .564.564 0 0 1-.553.567z" class="cls-12" transform="translate(-3.624 -2.983)"/>
                            </g>
                        </g>
                    </g>
                </g>
            </g>
            <g id="그룹_1480">
                <path id="사각형_1653" d="M0 0H129V60H0z" class="cls-11" transform="translate(228 2769)"/>
                <text id="글로벌_경제_Data_분석" class="cls-10" transform="translate(249 2793)">
                    <tspan x="0" y="0">글로벌 경제</tspan><tspan x="0" y="22">Data 분석</tspan>
                </text>
                <g id="그룹_1084" transform="translate(117 321)">
                    <ellipse id="타원_303" cx="46.5" cy="47" class="cls-11" rx="46.5" ry="47" transform="translate(229 2431)"/>
                    <g id="noun_exchange_2278010" transform="translate(232.472 2435.652)">
                        <g id="그룹_1074">
                            <path id="패스_1074" d="M73.04 73.811a5.42 5.42 0 0 1-1.731 6.179h8.507a.56.56 0 1 1 0 1.119H68.532a.56.56 0 0 1-.03-1.119 3.615 3.615 0 0 0 .866-.194 4.306 4.306 0 0 0 2.791-3.06 4.35 4.35 0 0 0-.328-2.925h-3.3a.56.56 0 1 1 0-1.119h2.716a5.43 5.43 0 0 1 2.209-6.656 5.4 5.4 0 0 1 5.373-.149.558.558 0 0 1-.522.985 4.226 4.226 0 0 0-2.149-.507 4.128 4.128 0 0 0-2.119.627 4.347 4.347 0 0 0-1.955 2.657 4.276 4.276 0 0 0 .4 3.045H76.2a.56.56 0 0 1 0 1.119h-3.16zM42.8 9.53a.568.568 0 0 1 .627-.478.577.577 0 0 1 .478.627l-.179 1.328 1.328.179a.549.549 0 0 1 .478.627.568.568 0 0 1-.627.478l-1.328-.179-.177 1.328a.553.553 0 0 1-.612.478.576.576 0 0 1-.493-.627l.179-1.328-1.328-.179a.559.559 0 0 1-.478-.627.577.577 0 0 1 .627-.478l1.328.179zm-8.684 66.221a.558.558 0 0 1 .642-.463.569.569 0 0 1 .463.642L35 77.243l1.313.224a.577.577 0 0 1 .463.642.558.558 0 0 1-.642.463l-1.334-.224-.209 1.313a.566.566 0 0 1-.642.463.558.558 0 0 1-.463-.642l.224-1.313-1.31-.224a.566.566 0 0 1-.463-.642.558.558 0 0 1 .642-.463l1.313.224zm-13.193-15.6a.554.554 0 1 1 .985.507l-.608 1.198 1.194.612a.557.557 0 1 1-.522.985l-1.179-.612-.627 1.179a.537.537 0 0 1-.746.239.561.561 0 0 1-.239-.746l.612-1.179-1.179-.627a.548.548 0 0 1-.239-.746.561.561 0 0 1 .746-.239l1.194.612.612-1.179zm17.313-1.94l-6.3-6.283-5.372 5.372a.563.563 0 0 1-.791 0 .569.569 0 0 1-.164-.358L24.4 39.23a.556.556 0 0 1 .522-.6l17.507 1.492a.579.579 0 0 1 .522.612.608.608 0 0 1-.194.373L37.7 46.185l6.117 6.115a.559.559 0 0 1-.791.791l-6.507-6.507a.577.577 0 0 1 0-.791l4.627-4.657L25.549 39.8l1.09 15.85 4.91-4.91a.577.577 0 0 1 .791 0l6.686 6.686c.493.507-.269 1.328-.791.791zm39.8-27.655a.569.569 0 0 1 .642-.463.577.577 0 0 1 .463.642l-.224 1.328 1.313.224a.561.561 0 0 1 .463.642.555.555 0 0 1-.642.448l-1.328-.224-.223 1.316a.552.552 0 1 1-1.09-.179l.209-1.313-1.313-.224a.547.547 0 0 1-.448-.642.561.561 0 0 1 .642-.463l1.313.224.224-1.313zm-11.19-15.131a.548.548 0 0 1 .746-.239.537.537 0 0 1 .239.746l-.612 1.194 1.194.612a.561.561 0 0 1 .239.746.553.553 0 0 1-.761.239l-1.179-.612-.612 1.18a.553.553 0 0 1-.761.239.561.561 0 0 1-.239-.746l.612-1.179-1.179-.612a.561.561 0 0 1 .507-1l1.194.612zM58.07 85.362a.562.562 0 1 1 .328 1.075A42.35 42.35 0 0 1 3.655 45.946a42.105 42.105 0 0 1 1.7-11.88.544.544 0 0 1 .687-.373.558.558 0 0 1 .388.687 41.226 41.226 0 0 0 51.64 50.982zm15.074-27.4a15.216 15.216 0 1 1-15.208 15.222 15.217 15.217 0 0 1 15.208-15.223zm0 1.119a14.1 14.1 0 1 0 14.1 14.1 14.1 14.1 0 0 0-14.1-14.101zM34.4 6.381a.56.56 0 0 1-.313-1.075 42.33 42.33 0 0 1 53.788 46.953 43.831 43.831 0 0 1-1.4 6.164.562.562 0 0 1-1.075-.328 43.143 43.143 0 0 0 1.373-6 42.32 42.32 0 0 0 .463-6.149A41.22 41.22 0 0 0 34.4 6.381zm-4.851 1.642a15.213 15.213 0 1 1-21.506 0 15.26 15.26 0 0 1 21.506 0zm-.791.791a14.1 14.1 0 1 0 0 19.939 14.152 14.152 0 0 0 0-19.939zm24.879 54.878a.577.577 0 0 1 0-.791.55.55 0 0 1 .791 0l1.209 1.209a.55.55 0 0 1 0 .791.577.577 0 0 1-.791 0zm-2.97 5.388a.55.55 0 0 1 0 .791.577.577 0 0 1-.791 0L48.817 68.8a.55.55 0 0 1 0-.791.577.577 0 0 1 .791 0zm-4.492-12.85a.559.559 0 1 1 .791-.791l4.448 4.448a.55.55 0 0 1 0 .791.577.577 0 0 1-.791 0zm.269 8.626a.55.55 0 0 1 0 .791.559.559 0 0 1-.776 0l-4.358-4.358a.55.55 0 0 1 0-.791.559.559 0 0 1 .776 0l4.358 4.358zM38.355 28.2a.55.55 0 0 1 0 .791.577.577 0 0 1-.791 0l-1.209-1.209a.577.577 0 0 1 0-.791.563.563 0 0 1 .791 0zm14.626 6.253a.55.55 0 0 1 0-.791.577.577 0 0 1 .791 0l6.283 6.3 5.388-5.373a.55.55 0 0 1 .791 0 .521.521 0 0 1 .149.358l1.224 17.716a.566.566 0 0 1-.522.6l-17.522-1.511a.544.544 0 0 1-.507-.6.513.513 0 0 1 .194-.373l5.045-5.074-6.1-6.119a.55.55 0 0 1 0-.791.559.559 0 0 1 .776 0l6.502 6.505a.55.55 0 0 1 0 .791l-4.627 4.657 15.6 1.343-1.09-15.85-4.9 4.9a.55.55 0 0 1-.791 0l-6.686-6.686zm-11.656-11.64a.559.559 0 0 1 .791-.791L43.19 23.1a.559.559 0 0 1-.791.791l-1.075-1.075zm4.492 12.85a.55.55 0 0 1 0 .791.577.577 0 0 1-.791 0l-4.448-4.448a.577.577 0 0 1 0-.791.55.55 0 0 1 .791 0zm-.269-8.626a.577.577 0 0 1 0-.791.55.55 0 0 1 .791 0L50.7 30.6a.559.559 0 0 1-.791.791zm-26.3.567a.56.56 0 1 1-1.119 0v-1.746a3.921 3.921 0 0 1-2-1.075 3.847 3.847 0 0 1-1.119-2.716.56.56 0 0 1 1.119 0 2.733 2.733 0 0 0 4.671 1.94 2.748 2.748 0 0 0 0-3.865c-1.43-1.448-3.012-.12-4.8-1.942a3.834 3.834 0 0 1 2.179-6.522v-1.73a.56.56 0 0 1 1.119 0l-.015 1.731a3.808 3.808 0 0 1 2.164 1.09 3.726 3.726 0 0 1 1.119 2.716.554.554 0 0 1-.552.567.564.564 0 0 1-.552-.567 2.739 2.739 0 1 0-4.686 1.925c1.448 1.463 3.015.134 4.821 1.94a3.86 3.86 0 0 1-.015 5.448 3.764 3.764 0 0 1-2.328 1.1v1.7z" class="cls-12" transform="translate(-3.61 -3.59)"/>
                        </g>
                    </g>
                </g>
            </g>
            <g id="그룹_1459">
                <text id="적정_배당_선호_투자자_중위험_중수익_" class="cls-3" transform="translate(889 3045)">
                    <tspan x="-72.165" y="0">적정 배당 선호 투자자</tspan><tspan class="cls-4"><tspan x="-56.738" y="27">(중위험 / 중수익)</tspan></tspan>
                </text>
                <path id="user-4" d="M24.664 31.025S7.7 31.025 1.333 45.87a70.163 70.163 0 0 0 23.331 4.242 70.163 70.163 0 0 0 23.33-4.242c-6.362-14.845-23.33-14.845-23.33-14.845zm0-2.12c6.363 0 10.605-6.362 10.605-16.967s-10.605-10.6-10.605-10.6-10.605 0-10.605 10.6S18.3 28.9 24.664 28.9z" class="cls-5" transform="translate(857.893 2967.133)"/>
                <g id="noun_Business_2910157" transform="translate(911.204 2959.721)">
                    <g id="그룹_1134">
                        <path id="패스_1126" fill="#abd4dd" stroke="#abd4dd" stroke-width="1.2px" d="M29.873 16a13.873 13.873 0 1 0 13.872 13.873A13.865 13.865 0 0 0 29.873 16zm12.716 13.873a12.667 12.667 0 0 1-3.3 8.542l-5.323-6.387a4.62 4.62 0 0 0-3.512-6.742V17.17a12.732 12.732 0 0 1 12.135 12.703zm-16.185 0a3.468 3.468 0 1 1 3.468 3.468 3.472 3.472 0 0 1-3.472-3.468zm2.89-12.7v8.116a4.62 4.62 0 0 0-3.512 6.742l-5.322 6.384a12.71 12.71 0 0 1 8.835-21.245zm-8.015 22.065L26.474 33a4.616 4.616 0 0 0 6.8 0l5.195 6.233a12.691 12.691 0 0 1-17.19.005z" transform="translate(-16 -16)"/>
                    </g>
                </g>
            </g>
            <g id="그룹_1475">
                <g id="그룹_1455">
                    <g id="그룹_1454">
                        <g filter="url(#패스_1100)" transform="translate(228 2632)">
                            <g id="패스_1100-2" class="cls-14">
                                <path d="M-6497.335-2207.448l-71.818-41.464v-82.93l71.818-41.464 71.819 41.465v82.929l-71.82 41.464z" class="cls-19" transform="translate(6899.56 2480.46)"/>
                                <path d="M-6497.335-2208.602l70.819-40.888v-81.774l-70.82-40.887-70.817 40.887v81.774l70.818 40.888m0 2.309l-72.818-42.042v-84.084l72.818-42.041 72.819 42.041v84.084l-72.82 42.042z" class="cls-21" transform="translate(6899.56 2480.46)"/>
                            </g>
                        </g>
                        <path id="선_690" d="M0 0L88 0" class="cls-15" transform="translate(581.5 2861.5)"/>
                        <g id="그룹_604" transform="translate(590.03 2790)">
                            <g id="그룹_594" transform="translate(57.743 37.139)">
                                <g id="그룹_590" transform="translate(10.214 10.214)">
                                    <path id="패스_485" d="M219.916 184.984a.629.629 0 0 1-.629-.629v-22.92a.629.629 0 1 1 1.258 0v22.921a.629.629 0 0 1-.629.628z" class="cls-16" transform="translate(-219.287 -160.806)"/>
                                </g>
                                <g id="그룹_591">
                                    <path id="패스_486" d="M208.03 160.392a10.843 10.843 0 1 1 10.843-10.843 10.855 10.855 0 0 1-10.843 10.843zm0-20.428a9.586 9.586 0 1 0 9.585 9.586 9.6 9.6 0 0 0-9.585-9.586z" class="cls-16" transform="translate(-197.187 -138.706)"/>
                                </g>
                                <g id="그룹_592" transform="translate(10.214 10.888)">
                                    <path id="패스_487" d="M219.916 170.019a.629.629 0 0 1-.445-1.073l6.5-6.5a.629.629 0 0 1 .889.889l-6.5 6.5a.625.625 0 0 1-.444.184z" class="cls-16" transform="translate(-219.287 -162.265)"/>
                                </g>
                                <g id="그룹_593" transform="translate(5.526 9.418)">
                                    <path id="패스_488" d="M214.46 165.029a.627.627 0 0 1-.445-.184l-4.688-4.688a.629.629 0 1 1 .889-.889l4.688 4.689a.629.629 0 0 1-.444 1.073z" class="cls-16" transform="translate(-209.143 -159.083)"/>
                                </g>
                            </g>
                            <g id="그룹_595" transform="translate(0 11.685)">
                                <path id="패스_489" d="M99.508 143.478h-26.63a.629.629 0 0 1-.629-.629V94.067a.629.629 0 0 1 .412-.59l26.63-9.806a.628.628 0 0 1 .846.59v58.589a.628.628 0 0 1-.629.628zm-26-1.257H98.88V85.163l-25.373 9.342z" class="cls-16" transform="translate(-72.249 -83.632)"/>
                            </g>
                            <g id="그룹_596" transform="translate(26.573)">
                                <path id="패스_490" d="M157 129.881h-26.63a.629.629 0 0 1-.629-.629V58.979a.629.629 0 0 1 .846-.59l26.631 9.806a.628.628 0 0 1 .411.59v60.468a.629.629 0 0 1-.629.628zm-26-1.257h25.372v-59.4L131 59.88z" class="cls-16" transform="translate(-129.745 -58.35)"/>
                            </g>
                            <g id="그룹_597" transform="translate(35.544 54.615)">
                                <path id="패스_491" d="M158.725 193.425h-8.942a.629.629 0 0 1-.629-.629v-15.647a.629.629 0 0 1 .629-.629h8.942a.629.629 0 0 1 .629.629V192.8a.629.629 0 0 1-.629.625zm-8.313-1.258h7.688v-14.39h-7.684z" class="cls-16" transform="translate(-149.154 -176.52)"/>
                            </g>
                            <g id="그룹_598" transform="translate(30.626 40.896)">
                                <path id="패스_492" d="M157.919 155.693h-18.777a.629.629 0 0 1-.629-.629v-7.6a.629.629 0 0 1 .629-.629h18.778a.629.629 0 0 1 .629.629v7.6a.629.629 0 0 1-.63.629zm-18.149-1.258h17.52v-6.343h-17.52z" class="cls-16" transform="translate(-138.513 -146.835)"/>
                            </g>
                            <g id="그룹_599" transform="translate(30.626 27.483)">
                                <path id="패스_493" d="M157.919 126.672h-18.777a.629.629 0 0 1-.629-.629v-7.6a.629.629 0 0 1 .629-.629h18.778a.629.629 0 0 1 .629.629v7.6a.629.629 0 0 1-.63.629zm-18.149-1.258h17.52v-6.343h-17.52z" class="cls-16" transform="translate(-138.513 -117.814)"/>
                            </g>
                            <g id="그룹_600" transform="translate(3.8 40.896)">
                                <path id="패스_494" d="M99.878 155.693H81.1a.629.629 0 0 1-.629-.629v-7.6a.629.629 0 0 1 .629-.629h18.778a.629.629 0 0 1 .629.629v7.6a.629.629 0 0 1-.629.629zm-18.149-1.258H99.25v-6.343H81.729z" class="cls-16" transform="translate(-80.472 -146.835)"/>
                            </g>
                            <g id="그룹_601" transform="translate(3.8 27.483)">
                                <path id="패스_495" d="M99.878 126.672H81.1a.629.629 0 0 1-.629-.629v-7.6a.629.629 0 0 1 .629-.629h18.778a.629.629 0 0 1 .629.629v7.6a.629.629 0 0 1-.629.629zm-18.149-1.258H99.25v-6.343H81.729z" class="cls-16" transform="translate(-80.472 -117.814)"/>
                            </g>
                            <g id="그룹_602" transform="translate(30.626 14.07)">
                                <path id="패스_496" d="M157.919 97.651h-18.777a.629.629 0 0 1-.629-.629v-7.6a.629.629 0 0 1 .629-.629h18.778a.629.629 0 0 1 .629.629v7.6a.629.629 0 0 1-.63.629zm-18.149-1.257h17.52v-6.343h-17.52z" class="cls-16" transform="translate(-138.513 -88.793)"/>
                            </g>
                            <g id="그룹_603" transform="translate(8.718 54.615)">
                                <path id="패스_497" d="M100.683 193.425h-8.941a.629.629 0 0 1-.629-.629v-15.647a.629.629 0 0 1 .629-.629h8.942a.629.629 0 0 1 .629.629V192.8a.629.629 0 0 1-.63.625zm-8.313-1.258h7.685v-14.39H92.37z" class="cls-16" transform="translate(-91.113 -176.52)"/>
                            </g>
                        </g>
                    </g>
                    <g id="그룹_1447" transform="translate(620 2721)">
                        <g id="그룹_1470" transform="translate(1.692 2.516)">
                            <path id="패스_1160" d="M51.469 73.056l1.131.244a1.482 1.482 0 0 0 1.726-.993l.354-1.1a1.475 1.475 0 0 1 .958-.958l1.1-.354a1.478 1.478 0 0 0 .993-1.726l-.242-1.131a1.447 1.447 0 0 1 .354-1.3l.777-.855a1.481 1.481 0 0 0 0-1.985l-.777-.855a1.5 1.5 0 0 1-.354-1.3l.242-1.131a1.482 1.482 0 0 0-.993-1.726l-1.1-.354a1.475 1.475 0 0 1-.958-.958l-.354-1.1a1.478 1.478 0 0 0-1.726-.993l-1.131.242a1.447 1.447 0 0 1-1.3-.354l-.855-.777a1.481 1.481 0 0 0-1.985 0l-.855.777a1.5 1.5 0 0 1-1.3.354l-1.131-.242a1.482 1.482 0 0 0-1.726.993l-.354 1.1a1.475 1.475 0 0 1-.958.958l-1.1.354a1.478 1.478 0 0 0-.993 1.726l.242 1.131a1.447 1.447 0 0 1-.354 1.3l-.777.855a1.481 1.481 0 0 0 0 1.985l.777.855a1.5 1.5 0 0 1 .354 1.3l-.242 1.131A1.482 1.482 0 0 0 39.9 69.9l1.1.354a1.475 1.475 0 0 1 .958.958l.354 1.1a1.478 1.478 0 0 0 1.726.993l1.131-.242a1.447 1.447 0 0 1 1.3.354l.855.777a1.481 1.481 0 0 0 1.985 0l.855-.777a1.465 1.465 0 0 1 1.305-.361zm-3.159-1.148a8.017 8.017 0 1 1 5.671-2.348 7.995 7.995 0 0 1-5.672 2.347z" class="cls-12"/>
                            <path id="패스_1161" d="M45.728 77.377a.371.371 0 0 0-.242-.095.239.239 0 0 0-.078.009l-1.131.242a2.914 2.914 0 0 1-.544.06 2.579 2.579 0 0 1-2.322-1.433L37.76 86.2l3.652-1.847 1.6 3.755 3.608-9.927-.035-.035z" class="cls-12" transform="translate(-.017 -3.139)"/>
                            <path id="패스_1163" d="M54.863 77.6a2.29 2.29 0 0 1-.544-.069l-1.131-.242a.239.239 0 0 0-.078-.009.354.354 0 0 0-.242.095l-.855.777-.035.035 3.608 9.919 1.606-3.764 3.651 1.847-3.649-10.039a2.592 2.592 0 0 1-2.331 1.45z" class="cls-12" transform="translate(-1.961 -3.138)"/>
                        </g>
                    </g>
                </g>
            </g>
            <g id="그룹_1473">
                <g id="그룹_1451">
                    <g id="그룹_1450">
                        <g filter="url(#패스_1102)" transform="translate(228 2632)">
                            <g id="패스_1102-2" class="cls-14">
                                <path d="M-6497.335-2207.448l-71.818-41.464v-82.93l71.818-41.464 71.819 41.465v82.929l-71.82 41.464z" class="cls-19" transform="translate(6899.56 2865.15)"/>
                                <path d="M-6497.335-2208.602l70.819-40.888v-81.774l-70.82-40.887-70.817 40.887v81.774l70.818 40.888m0 2.309l-72.818-42.042v-84.084l72.818-42.041 72.819 42.041v84.084l-72.82 42.042z" class="cls-21" transform="translate(6899.56 2865.15)"/>
                            </g>
                        </g>
                        <g id="그룹_1472" transform="translate(0 -5)">
                            <path id="선_692" d="M0 0L88 0" class="cls-15" transform="translate(586.5 3249.5)"/>
                            <g id="그룹_1096" transform="translate(598.794 3177.604)">
                                <g id="그룹_757" transform="translate(12.776)">
                                    <path id="패스_613" d="M1143.814 331.738h-32.046a.508.508 0 0 1-.508-.508v-46.459a.507.507 0 0 1 .18-.388l16.023-13.549a.508.508 0 0 1 .656 0l16.023 13.549a.509.509 0 0 1 .18.388v46.459a.508.508 0 0 1-.508.508zm-31.538-1.016h31.03v-45.715l-15.515-13.119-15.515 13.119z" class="cls-16" transform="translate(-1111.26 -270.714)"/>
                                </g>
                                <g id="그룹_758" transform="translate(12.776 60.008)">
                                    <path id="패스_614" d="M1143.814 443.347h-32.046a.508.508 0 0 1-.508-.508v-10.952a.508.508 0 0 1 .508-.508h32.046a.508.508 0 0 1 .508.508v10.952a.508.508 0 0 1-.508.508zm-31.538-1.016h31.03V432.4h-31.03z" class="cls-16" transform="translate(-1111.26 -431.379)"/>
                                </g>
                                <g id="그룹_759" transform="translate(16.718 50.016)">
                                    <path id="패스_615" d="M1146.485 410.159h-24.162a.508.508 0 0 1-.508-.508v-4.516a.508.508 0 0 1 .508-.508h24.162a.508.508 0 0 1 .508.508v4.516a.508.508 0 0 1-.508.508zm-23.654-1.016h23.146v-3.5h-23.146z" class="cls-16" transform="translate(-1121.815 -404.626)"/>
                                </g>
                                <g id="그룹_760" transform="translate(16.718 50.016)">
                                    <path id="패스_616" d="M1146.485 410.159h-24.162a.508.508 0 0 1-.508-.508v-4.516a.508.508 0 0 1 .508-.508h24.162a.508.508 0 0 1 .508.508v4.516a.508.508 0 0 1-.508.508zm-23.654-1.016h23.146v-3.5h-23.146z" class="cls-16" transform="translate(-1121.815 -404.626)"/>
                                </g>
                                <g id="그룹_761" transform="translate(16.718 40.023)">
                                    <path id="패스_617" d="M1146.485 383.4h-24.162a.508.508 0 0 1-.508-.508v-4.512a.508.508 0 0 1 .508-.508h24.162a.508.508 0 0 1 .508.508v4.52a.508.508 0 0 1-.508.5zm-23.654-1.016h23.146v-3.5h-23.146z" class="cls-16" transform="translate(-1121.815 -377.872)"/>
                                </g>
                                <g id="그룹_762" transform="translate(16.718 30.031)">
                                    <path id="패스_618" d="M1146.485 356.652h-24.162a.508.508 0 0 1-.508-.508v-4.517a.508.508 0 0 1 .508-.508h24.162a.508.508 0 0 1 .508.508v4.517a.508.508 0 0 1-.508.508zm-23.654-1.016h23.146v-3.5h-23.146z" class="cls-16" transform="translate(-1121.815 -351.119)"/>
                                </g>
                                <g id="그룹_763" transform="translate(16.718 20.039)">
                                    <path id="패스_619" d="M1146.485 329.9h-24.162a.508.508 0 0 1-.508-.508v-4.516a.508.508 0 0 1 .508-.508h24.162a.508.508 0 0 1 .508.508v4.516a.508.508 0 0 1-.508.508zm-23.654-1.016h23.146v-3.5h-23.146z" class="cls-16" transform="translate(-1121.815 -324.365)"/>
                                </g>
                                <g id="그룹_764" transform="translate(21.861 60.008)">
                                    <path id="패스_620" d="M1149.969 443.347h-13.876a.508.508 0 0 1-.509-.508v-10.952a.508.508 0 0 1 .509-.508h13.876a.508.508 0 0 1 .508.508v10.952a.508.508 0 0 1-.508.508zm-13.368-1.016h12.86V432.4H1136.6z" class="cls-16" transform="translate(-1135.584 -431.379)"/>
                                </g>
                                <g id="그룹_765" transform="translate(44.822 20.039)">
                                    <path id="패스_621" d="M1210.345 376.3h-12.776a.508.508 0 0 1-.508-.508v-50.919a.508.508 0 0 1 .508-.508h12.776a.508.508 0 0 1 .508.508v50.921a.508.508 0 0 1-.508.506zm-12.268-1.016h11.759v-49.9h-11.759z" class="cls-16" transform="translate(-1197.061 -324.365)"/>
                                </g>
                                <g id="그룹_766" transform="translate(0 30.031)">
                                    <path id="패스_622" d="M1090.337 393.064h-12.776a.508.508 0 0 1-.508-.508v-40.929a.508.508 0 0 1 .508-.508h12.776a.508.508 0 0 1 .508.508v40.929a.508.508 0 0 1-.508.508zm-12.268-1.016h11.76v-39.913h-11.76z" class="cls-16" transform="translate(-1077.053 -351.119)"/>
                                </g>
                                <g id="그룹_767" transform="translate(28.8 60.008)">
                                    <path id="패스_623" d="M1154.669 443.347a.508.508 0 0 1-.508-.508v-10.952a.508.508 0 0 1 1.016 0v10.952a.508.508 0 0 1-.508.508z" class="cls-16" transform="translate(-1154.161 -431.379)"/>
                                </g>
                                <g id="그룹_768" transform="translate(6.388 34.685)">
                                    <path id="패스_624" d="M1094.665 396.217a.508.508 0 0 1-.508-.508v-31.62a.508.508 0 1 1 1.016 0v31.619a.508.508 0 0 1-.508.509z" class="cls-16" transform="translate(-1094.157 -363.581)"/>
                                </g>
                                <g id="그룹_769" transform="translate(51.211 25.063)">
                                    <path id="패스_625" d="M1214.672 379.706a.508.508 0 0 1-.508-.508v-40.874a.508.508 0 0 1 1.016 0V379.2a.508.508 0 0 1-.508.506z" class="cls-16" transform="translate(-1214.164 -337.816)"/>
                                </g>
                            </g>
                        </g>
                    </g>
                    <g id="그룹_1471" transform="translate(.731 3.782)">
                        <g id="그룹_1448" transform="translate(660 3160)">
                            <circle id="타원_331" cx="13.5" cy="13.5" r="13.5" class="cls-12" transform="translate(.269 .218)"/>
                            <path id="패스_1173" d="M669.514 3188.8v-10.426h-5.63l10.306-12.076 9.762 12.076h-5.267v11.4h-9.171z" class="cls-17" transform="translate(-660.196 -3160.318)"/>
                            <path id="패스_1169" d="M68.538 23.647h-.076a1.35 1.35 0 1 1 1.357-1.35.513.513 0 1 0 1.026 0 2.379 2.379 0 0 0-1.87-2.317v-.356a.513.513 0 1 0-1.026 0v.356a2.374 2.374 0 0 0 .513 4.693h.076a1.35 1.35 0 1 1-1.357 1.35.513.513 0 0 0-1.026 0 2.375 2.375 0 0 0 1.794 2.294v.38a.513.513 0 1 0 1.026 0v-.341a2.373 2.373 0 0 0-.437-4.708z" class="cls-12" transform="translate(-54.583 -7.427)"/>
                            <path id="빼기_1" d="M6.637 22.651h-.549a.576.576 0 0 1-.559-.59v-8.84H.559a.561.561 0 0 1-.511-.348.615.615 0 0 1 .093-.634L10.32.188a.557.557 0 0 1 .835 0l10.179 12.051a.618.618 0 0 1 .093.634.562.562 0 0 1-.511.348h-5.008v8.839a.576.576 0 0 1-.56.59H14.8V12.522a.568.568 0 0 1 .549-.48h4.32L10.737 1.468l-8.93 10.574h4.281a.566.566 0 0 1 .549.48V22.65z" class="cls-17" transform="translate(3.236 5.321)"/>
                        </g>
                    </g>
                </g>
            </g>
            <g id="그룹_1474">
                <g id="그룹_1453">
                    <g id="그룹_1452">
                        <g filter="url(#패스_1101)" transform="translate(228 2632)">
                            <g id="패스_1101-2" class="cls-14">
                                <path d="M-6497.335-2207.448l-71.818-41.464v-82.93l71.818-41.464 71.819 41.465v82.929l-71.82 41.464z" class="cls-19" transform="translate(6899.56 2672.92)"/>
                                <path d="M-6497.335-2208.602l70.819-40.888v-81.774l-70.82-40.887-70.817 40.887v81.774l70.818 40.888m0 2.309l-72.818-42.042v-84.084l72.818-42.041 72.819 42.041v84.084l-72.82 42.042z" class="cls-21" transform="translate(6899.56 2672.92)"/>
                            </g>
                        </g>
                        <g id="그룹_1097" transform="translate(598 2972)">
                            <g id="그룹_500" transform="translate(20.714 70.646)">
                                <path id="패스_421" d="M651.772 700.947h-15.847a.624.624 0 0 1-.623-.623v-9.567a.624.624 0 0 1 .623-.624h15.846a.624.624 0 0 1 .623.624v9.567a.624.624 0 0 1-.622.623zm-15.223-1.247h14.6v-8.32h-14.6z" class="cls-16" transform="translate(-635.302 -690.133)"/>
                            </g>
                            <g id="그룹_504" transform="translate(28.637 70.646)">
                                <path id="패스_424" d="M653.211 700.947a.623.623 0 0 1-.623-.623v-9.567a.623.623 0 1 1 1.247 0v9.567a.623.623 0 0 1-.624.623z" class="cls-16" transform="translate(-652.588 -690.133)"/>
                            </g>
                            <g id="그룹_1095">
                                <g id="그룹_499" transform="translate(13.041 47.425)">
                                    <path id="패스_420" d="M650.378 673.508h-31.192a.624.624 0 0 1-.624-.624V640.1a.624.624 0 0 1 .624-.624h31.192a.624.624 0 0 1 .624.624v32.788a.624.624 0 0 1-.624.62zm-30.568-1.247h29.945v-31.542h-29.946z" class="cls-16" transform="translate(-618.562 -639.472)"/>
                                </g>
                                <g id="그룹_503" transform="translate(16.651 52.145)">
                                    <g id="그룹_501" transform="translate(0 9.991)">
                                        <path id="패스_422" d="M651.034 677.156h-23.971a.623.623 0 0 1-.623-.623v-4.344a.623.623 0 0 1 .623-.623h23.971a.623.623 0 0 1 .623.623v4.344a.623.623 0 0 1-.623.623zm-23.347-1.247h22.723v-3.1h-22.723z" class="cls-16" transform="translate(-626.44 -671.566)"/>
                                    </g>
                                    <g id="그룹_502">
                                        <path id="패스_423" d="M651.034 655.359h-23.971a.624.624 0 0 1-.623-.624v-4.343a.623.623 0 0 1 .623-.623h23.971a.623.623 0 0 1 .623.623v4.343a.623.623 0 0 1-.623.624zm-23.347-1.247h22.723v-3.1h-22.723z" class="cls-16" transform="translate(-626.44 -649.769)"/>
                                    </g>
                                </g>
                                <g id="그룹_505" transform="translate(11.348)">
                                    <path id="패스_425" d="M615.494 545.619a.623.623 0 0 1-.623-.624v-8.365a.623.623 0 1 1 1.247 0V545a.624.624 0 0 1-.624.619z" class="cls-16" transform="translate(-614.87 -536.007)"/>
                                </g>
                                <g id="그룹_511" transform="translate(0 8.365)">
                                    <g id="그룹_506" transform="translate(6.822)">
                                        <path id="패스_426" d="M614.671 563.182h-9.054a.624.624 0 0 1-.623-.624v-7.678a.624.624 0 0 1 .623-.623h9.054a.624.624 0 0 1 .623.623v7.678a.624.624 0 0 1-.623.624zm-8.43-1.247h7.807V555.5h-7.807z" class="cls-16" transform="translate(-604.994 -554.257)"/>
                                    </g>
                                    <g id="그룹_507" transform="translate(3.15 7.678)">
                                        <path id="패스_427" d="M614 581.192h-16.4a.623.623 0 0 1-.623-.623v-8.939a.623.623 0 0 1 .623-.623H614a.623.623 0 0 1 .623.623v8.938a.623.623 0 0 1-.623.624zm-15.774-1.247h15.15v-7.69H598.23z" class="cls-16" transform="translate(-596.983 -571.007)"/>
                                    </g>
                                    <g id="그룹_508" transform="translate(0 16.615)">
                                        <path id="패스_428" d="M603.776 646.986h-13.042a.623.623 0 0 1-.623-.623V591.13a.623.623 0 0 1 .623-.624h22.7a.624.624 0 0 1 .624.624v22.444a.624.624 0 0 1-.624.623H604.4v32.165a.623.623 0 0 1-.624.624zm-12.418-1.247h11.794v-32.165a.624.624 0 0 1 .624-.624h9.032v-21.2h-21.45z" class="cls-16" transform="translate(-590.111 -590.506)"/>
                                    </g>
                                    <g id="그룹_509" transform="translate(3.846 20.78)">
                                        <path id="패스_429" d="M604.475 647.909h-5.35a.624.624 0 0 1-.624-.623v-47.071a.624.624 0 0 1 .624-.623h5.35a.624.624 0 0 1 .624.623v47.071a.624.624 0 0 1-.624.623zm-4.727-1.247h4.1v-45.823h-4.1z" class="cls-16" transform="translate(-598.501 -599.592)"/>
                                    </g>
                                    <g id="그룹_510" transform="translate(13.041 20.78)">
                                        <path id="패스_430" d="M624.536 615.669h-5.35a.624.624 0 0 1-.624-.624v-14.83a.624.624 0 0 1 .624-.623h5.35a.624.624 0 0 1 .624.623v14.83a.624.624 0 0 1-.624.624zm-4.727-1.247h4.1v-13.583h-4.1z" class="cls-16" transform="translate(-618.562 -599.592)"/>
                                    </g>
                                </g>
                                <g id="그룹_514" transform="translate(38.841 21.777)">
                                    <g id="그룹_512" transform="translate(2.969)">
                                        <path id="패스_431" d="M691.005 589.167h-9.053a.624.624 0 0 1-.624-.623v-4.4a.624.624 0 0 1 .624-.624h9.053a.624.624 0 0 1 .624.624v4.4a.624.624 0 0 1-.624.623zm-8.43-1.247h7.806v-3.154h-7.806z" class="cls-16" transform="translate(-681.328 -583.519)"/>
                                    </g>
                                    <g id="그룹_513" transform="translate(0 4.401)">
                                        <path id="패스_432" d="M690.513 599.923h-15.039a.623.623 0 0 1-.623-.623v-5.555a.623.623 0 0 1 .623-.623h15.039a.623.623 0 0 1 .623.623v5.555a.623.623 0 0 1-.623.623zm-14.413-1.247h13.79v-4.308H676.1z" class="cls-16" transform="translate(-674.851 -593.121)"/>
                                    </g>
                                </g>
                                <g id="그룹_515" transform="translate(34.561 31.734)">
                                    <path id="패스_433" d="M689.735 654.966h-13.928a.624.624 0 0 1-.623-.623v-32.165h-9.048a.624.624 0 0 1-.624-.623v-15.692a.624.624 0 0 1 .624-.623h23.6a.623.623 0 0 1 .623.623v48.48a.623.623 0 0 1-.624.623zm-13.3-1.247h12.68v-47.232h-22.356v14.444h9.048a.624.624 0 0 1 .624.624z" class="cls-16" transform="translate(-665.512 -605.24)"/>
                                </g>
                                <g id="그룹_516" transform="translate(48.553 35.206)">
                                    <path id="패스_434" d="M702.012 655.071h-5.351a.623.623 0 0 1-.623-.623v-41.01a.623.623 0 0 1 .623-.623h5.351a.623.623 0 0 1 .624.623v41.01a.624.624 0 0 1-.624.623zm-4.727-1.247h4.1v-39.762h-4.1z" class="cls-16" transform="translate(-696.038 -612.815)"/>
                                </g>
                                <g id="그룹_517" transform="translate(38.867 35.206)">
                                    <path id="패스_435" d="M680.879 622.831h-5.35a.624.624 0 0 1-.623-.624v-8.769a.623.623 0 0 1 .623-.623h5.35a.624.624 0 0 1 .624.623v8.769a.624.624 0 0 1-.624.624zm-4.727-1.247h4.1v-7.522h-4.1z" class="cls-16" transform="translate(-674.905 -612.815)"/>
                                </g>
                            </g>
                        </g>
                        <path id="선_691" d="M0 0L88 0" class="cls-15" transform="translate(586.5 3053.5)"/>
                    </g>
                    <g id="그룹_1449" transform="translate(-1)">
                        <g id="noun_balanced_2910141" transform="translate(661.863 2972.432)">
                            <g id="그룹_1133">
                                <g id="그룹_1132">
                                    <g id="그룹_1121" transform="translate(8.573 26.289)">
                                        <path id="패스_1117" d="M178.544 479.8H169.4a.4.4 0 1 1 0-.8h9.144a.4.4 0 1 1 0 .8z" class="cls-18" transform="translate(-169 -479)"/>
                                    </g>
                                    <g id="그룹_1122" transform="translate(6.287 1.143)">
                                        <path id="패스_1118" d="M143.116 39.8H129.4a.4.4 0 0 1 0-.8h13.716a.4.4 0 0 1 0 .8z" class="cls-18" transform="translate(-129 -39)"/>
                                    </g>
                                    <g id="그룹_1123" transform="translate(13.145)">
                                        <path id="패스_1119" d="M249.4 46.09a.4.4 0 0 1-.4-.4V19.4a.4.4 0 0 1 .8 0v26.289a.4.4 0 0 1-.4.401z" class="cls-18" transform="translate(-249 -19)"/>
                                    </g>
                                    <g id="그룹_1124" transform="translate(20.003)">
                                        <path id="패스_1120" d="M370.543 22.086a1.543 1.543 0 1 1 1.543-1.543 1.545 1.545 0 0 1-1.543 1.543zm0-2.286a.743.743 0 1 0 .743.743.744.744 0 0 0-.743-.743z" class="cls-18" transform="translate(-369 -19)"/>
                                    </g>
                                    <g id="그룹_1125" transform="translate(4.001)">
                                        <path id="패스_1121" d="M90.543 22.086a1.543 1.543 0 1 1 1.543-1.543 1.545 1.545 0 0 1-1.543 1.543zm0-2.286a.743.743 0 1 0 .743.743.744.744 0 0 0-.743-.743z" class="cls-18" transform="translate(-89 -19)"/>
                                    </g>
                                    <g id="그룹_1128" transform="translate(0 2.286)">
                                        <g id="그룹_1126" transform="translate(2.286)">
                                            <path id="패스_1122" d="M65.115 72.373H59.4a.4.4 0 0 1-.39-.489l2.858-12.573a.4.4 0 0 1 .78 0L65.5 71.885a.4.4 0 0 1-.39.489zm-5.214-.8h4.713l-2.357-10.368z" class="cls-18" transform="translate(-59 -59)"/>
                                        </g>
                                        <g id="그룹_1127" transform="translate(0 12.573)">
                                            <path id="패스_1123" d="M24.544 285.515A5.55 5.55 0 0 1 19 279.972v-.572a.4.4 0 0 1 .4-.4h10.287a.4.4 0 0 1 .4.4v.571a5.55 5.55 0 0 1-5.543 5.544zM19.8 279.8v.171a4.744 4.744 0 1 0 9.487 0v-.171z" class="cls-18" transform="translate(-19 -279)"/>
                                        </g>
                                    </g>
                                    <g id="그룹_1131" transform="translate(16.002 2.286)">
                                        <g id="그룹_1129" transform="translate(2.286)">
                                            <path id="패스_1124" d="M345.115 72.373H339.4a.4.4 0 0 1-.39-.489l2.858-12.573a.4.4 0 0 1 .78 0l2.858 12.573a.4.4 0 0 1-.39.489zm-5.214-.8h4.713l-2.356-10.368z" class="cls-18" transform="translate(-339 -59)"/>
                                        </g>
                                        <g id="그룹_1130" transform="translate(0 12.573)">
                                            <path id="패스_1125" d="M304.544 285.515a5.55 5.55 0 0 1-5.544-5.543v-.572a.4.4 0 0 1 .4-.4h10.287a.4.4 0 0 1 .4.4v.571a5.55 5.55 0 0 1-5.543 5.544zM299.8 279.8v.171a4.744 4.744 0 1 0 9.487 0v-.171z" class="cls-18" transform="translate(-299 -279)"/>
                                        </g>
                                    </g>
                                </g>
                            </g>
                        </g>
                        <path id="패스_1171" d="M12354.336 4868.767h10.088s.362 5.522-5.057 5.625-5.031-5.625-5.031-5.625z" class="cls-12" transform="translate(-11692 -1881)"/>
                        <path id="패스_1172" d="M12354.336 4868.767h10.088s.362 5.522-5.057 5.625-5.031-5.625-5.031-5.625z" class="cls-12" transform="translate(-11676 -1881)"/>
                    </g>
                </g>
            </g>
        </g>
    </g>
</svg>
