<svg xmlns="http://www.w3.org/2000/svg" width="198" height="182" viewBox="0 0 198 182">
    <rect width="198" height="182" fill="#fff" rx="91"/>
    <path fill="#3769fc" d="M4.212 89.863h70.206a4.075 4.075 0 0 0 4.212-4.213V7.021a4.075 4.075 0 0 0-4.212-4.212H63.185a1.4 1.4 0 0 0 0 2.808h11.233a1.29 1.29 0 0 1 1.4 1.4V85.65a1.29 1.29 0 0 1-1.4 1.4H4.212a1.29 1.29 0 0 1-1.4-1.4V7.021a1.29 1.29 0 0 1 1.4-1.4h11.233a1.4 1.4 0 1 0 0-2.808H4.212A4.075 4.075 0 0 0 0 7.021V85.65a4.075 4.075 0 0 0 4.212 4.213zm11.233-75.822a1.4 1.4 0 0 0 0-2.808H9.829a1.4 1.4 0 0 0-1.4 1.4v67.4a1.4 1.4 0 0 0 1.4 1.4H68.8a1.4 1.4 0 0 0 1.4-1.4v-67.4a1.4 1.4 0 0 0-1.4-1.4h-5.615a1.4 1.4 0 0 0 0 2.808H67.4V78.63H11.233V14.041zm9.829 5.616h28.082a5.263 5.263 0 0 0 5.616-5.616V1.4a1.4 1.4 0 0 0-1.4-1.4h-36.51a1.4 1.4 0 0 0-1.4 1.4v12.641a5.263 5.263 0 0 0 5.612 5.616zM22.466 2.808h33.7v11.233a2.489 2.489 0 0 1-2.808 2.808H25.274a2.489 2.489 0 0 1-2.808-2.808zm1.4 42.123H54.76a1.4 1.4 0 0 0 0-2.808H23.87a1.4 1.4 0 0 0 0 2.808zm0-11.233H54.76a1.4 1.4 0 0 0 0-2.808H23.87a1.4 1.4 0 1 0 0 2.808zm0 22.466H54.76a1.4 1.4 0 0 0 0-2.808H23.87a1.4 1.4 0 0 0 0 2.808zm0 11.233H54.76a1.4 1.4 0 0 0 0-2.808H23.87a1.4 1.4 0 0 0 0 2.808z" transform="translate(60 40.137)"/>
</svg>
