<svg xmlns="http://www.w3.org/2000/svg" width="198" height="182" viewBox="0 0 198 182">
    <rect width="198" height="182" fill="#fff" rx="91"/>
    <path fill="#3182f5" d="M102.71 36.4H6.5a1.3 1.3 0 0 0-1.264 1.615l10.418 41.652c.25.876 1.017 3.542 3.848 3.542h70.207c2.842 0 3.6-2.668 3.861-3.586l10.4-41.6a1.3 1.3 0 0 0-1.26-1.623zM91.061 78.952c-.473 1.656-.962 1.656-1.352 1.656H19.5c-.387 0-.874 0-1.339-1.615L8.167 39h92.878zM48.1 72.808a1.3 1.3 0 0 0 1.3-1.3v-23.4a1.3 1.3 0 1 0-2.6 0v23.4a1.3 1.3 0 0 0 1.3 1.3zm-18.2 0a1.45 1.45 0 0 0 .148-.008 1.3 1.3 0 0 0 1.152-1.435l-2.6-23.4a1.3 1.3 0 1 0-2.585.286l2.6 23.4a1.3 1.3 0 0 0 1.29 1.157zm33.806 0a1.3 1.3 0 0 0 1.3-1.3v-23.4a1.3 1.3 0 1 0-2.6 0v23.4a1.3 1.3 0 0 0 1.3 1.3zm15.456-.008a1.45 1.45 0 0 0 .148.008 1.3 1.3 0 0 0 1.29-1.157l2.6-23.4a1.3 1.3 0 1 0-2.585-.286l-2.6 23.4a1.3 1.3 0 0 0 1.147 1.435zm10.547-41.6a1.3 1.3 0 0 0 .983-2.15L65.989.45a1.3 1.3 0 1 0-1.966 1.7l24.7 28.6a1.293 1.293 0 0 0 .983.452zM46.326.294A1.3 1.3 0 0 0 44.5.479l-23.4 28.6a1.3 1.3 0 0 0 .182 1.831 1.314 1.314 0 0 0 .824.291 1.288 1.288 0 0 0 1.006-.478l23.4-28.6a1.3 1.3 0 0 0-.186-1.829zM107.91 26h-10.4a1.3 1.3 0 0 0 0 2.6h10.4a1.3 1.3 0 0 0 0-2.6zM35.1 28.6h41.6a1.3 1.3 0 0 0 0-2.6H35.1a1.3 1.3 0 0 0 0 2.6zm-33.8 0h13a1.3 1.3 0 0 0 0-2.6h-13a1.3 1.3 0 0 0 0 2.6z" transform="translate(44 49)"/>
</svg>
