<svg xmlns="http://www.w3.org/2000/svg" width="198" height="182" viewBox="0 0 198 182">
    <rect width="198" height="182" fill="#fff" rx="91"/>
    <path fill="#3182f5" d="M0 81.827a1.3 1.3 0 0 0 1.3 1.3h80.9a1.273 1.273 0 0 0 .5-.1 1.336 1.336 0 0 0 .421-.283l.008-.005c.008-.008.008-.023.018-.031a1.308 1.308 0 0 0 .278-.507 1.371 1.371 0 0 0 .036-.179 1.17 1.17 0 0 0 .039-.19 1.208 1.208 0 0 0-.06-.291c-.008-.036.008-.073-.005-.109l-8.217-25.264a1.27 1.27 0 0 0-.317-.517L30.392 11.139a1.294 1.294 0 0 0-.143-.216L20.526 1.2a4.057 4.057 0 0 0-5.728 0L1.186 14.813a4.052 4.052 0 0 0 0 5.728l9.507 9.507a1.258 1.258 0 0 0 .14.213L55.271 75a1.275 1.275 0 0 0 .551.33l17.455 5.2H1.3a1.3 1.3 0 0 0-1.3 1.3zm16.543-55.432l40.79 40.268-1.5 5.206-42.241-42.523 2.951-2.951zM59.327 64.98L18.379 24.559l6.337-6.337L65.3 58.911v6.069zm7.59-8.126l-40.363-40.47 2.7-2.7 42.154 42.151zM59.775 67.58H66.6a1.3 1.3 0 0 0 1.3-1.3V59.3l5.219-1.186L80.2 79.877 58.126 73.3zM2.6 17.676a1.444 1.444 0 0 1 .424-1.025L16.636 3.039a1.452 1.452 0 0 1 2.052 0l8.768 8.768-15.661 15.662L3.027 18.7a1.431 1.431 0 0 1-.427-1.024z" transform="translate(60.434 40.52)"/>
</svg>
