<svg xmlns="http://www.w3.org/2000/svg" width="198" height="182" viewBox="0 0 198 182">
    <rect width="198" height="182" fill="#fff" rx="91"/>
    <path fill="#3182f5" d="M4.5 7.8a1.3 1.3 0 0 0-1.3 1.3v44.2a3.905 3.905 0 0 0 3.9 3.9h72.808a3.905 3.905 0 0 0 3.9-3.9V9.1a1.3 1.3 0 1 0-2.6 0v44.2a1.3 1.3 0 0 1-1.3 1.3H7.1a1.3 1.3 0 0 1-1.3-1.3V9.1a1.3 1.3 0 0 0-1.3-1.3zM87.709 0H-.7A1.3 1.3 0 0 0-2 1.3 1.3 1.3 0 0 0-.7 2.6h88.409a1.3 1.3 0 0 0 0-2.6zM34.024 21.182a1.3 1.3 0 0 0-1.753-.081l-15.6 13a1.3 1.3 0 1 0 1.667 2L33.025 23.86l14.762 14.762A1.287 1.287 0 0 0 48.7 39a1.306 1.306 0 0 0 .92-.38l18.587-18.58v9.86a1.3 1.3 0 1 0 2.6 0v-13a1.3 1.3 0 0 0-1.3-1.3h-13a1.3 1.3 0 0 0 0 2.6h9.863L48.7 35.866zm-9.873 61.33a1.3 1.3 0 0 0 1.755.549l17.6-9.218 17.6 9.218a1.285 1.285 0 0 0 .6.148 1.3 1.3 0 0 0 .6-2.452l-17.92-9.387a1.286 1.286 0 0 0 .419-.947v-6.716a1.3 1.3 0 1 0-2.6 0v6.717a1.284 1.284 0 0 0 .419.944L24.7 80.754a1.3 1.3 0 0 0-.549 1.758z" transform="translate(55 49)"/>
</svg>
