<svg xmlns="http://www.w3.org/2000/svg" width="198" height="182" viewBox="0 0 198 182">
    <rect width="198" height="182" fill="#fff" rx="91"/>
    <path fill="#3182f5" d="M84.532 19.5a1.3 1.3 0 0 0 1.3-1.3v-4.325a4.265 4.265 0 0 0-4.259-4.259h-6.987l-1.594-4.7a1.3 1.3 0 0 0-1.61-.827l-37.841 11.5a1.3 1.3 0 0 0 .38 2.543 1.381 1.381 0 0 0 .38-.055l36.634-11.14 3.492 10.31a1.3 1.3 0 1 0 2.462-.835l-1.422-4.2h6.108a1.66 1.66 0 0 1 1.659 1.659V18.2a1.3 1.3 0 0 0 1.298 1.3zM94.91 39a1.3 1.3 0 0 0 0 2.6c.913 0 1.3.387 1.3 1.3v15.6c0 .913-.387 1.3-1.3 1.3h-20.8c-.913 0-1.3-.387-1.3-1.3v-13c0-.913.387-1.3 1.3-1.3h15.6a1.3 1.3 0 0 0 1.3-1.3V27.3a3.656 3.656 0 0 0-3.9-3.9H7.8a4.827 4.827 0 0 1-5.2-5.2A4.827 4.827 0 0 1 7.8 13H21l-7.868 2.6a1.3 1.3 0 0 0 .406 2.533 1.325 1.325 0 0 0 .408-.065L61.059 2.535a1.3 1.3 0 0 0-.816-2.47L28.78 10.44a1.016 1.016 0 0 0-.18-.04H7.8A7.386 7.386 0 0 0 0 18.2v57.21a7.386 7.386 0 0 0 7.8 7.8h79.308a3.656 3.656 0 0 0 3.9-3.9v-13a1.3 1.3 0 1 0-2.6 0v13c0 .913-.387 1.3-1.3 1.3H7.8a4.827 4.827 0 0 1-5.2-5.2V24.216a7.9 7.9 0 0 0 5.2 1.789h79.308c.913 0 1.3.387 1.3 1.3v14.3h-14.3a3.656 3.656 0 0 0-3.9 3.9v13a3.656 3.656 0 0 0 3.9 3.9h20.8a3.656 3.656 0 0 0 3.9-3.9v-15.6a3.656 3.656 0 0 0-3.899-3.898zm-14.3 13a2.6 2.6 0 1 0 2.6-2.6 2.6 2.6 0 0 0-2.602 2.608z" transform="translate(50 49.002)"/>
</svg>
