<svg xmlns="http://www.w3.org/2000/svg" width="198" height="182" viewBox="0 0 198 182">
    <rect width="198" height="182" fill="#fff" rx="91"/>
    <path fill="#3182f5" d="M70.739 6.018a1.3 1.3 0 0 0-1.815-.668L37.965 21.685a1.3 1.3 0 0 0-.606 1.615L38 24.966l-17.872 9.8a1.3 1.3 0 0 0-.577 1.638l.593 1.428L1.161 46.9a1.3 1.3 0 0 0-.64 1.672l3.9 9.387a1.3 1.3 0 0 0 1.2.8 1.262 1.262 0 0 0 .434-.075l19.827-7.023.593 1.428a1.3 1.3 0 0 0 1.2.8 1.253 1.253 0 0 0 .361-.052l18.919-5.453.567 1.48a1.3 1.3 0 0 0 1.591.777l33.8-10.4a1.3 1.3 0 0 0 .824-1.724l-13-32.506zM6.346 55.826L3.4 48.717l17.742-8.479 3.742 9.023-18.538 6.565zm22.079-4.8l-.619-1.493-4.792-11.557-.619-1.49L38.87 27.45l6.173 15.95.975 2.551-17.593 5.075zm21.085-3.219l-.528-1.381a.554.554 0 0 0-.016-.091l-1.606-4.152-7.16-18.738 28.661-15.12L80.8 38.176zM74.639.818a1.3 1.3 0 1 0-2.416.965l15.6 39a1.305 1.305 0 0 0 1.209.819 1.269 1.269 0 0 0 .484-.094 1.3 1.3 0 0 0 .725-1.69l-15.6-39zM46.13 54.607h-7.8a5.087 5.087 0 0 0-5.2 5.2v3.419L17.842 81.062a1.3 1.3 0 0 0 .985 2.148 1.284 1.284 0 0 0 .985-.455l15.215-17.747h5.9v16.9a1.3 1.3 0 1 0 2.6 0v-16.9h5.9l15.217 17.747a1.3 1.3 0 0 0 1.974-1.693L51.33 63.227V60a5.244 5.244 0 0 0-5.2-5.4zm2.6 7.8h-13v-2.6a2.487 2.487 0 0 1 2.6-2.6h7.8a2.644 2.644 0 0 1 2.6 2.8z" transform="translate(53.578 49.001)"/>
</svg>
